<?xml version="1.0" encoding="utf-8"?>
<svg version="1.1" xmlns:xlink="http://www.w3.org/1999/xlink" width="11px" height="6px" xmlns="http://www.w3.org/2000/svg">
  <defs>
    <pattern id="BGPattern" patternUnits="userSpaceOnUse" alignment="0 0" imageRepeat="None" />
    <mask fill="white" id="Clip211">
      <path d="M 5.1565394736842105 5.265136363636363  L 5.514690785516037 5.603045454545454  L 10.453328951326068 0.9515454582741463  C 10.649642564684445 0.7647945386050152  10.649642564684445 0.46391001430691425  10.453328951326068 0.27715909463778327  C 10.358510443172282 0.187185985068228  10.229500578734376 0.13658547183160186  10.094925787765996 0.13658547183160186  C 9.960598614061972 0.13658547183160186  9.831805090554925 0.18700047238262696  9.737026315789473 0.2766818181818172  L 5.515703951326069 4.2523636326349425  L 1.2979276315789483 0.2766818181818182  C 1.203215655517849 0.18688339708088672  1.0743977720030773 0.136387346189047  0.9400296052631584 0.136387346189047  C 0.8056614385232399 0.136387346189047  0.676843555008468 0.1868833970808872  0.582131578947369 0.2766818181818167  C 0.38520252858248805 0.4632268257999948  0.3847502710924922 0.7644763445400279  0.58111842501028 0.9515454582741467  L 5.136782894736843 5.245568185546873  L 5.157046056589227 5.265136363636362  Z " fill-rule="evenodd" />
    </mask>
  </defs>
  <g transform="matrix(1 0 0 1 -199 -15 )">
    <path d="M 5.1565394736842105 5.265136363636363  L 5.514690785516037 5.603045454545454  L 10.453328951326068 0.9515454582741463  C 10.649642564684445 0.7647945386050152  10.649642564684445 0.46391001430691425  10.453328951326068 0.27715909463778327  C 10.358510443172282 0.187185985068228  10.229500578734376 0.13658547183160186  10.094925787765996 0.13658547183160186  C 9.960598614061972 0.13658547183160186  9.831805090554925 0.18700047238262696  9.737026315789473 0.2766818181818172  L 5.515703951326069 4.2523636326349425  L 1.2979276315789483 0.2766818181818182  C 1.203215655517849 0.18688339708088672  1.0743977720030773 0.136387346189047  0.9400296052631584 0.136387346189047  C 0.8056614385232399 0.136387346189047  0.676843555008468 0.1868833970808872  0.582131578947369 0.2766818181818167  C 0.38520252858248805 0.4632268257999948  0.3847502710924922 0.7644763445400279  0.58111842501028 0.9515454582741467  L 5.136782894736843 5.245568185546873  L 5.157046056589227 5.265136363636362  Z " fill-rule="nonzero" fill="rgba(191, 191, 191, 1)" stroke="none" transform="matrix(1 0 0 1 199 15 )" class="fill" />
    <path d="M 5.1565394736842105 5.265136363636363  L 5.514690785516037 5.603045454545454  L 10.453328951326068 0.9515454582741463  C 10.649642564684445 0.7647945386050152  10.649642564684445 0.46391001430691425  10.453328951326068 0.27715909463778327  C 10.358510443172282 0.187185985068228  10.229500578734376 0.13658547183160186  10.094925787765996 0.13658547183160186  C 9.960598614061972 0.13658547183160186  9.831805090554925 0.18700047238262696  9.737026315789473 0.2766818181818172  L 5.515703951326069 4.2523636326349425  L 1.2979276315789483 0.2766818181818182  C 1.203215655517849 0.18688339708088672  1.0743977720030773 0.136387346189047  0.9400296052631584 0.136387346189047  C 0.8056614385232399 0.136387346189047  0.676843555008468 0.1868833970808872  0.582131578947369 0.2766818181818167  C 0.38520252858248805 0.4632268257999948  0.3847502710924922 0.7644763445400279  0.58111842501028 0.9515454582741467  L 5.136782894736843 5.245568185546873  L 5.157046056589227 5.265136363636362  Z " stroke-width="0" stroke-dasharray="0" stroke="rgba(255, 255, 255, 0)" fill="none" transform="matrix(1 0 0 1 199 15 )" class="stroke" mask="url(#Clip211)" />
  </g>
</svg>