<?xml version="1.0" encoding="utf-8"?>
<svg version="1.1" xmlns:xlink="http://www.w3.org/1999/xlink" width="38px" height="25px" xmlns="http://www.w3.org/2000/svg">
  <defs>
    <pattern id="BGPattern" patternUnits="userSpaceOnUse" alignment="0 0" imageRepeat="None" />
    <mask fill="white" id="Clip210">
      <path d="M 3.799085276242666 16.546179705058126  L 3.799085276242665 17.058375221969424  L 4.31069540198902 17.058375221969428  C 4.448591737913482 17.06113685330361  4.558929895361329 17.173855631037483  4.558902307883376 17.31193735953497  C 4.558902307883376 17.45190366180184  4.449995205269076 17.56549949710052  4.31069540198902 17.56549949710052  L 3.799085276242665 17.56549949710052  L 3.799085276242665 18.07769498973391  C 3.796326801061869 18.21574910195098  3.6837368449224432 18.326213504561874  3.5458129242790415 18.32618588551927  C 3.5444616031917526 18.326207896810658  3.5431101256148483 18.326218903002527  3.54175862568103 18.326218903002527  C 3.4045008272394064 18.326218903002527  3.2930803591734716 18.215108771260414  3.292540572315418 18.07769498973391  L 3.292540572315418 17.56549949710052  L 2.7809304223189035 17.56549949710052  C 2.643034086394438 17.562737865766348  2.532695928946593 17.450019088032462  2.5327235164245456 17.31193735953497  C 2.5327235164245456 17.17197105726811  2.6416306190388466 17.05837522196942  2.7809304223189035 17.05837522196942  L 3.292540572315418 17.05837522196942  L 3.292540572315418 16.54617970505813  C 3.295299047496213 16.40812559284107  3.40788900363564 16.297661190230166  3.5458129242790415 16.29768880927277  C 3.685619264890977 16.29768880927277  3.799085276242666 16.406720519685916  3.799085276242666 16.546179705058126  Z M 37.74264535193403 15.029878145722925  L 37.231035201937516 15.029878145722927  L 37.231035201937516 14.517682653089537  C 37.23049541507946 14.380268871563048  37.11907494701353 14.269158739820922  36.981817148571906 14.269158739820922  C 36.98046564863808 14.269158739820922  36.979114171061184 14.26916974601279  36.97776284997389 14.269191757304187  C 36.8398389293305 14.269164138261578  36.72724897319107 14.379628540872478  36.72449049801026 14.517682653089537  L 36.72449049801026 15.029878145722927  L 36.21288037226392 15.029878145722927  C 36.07562363522274 15.030418550186726  35.964640486620596 15.141966501758674  35.964640486620596 15.279381345900047  C 35.964640486620596 15.280734392174228  35.964651480233954 15.282087416065455  35.964673466369554 15.283440283288478  C 35.964673466369554 15.419349577564443  36.07611330414357 15.53700242085403  36.21288037226392 15.53700242085403  L 36.72449049801026 15.53700242085403  L 36.72449049801026 16.04919793776532  C 36.72449049801026 16.188657123137542  36.83795650936195 16.297688833550676  36.97776284997389 16.297688809272778  C 37.11568676137228 16.297716428578006  37.228276713735816 16.187252040464227  37.231035201937516 16.04919793776532  L 37.231035201937516 15.53700242085403  L 37.74264535193403 15.53700242085403  C 37.88194515521409 15.53700242085403  37.99085225782839 15.423406585555338  37.990852233578224 15.283440283288478  C 37.9908798213185 15.145358564046587  37.880541678351214 15.032639790092903  37.74264535193403 15.029878145722925  Z M 20.062715829929136 24.632276143836183  L 18.82927948168632 23  L 6.077016759169164 23  C 6.0768465487772065 23.397428736466452  6.0766763383033195 23.397428822701418  6.07650612782418 23.397428822701418  C 5.797868250898061 23.397428822701418  5.571987621724768 23.171289748602806  5.571987621724768 22.892333063704715  C 5.571987621724768 22.891656803379227  5.571988978315153 22.89098054373582  5.571991691487714 22.89030428886546  C 5.571991691487714 22.61037168433173  5.801456449350802 22.38318001373436  6.077016759169165 22.383180038012263  L 8.374196951708974 22.383180038012263  C 8.19690344141251 22.075602334201804  8.103938408359413 21.726584563562113  8.104715186873792 21.37146712077911  L 8.104715186873792 6.6597921186981495  C 8.105272794166543 5.540719347771452  9.011580121806057 4.633827566574481  10.12937409017108 4.633827566574481  C 10.130556111430375 4.633827566574481  10.131738132463951 4.633828602876953  10.1329201519103 4.633830675480703  L 11.650528041614049 4.633830675480703  L 11.650528041614049 4.124170791598457  C 11.651085648906799 3.005098020671763  12.55739297654631 2.0982062394747896  13.675186944911337 2.0982062394747896  C 13.676368966170628 2.0982062394747896  13.67755098720421 2.0982072757772605  13.678733006650559 2  L 25.83175335974788 2  C 25.833272993585663 2.098205920994979  25.83479263079776 2.098204207300332  25.83631226849178 2.098204207300332  C 26.953941124441016 2.098204207300332  27.8599583247909 3.0052580416835992  27.8599583247909 4.124165650517779  L 27.85995832478439 18.835845769401516  C 27.85995832478439 19.204525117227604  27.761688651640497 19.549876748009215  27.589969998367167 19.847558686634663  L 30.392175258588427 19.847558686634663  C 30.67229447714418 19.847558686634663  30.899226499847558 20.07272186537554  30.899226499847558 20.354682961765764  C 30.899226499847558 20.63461556629949  30.67381411338998 20.861807236896862  30.392681795920307 20.861807236896862  L 24.314145445793972 20.861807236896862  L 24.314145445793972 21.37146712077911  C 24.314145445793972 21.740146468605197  24.21587577265008 22.085498099386808  24.04415711937675 22.383180038012263  L 24.315665082039764 22.383180038012263  C 24.594264664349716 22.383180038012263  24.82069014972122 22.608343216753134  24.82069014972122 22.890304288865455  C 24.82069014972122 23.170236893399174  24.591225391858128 23.397428563996552  24.315665082039764 23.397428563996552  L 21.65073345152089 23.397428563996552  C 21.882224382961656 23.78588576204877  21.83207645960087 24.29503850475846  21.495224211119115 24.632276143836183  C 21.305572932787346 24.823041814056328  21.047812009595184 24.930288613006848  20.77897002052412 24.930288613006848  C 20.51012803145306 24.930288613006848  20.2523671082609 24.823041814056328  20.062715829929136 24.632276143836183  Z M 18.987827970329526 20.68786359285259  L 20.681206884712108 22.383180038012263  L 22.292019025740647 22.383180038012263  C 22.849218190360553 22.383180038012263  23.30105606218963 21.931839446741208  23 21.366395878998915  L 23 6.635957284759024  C 23.30105606218963 6.088263075386364  22.863401453904597 5.648079201464999  22.323424801070157 6  L 10.095435831597603 6  C 9.555459178763167 5.648079201464999  9.117804570478128 6.090291567242861  9.117804570478128 6.635957284759024  L 9.117804570478128 21.366395878998915  C 9.117804570478128 21.927782438750313  9.573694789462555 22.383180038012263  10.126335069595237 22.383180038012263  L 17.81568353649995 22.383180038012263  L 17.555319564889388 22.122011025637473  C 17.298376342985105 21.866132049211867  17.19788393553724 21.49214343708126  17.29191632078723 21.141739817152683  L 16.81373814394806 20.66250738395161  C 16.201644096228623 21.118668998024418  15.458925006419193 21.365040572957668  14.695860662177406 21.365040572957668  C 12.737002777670144 21.365040572957668  11.14903470852323 19.775255604811758  11.14903470852323 17.81415646180648  C 11.14903470852323 16.875092710948458  11.520591856482763 15.974264674317116  12.182399975887629 15.30879649218945  C 12.847728662793829 14.640327094351575  13.751535708345736 14.264584223436803  14.69413467161909 14.264584223436803  C 16.652433050439114 14.264584223436803  18.239947550609507 15.853915103648013  18.239947550609507 17.814454100798695  C 18.239947550609507 18.582992567941858  17.99081713405434 19.330774707079033  17.529992334543053 19.945433679698123  L 18.00867707296426 20.424666112899196  C 18.358589287824508 20.33006973850233  18.732300651286717 20.430524008991043  18.987827970329526 20.68786359285259  Z M 24 6.6597921186981495  L 24 19.847558686634663  L 25.838338442062938 19.847558686634663  C 26.395955270210614 19.844768839356224  26.846597222375696 19.391571899719544  26.84686894118005 18.83331016065037  L 26.84686894118005 4.126706400349603  C 26.84686894118005 3.56481272370356  26.395031069350974 3.1124578743653077  25.83833844206295 3.1124578743653077  L 13.671641387003616 3.1124578743653077  C 13.114222574949823 3.115525641322241  12.66388761066865 3.5686414421615202  12.663617449468546 4.126706400349603  L 12.663617449468546 4.633830675480703  L 22.285940480757464 4.633830675480703  C 22.287460114595252 4.633827248094673  22.288979751807343 4.633825534400025  22.290499389501367 4.633825534400025  C 23.408128245450595 4.633825534400025  24.314145445800484 5.540879368783292  24.314145445800484 6.659786977617473  C 24.314145445800484 6.659788690805692  24.31414544579831 6.6597904055099315  24 6.6597921186981495  Z M 6.458444923360397 0.4551267202630342  L 6.458444923360397 1.2107418669015846  L 7.213196508931844 1.2107418669015846  C 7.425945292341337 1.2107418669015846  7.598170482946546 1.3796142448877666  7.598170482946546 1.5910850732499098  C 7.598170482946546 1.801034526650204  7.42594529234134 1.9714282795982359  7.213196508931844 1.9714282795982359  L 6.458444923360397 1.9714282795982359  L 6.458444923360397 2.7270434262367855  C 6.458444923360397 2.9400356295607786  6.289765542578661 3.1124578743653077  6.078536395414962 3.1124578743653077  C 5.868309634020984 3.111068673661904  5.6986194255361085 2.9400592798871505  5.6986194255361085 2.7295873994933615  C 5.6986194255361085 2.728739401388341  5.698622239529444 2.7278914056232626  5.698627867469526 2.7270434262367855  L 5.698627867469526 1.9714282795982352  L 4.9438762818980795 1.9714282795982359  C 4.942693390036 1.971439298181357  4.941510453373599 1.9714448075623396  4.940327510311064 1.9714448075623396  C 4.730257322004506 1.9714448075623396  4.559730149761522 1.8013939836666966  4.558902307883376 1.5910850732499098  C 4.558902307883376 1.3811356198496165  4.7311274984885845 1.2107418669015846  4.9438762818980795 1.2107418669015846  L 5.698627867469526 1.2107418669015846  L 5.698627867469526 0.4551267202630342  C 5.698627867469526 0.24213451693904192  5.867307248251262 0.06971227213451399  6.078536395414962 0.06971227213451399  C 6.288245906332864 0.06971227213451399  6.458444923360397 0.24213451693904192  6.458444923360397 0.4551267202630342  Z M 0.5065406794530254 22.89233306368014  C 0.5065406794530254 22.89165680336291  0.5065420360433771 22.890980543727547  0.5065447492158731 22.89030428886546  C 0.5065447492158731 22.61037168433173  0.7360095070789623 22.38318001373436  1.0115697926471656 22.383180038012263  L 4.053877240201926 22.383180038012263  C 4.33247682251188 22.383180038012263  4.558902307883376 22.608343216753145  4.558902307883376 22.89030428886546  C 4.558902307883376 23.17023689339918  4.329437550020288 23.397428563996552  4.053877240201926 23.397428563996552  L 1.0115697926471656 23.397428563996552  C 0.7324213086263188 23.39742882267684  0.5065406794530254 23.171289748578232  0.5065406794530254 22.89233306368014  Z M 14.6897962288023 20.355017222892382  C 15.361604811013475 20.355017222892382  16.005897862730976 20.087836953530907  16.48093826687182 19.612253024333402  C 16.955978671012662 19.13666909513589  17.2228535911768 18.49163886524493  17.2228535911768 17.81906162252712  C 17.2228535911768 16.4184920181974  16.08876518048835 15.283106022161865  14.6897962288023 15.283106022161865  C 14.017987646591122 15.283106022161865  13.373694594873625 15.550286291523333  12.898654190732783 16.025870220720844  C 12.423613786591936 16.501454149918356  12.1567388664278 17.14648437980932  12.1567388664278 17.81906162252712  C 12.1567388664278 19.219631226856848  13.290827277116248 20.355017222892382  14.6897962288023 20.355017222892382  Z M 11.143981068709845 7.678099948451347  C 11.143981068709845 7.677592057339726  11.143981833119751 7.677084166516876  11.143983361936963 7.676576277711495  C 11.143983222148007 7.396697205756252  11.370462434245551 7.169731890977908  11.65002150428217 7.169452002580394  L 17.222519712063296 7.169452002580394  C 17.502276627149875 7.169452002580394  17.729064415990546 7.396499274287594  17.729064415990546 7.676576277711495  C 17.729064415990546 7.9566532811354  17.502276627149875 8.183700552842597  17.222519712063296 8.183700552842597  L 11.650528041614049 8.183700552842597  C 11.6500207413131 8.183702083360394  11.649513438995742 8.1837028486206  11.649006136391296 8.1837028486206  C 11.370088493228566 8.1837028486206  11.143981068709845 7.9573367196850455  11.143981068709845 7.678099948451347  Z M 11.143974187502828 10.21524060068764  C 11.143974187502828 10.21422626179785  11.14397724566147 10.213211925218586  11.14398336193696 10.212197604811188  C 11.14398336193696 9.932265000277463  11.369395748394542 9.705073329680086  11.64698223179058 9.705073353957994  L 19.758788993022684 9.705073353957994  C 20.036375476418723 9.705073353957994  20.261787887126467 9.93023653269887  20.261787887126467 10.212197604811188  C 20.261787887126467 10.492130209344914  20.036375500668882 10.719321879942289  19.758788993022684 10.719321879942289  L 11.646982231790581 10.71932187994229  C 11.369098218068892 10.719047058385502  11.143974187502828 10.493442695577764  11.143974187502828 10.21524060068764  Z M 11.14397928919025 12.74984847459141  C 11.14397928919025 12.74917196640924  11.143980646775228 12.748495458909815  11.14398336193696 12.747818956188786  C 11.14398336193696 12.467886351655057  11.369902285726422 12.240694681057686  11.649514966950292 12.240694681057686  L 15.197354019518382 12.240694681057686  C 15.476460139160215 12.240694681057686  15.702885624531715 12.46585785979856  15.702885624531715 12.747818956188786  C 15.702885624531715 13.027751560722509  15.476966700742253 13.254943231319881  15.197354019518382 13.254943207041977  L 11.649514966950289 13.254943207041977  C 11.649175910160585 13.254943891405894  11.64883685276846 13.254944233588105  11.648497795289664 13.254944233588105  C 11.369859918363543 13.254944233588105  11.14397928919025 13.028805159489496  11.14397928919025 12.74984847459141  Z M 1.519634087531584 9.705073353957994  C 0.6803633556648572 9.705073353957994  0 9.023931549705985  0 8.183700552842597  C 0 7.3434695559792065  0.6803633556648572 6.6623277517272  1.519634087531584 6.6623277517272  C 2.358904819398311 6.6623277517272  3.0392681750631687 7.3434695559792065  3.0392681750631687 8.183700552842597  C 3.0392681750631687 9.023931549705985  2.358904819398311 9.705073353957994  1.519634087531584 9.705073353957994  Z M 0.7599528181711437 8.18370054070364  C 0.7599528181711437 8.603762975916117  1.1000517761579736 8.94431189714888  1.519634132820209 8.94438694126134  C 1.9394052466918759 8.944386953400294  2.2795869299528877 8.603816045839494  2.2795869299528877 8.18370054070364  C 2.2795869299528877 7.763585035567787  1.9394052466918759 7.42301412800699  1.5197698740620154 7.42301412800699  C 1.1000517761579742 7.423089184258405  0.7599528181711437 7.763638105491166  0.7599528181711437 8.18370054070364  Z M 32.92540529130639 6.662327751727201  C 32.086134559439664 6.662327751727201  31.4057712037748 5.981185947475196  31.4057712037748 5.140954950611803  C 31.4057712037748 4.300723953748416  32.086134559439664 3.619582149496408  32.92540529130639 3.619582149496408  C 33.76467602317312 3.619582149496408  34.44503937883797 4.300723953748416  34.44503937883797 5.140954950611803  C 34.44503937883797 5.981185947475196  33.76467602317312 6.662327751727201  32.92540529130639 6.662327751727201  Z M 32.16572397665732 5.140954938472851  C 32.16572397665732 5.561017373685328  32.50582293464415 5.901566294918091  32.92540529130638 5.901641339030549  C 33.34517640517806 5.901641351169502  33.68535808843907 5.5610704436087035  33.68535808843907 5.140954938472851  C 33.68535808843907 4.720839433336997  33.34517640517806 4.380268525776199  32.92554103254819 4.380268525776199  C 32.50582293464415 4.380343582027612  32.16572397665732 4.720892503260375  32.16572397665732 5.140954938472851  Z " fill-rule="evenodd" />
    </mask>
  </defs>
  <g transform="matrix(1 0 0 1 -94 -89 )">
    <path d="M 3.799085276242666 16.546179705058126  L 3.799085276242665 17.058375221969424  L 4.31069540198902 17.058375221969428  C 4.448591737913482 17.06113685330361  4.558929895361329 17.173855631037483  4.558902307883376 17.31193735953497  C 4.558902307883376 17.45190366180184  4.449995205269076 17.56549949710052  4.31069540198902 17.56549949710052  L 3.799085276242665 17.56549949710052  L 3.799085276242665 18.07769498973391  C 3.796326801061869 18.21574910195098  3.6837368449224432 18.326213504561874  3.5458129242790415 18.32618588551927  C 3.5444616031917526 18.326207896810658  3.5431101256148483 18.326218903002527  3.54175862568103 18.326218903002527  C 3.4045008272394064 18.326218903002527  3.2930803591734716 18.215108771260414  3.292540572315418 18.07769498973391  L 3.292540572315418 17.56549949710052  L 2.7809304223189035 17.56549949710052  C 2.643034086394438 17.562737865766348  2.532695928946593 17.450019088032462  2.5327235164245456 17.31193735953497  C 2.5327235164245456 17.17197105726811  2.6416306190388466 17.05837522196942  2.7809304223189035 17.05837522196942  L 3.292540572315418 17.05837522196942  L 3.292540572315418 16.54617970505813  C 3.295299047496213 16.40812559284107  3.40788900363564 16.297661190230166  3.5458129242790415 16.29768880927277  C 3.685619264890977 16.29768880927277  3.799085276242666 16.406720519685916  3.799085276242666 16.546179705058126  Z M 37.74264535193403 15.029878145722925  L 37.231035201937516 15.029878145722927  L 37.231035201937516 14.517682653089537  C 37.23049541507946 14.380268871563048  37.11907494701353 14.269158739820922  36.981817148571906 14.269158739820922  C 36.98046564863808 14.269158739820922  36.979114171061184 14.26916974601279  36.97776284997389 14.269191757304187  C 36.8398389293305 14.269164138261578  36.72724897319107 14.379628540872478  36.72449049801026 14.517682653089537  L 36.72449049801026 15.029878145722927  L 36.21288037226392 15.029878145722927  C 36.07562363522274 15.030418550186726  35.964640486620596 15.141966501758674  35.964640486620596 15.279381345900047  C 35.964640486620596 15.280734392174228  35.964651480233954 15.282087416065455  35.964673466369554 15.283440283288478  C 35.964673466369554 15.419349577564443  36.07611330414357 15.53700242085403  36.21288037226392 15.53700242085403  L 36.72449049801026 15.53700242085403  L 36.72449049801026 16.04919793776532  C 36.72449049801026 16.188657123137542  36.83795650936195 16.297688833550676  36.97776284997389 16.297688809272778  C 37.11568676137228 16.297716428578006  37.228276713735816 16.187252040464227  37.231035201937516 16.04919793776532  L 37.231035201937516 15.53700242085403  L 37.74264535193403 15.53700242085403  C 37.88194515521409 15.53700242085403  37.99085225782839 15.423406585555338  37.990852233578224 15.283440283288478  C 37.9908798213185 15.145358564046587  37.880541678351214 15.032639790092903  37.74264535193403 15.029878145722925  Z M 20.062715829929136 24.632276143836183  L 18.82927948168632 23  L 6.077016759169164 23  C 6.0768465487772065 23.397428736466452  6.0766763383033195 23.397428822701418  6.07650612782418 23.397428822701418  C 5.797868250898061 23.397428822701418  5.571987621724768 23.171289748602806  5.571987621724768 22.892333063704715  C 5.571987621724768 22.891656803379227  5.571988978315153 22.89098054373582  5.571991691487714 22.89030428886546  C 5.571991691487714 22.61037168433173  5.801456449350802 22.38318001373436  6.077016759169165 22.383180038012263  L 8.374196951708974 22.383180038012263  C 8.19690344141251 22.075602334201804  8.103938408359413 21.726584563562113  8.104715186873792 21.37146712077911  L 8.104715186873792 6.6597921186981495  C 8.105272794166543 5.540719347771452  9.011580121806057 4.633827566574481  10.12937409017108 4.633827566574481  C 10.130556111430375 4.633827566574481  10.131738132463951 4.633828602876953  10.1329201519103 4.633830675480703  L 11.650528041614049 4.633830675480703  L 11.650528041614049 4.124170791598457  C 11.651085648906799 3.005098020671763  12.55739297654631 2.0982062394747896  13.675186944911337 2.0982062394747896  C 13.676368966170628 2.0982062394747896  13.67755098720421 2.0982072757772605  13.678733006650559 2  L 25.83175335974788 2  C 25.833272993585663 2.098205920994979  25.83479263079776 2.098204207300332  25.83631226849178 2.098204207300332  C 26.953941124441016 2.098204207300332  27.8599583247909 3.0052580416835992  27.8599583247909 4.124165650517779  L 27.85995832478439 18.835845769401516  C 27.85995832478439 19.204525117227604  27.761688651640497 19.549876748009215  27.589969998367167 19.847558686634663  L 30.392175258588427 19.847558686634663  C 30.67229447714418 19.847558686634663  30.899226499847558 20.07272186537554  30.899226499847558 20.354682961765764  C 30.899226499847558 20.63461556629949  30.67381411338998 20.861807236896862  30.392681795920307 20.861807236896862  L 24.314145445793972 20.861807236896862  L 24.314145445793972 21.37146712077911  C 24.314145445793972 21.740146468605197  24.21587577265008 22.085498099386808  24.04415711937675 22.383180038012263  L 24.315665082039764 22.383180038012263  C 24.594264664349716 22.383180038012263  24.82069014972122 22.608343216753134  24.82069014972122 22.890304288865455  C 24.82069014972122 23.170236893399174  24.591225391858128 23.397428563996552  24.315665082039764 23.397428563996552  L 21.65073345152089 23.397428563996552  C 21.882224382961656 23.78588576204877  21.83207645960087 24.29503850475846  21.495224211119115 24.632276143836183  C 21.305572932787346 24.823041814056328  21.047812009595184 24.930288613006848  20.77897002052412 24.930288613006848  C 20.51012803145306 24.930288613006848  20.2523671082609 24.823041814056328  20.062715829929136 24.632276143836183  Z M 18.987827970329526 20.68786359285259  L 20.681206884712108 22.383180038012263  L 22.292019025740647 22.383180038012263  C 22.849218190360553 22.383180038012263  23.30105606218963 21.931839446741208  23 21.366395878998915  L 23 6.635957284759024  C 23.30105606218963 6.088263075386364  22.863401453904597 5.648079201464999  22.323424801070157 6  L 10.095435831597603 6  C 9.555459178763167 5.648079201464999  9.117804570478128 6.090291567242861  9.117804570478128 6.635957284759024  L 9.117804570478128 21.366395878998915  C 9.117804570478128 21.927782438750313  9.573694789462555 22.383180038012263  10.126335069595237 22.383180038012263  L 17.81568353649995 22.383180038012263  L 17.555319564889388 22.122011025637473  C 17.298376342985105 21.866132049211867  17.19788393553724 21.49214343708126  17.29191632078723 21.141739817152683  L 16.81373814394806 20.66250738395161  C 16.201644096228623 21.118668998024418  15.458925006419193 21.365040572957668  14.695860662177406 21.365040572957668  C 12.737002777670144 21.365040572957668  11.14903470852323 19.775255604811758  11.14903470852323 17.81415646180648  C 11.14903470852323 16.875092710948458  11.520591856482763 15.974264674317116  12.182399975887629 15.30879649218945  C 12.847728662793829 14.640327094351575  13.751535708345736 14.264584223436803  14.69413467161909 14.264584223436803  C 16.652433050439114 14.264584223436803  18.239947550609507 15.853915103648013  18.239947550609507 17.814454100798695  C 18.239947550609507 18.582992567941858  17.99081713405434 19.330774707079033  17.529992334543053 19.945433679698123  L 18.00867707296426 20.424666112899196  C 18.358589287824508 20.33006973850233  18.732300651286717 20.430524008991043  18.987827970329526 20.68786359285259  Z M 24 6.6597921186981495  L 24 19.847558686634663  L 25.838338442062938 19.847558686634663  C 26.395955270210614 19.844768839356224  26.846597222375696 19.391571899719544  26.84686894118005 18.83331016065037  L 26.84686894118005 4.126706400349603  C 26.84686894118005 3.56481272370356  26.395031069350974 3.1124578743653077  25.83833844206295 3.1124578743653077  L 13.671641387003616 3.1124578743653077  C 13.114222574949823 3.115525641322241  12.66388761066865 3.5686414421615202  12.663617449468546 4.126706400349603  L 12.663617449468546 4.633830675480703  L 22.285940480757464 4.633830675480703  C 22.287460114595252 4.633827248094673  22.288979751807343 4.633825534400025  22.290499389501367 4.633825534400025  C 23.408128245450595 4.633825534400025  24.314145445800484 5.540879368783292  24.314145445800484 6.659786977617473  C 24.314145445800484 6.659788690805692  24.31414544579831 6.6597904055099315  24 6.6597921186981495  Z M 6.458444923360397 0.4551267202630342  L 6.458444923360397 1.2107418669015846  L 7.213196508931844 1.2107418669015846  C 7.425945292341337 1.2107418669015846  7.598170482946546 1.3796142448877666  7.598170482946546 1.5910850732499098  C 7.598170482946546 1.801034526650204  7.42594529234134 1.9714282795982359  7.213196508931844 1.9714282795982359  L 6.458444923360397 1.9714282795982359  L 6.458444923360397 2.7270434262367855  C 6.458444923360397 2.9400356295607786  6.289765542578661 3.1124578743653077  6.078536395414962 3.1124578743653077  C 5.868309634020984 3.111068673661904  5.6986194255361085 2.9400592798871505  5.6986194255361085 2.7295873994933615  C 5.6986194255361085 2.728739401388341  5.698622239529444 2.7278914056232626  5.698627867469526 2.7270434262367855  L 5.698627867469526 1.9714282795982352  L 4.9438762818980795 1.9714282795982359  C 4.942693390036 1.971439298181357  4.941510453373599 1.9714448075623396  4.940327510311064 1.9714448075623396  C 4.730257322004506 1.9714448075623396  4.559730149761522 1.8013939836666966  4.558902307883376 1.5910850732499098  C 4.558902307883376 1.3811356198496165  4.7311274984885845 1.2107418669015846  4.9438762818980795 1.2107418669015846  L 5.698627867469526 1.2107418669015846  L 5.698627867469526 0.4551267202630342  C 5.698627867469526 0.24213451693904192  5.867307248251262 0.06971227213451399  6.078536395414962 0.06971227213451399  C 6.288245906332864 0.06971227213451399  6.458444923360397 0.24213451693904192  6.458444923360397 0.4551267202630342  Z M 0.5065406794530254 22.89233306368014  C 0.5065406794530254 22.89165680336291  0.5065420360433771 22.890980543727547  0.5065447492158731 22.89030428886546  C 0.5065447492158731 22.61037168433173  0.7360095070789623 22.38318001373436  1.0115697926471656 22.383180038012263  L 4.053877240201926 22.383180038012263  C 4.33247682251188 22.383180038012263  4.558902307883376 22.608343216753145  4.558902307883376 22.89030428886546  C 4.558902307883376 23.17023689339918  4.329437550020288 23.397428563996552  4.053877240201926 23.397428563996552  L 1.0115697926471656 23.397428563996552  C 0.7324213086263188 23.39742882267684  0.5065406794530254 23.171289748578232  0.5065406794530254 22.89233306368014  Z M 14.6897962288023 20.355017222892382  C 15.361604811013475 20.355017222892382  16.005897862730976 20.087836953530907  16.48093826687182 19.612253024333402  C 16.955978671012662 19.13666909513589  17.2228535911768 18.49163886524493  17.2228535911768 17.81906162252712  C 17.2228535911768 16.4184920181974  16.08876518048835 15.283106022161865  14.6897962288023 15.283106022161865  C 14.017987646591122 15.283106022161865  13.373694594873625 15.550286291523333  12.898654190732783 16.025870220720844  C 12.423613786591936 16.501454149918356  12.1567388664278 17.14648437980932  12.1567388664278 17.81906162252712  C 12.1567388664278 19.219631226856848  13.290827277116248 20.355017222892382  14.6897962288023 20.355017222892382  Z M 11.143981068709845 7.678099948451347  C 11.143981068709845 7.677592057339726  11.143981833119751 7.677084166516876  11.143983361936963 7.676576277711495  C 11.143983222148007 7.396697205756252  11.370462434245551 7.169731890977908  11.65002150428217 7.169452002580394  L 17.222519712063296 7.169452002580394  C 17.502276627149875 7.169452002580394  17.729064415990546 7.396499274287594  17.729064415990546 7.676576277711495  C 17.729064415990546 7.9566532811354  17.502276627149875 8.183700552842597  17.222519712063296 8.183700552842597  L 11.650528041614049 8.183700552842597  C 11.6500207413131 8.183702083360394  11.649513438995742 8.1837028486206  11.649006136391296 8.1837028486206  C 11.370088493228566 8.1837028486206  11.143981068709845 7.9573367196850455  11.143981068709845 7.678099948451347  Z M 11.143974187502828 10.21524060068764  C 11.143974187502828 10.21422626179785  11.14397724566147 10.213211925218586  11.14398336193696 10.212197604811188  C 11.14398336193696 9.932265000277463  11.369395748394542 9.705073329680086  11.64698223179058 9.705073353957994  L 19.758788993022684 9.705073353957994  C 20.036375476418723 9.705073353957994  20.261787887126467 9.93023653269887  20.261787887126467 10.212197604811188  C 20.261787887126467 10.492130209344914  20.036375500668882 10.719321879942289  19.758788993022684 10.719321879942289  L 11.646982231790581 10.71932187994229  C 11.369098218068892 10.719047058385502  11.143974187502828 10.493442695577764  11.143974187502828 10.21524060068764  Z M 11.14397928919025 12.74984847459141  C 11.14397928919025 12.74917196640924  11.143980646775228 12.748495458909815  11.14398336193696 12.747818956188786  C 11.14398336193696 12.467886351655057  11.369902285726422 12.240694681057686  11.649514966950292 12.240694681057686  L 15.197354019518382 12.240694681057686  C 15.476460139160215 12.240694681057686  15.702885624531715 12.46585785979856  15.702885624531715 12.747818956188786  C 15.702885624531715 13.027751560722509  15.476966700742253 13.254943231319881  15.197354019518382 13.254943207041977  L 11.649514966950289 13.254943207041977  C 11.649175910160585 13.254943891405894  11.64883685276846 13.254944233588105  11.648497795289664 13.254944233588105  C 11.369859918363543 13.254944233588105  11.14397928919025 13.028805159489496  11.14397928919025 12.74984847459141  Z M 1.519634087531584 9.705073353957994  C 0.6803633556648572 9.705073353957994  0 9.023931549705985  0 8.183700552842597  C 0 7.3434695559792065  0.6803633556648572 6.6623277517272  1.519634087531584 6.6623277517272  C 2.358904819398311 6.6623277517272  3.0392681750631687 7.3434695559792065  3.0392681750631687 8.183700552842597  C 3.0392681750631687 9.023931549705985  2.358904819398311 9.705073353957994  1.519634087531584 9.705073353957994  Z M 0.7599528181711437 8.18370054070364  C 0.7599528181711437 8.603762975916117  1.1000517761579736 8.94431189714888  1.519634132820209 8.94438694126134  C 1.9394052466918759 8.944386953400294  2.2795869299528877 8.603816045839494  2.2795869299528877 8.18370054070364  C 2.2795869299528877 7.763585035567787  1.9394052466918759 7.42301412800699  1.5197698740620154 7.42301412800699  C 1.1000517761579742 7.423089184258405  0.7599528181711437 7.763638105491166  0.7599528181711437 8.18370054070364  Z M 32.92540529130639 6.662327751727201  C 32.086134559439664 6.662327751727201  31.4057712037748 5.981185947475196  31.4057712037748 5.140954950611803  C 31.4057712037748 4.300723953748416  32.086134559439664 3.619582149496408  32.92540529130639 3.619582149496408  C 33.76467602317312 3.619582149496408  34.44503937883797 4.300723953748416  34.44503937883797 5.140954950611803  C 34.44503937883797 5.981185947475196  33.76467602317312 6.662327751727201  32.92540529130639 6.662327751727201  Z M 32.16572397665732 5.140954938472851  C 32.16572397665732 5.561017373685328  32.50582293464415 5.901566294918091  32.92540529130638 5.901641339030549  C 33.34517640517806 5.901641351169502  33.68535808843907 5.5610704436087035  33.68535808843907 5.140954938472851  C 33.68535808843907 4.720839433336997  33.34517640517806 4.380268525776199  32.92554103254819 4.380268525776199  C 32.50582293464415 4.380343582027612  32.16572397665732 4.720892503260375  32.16572397665732 5.140954938472851  Z " fill-rule="nonzero" fill="rgba(198, 201, 208, 1)" stroke="none" transform="matrix(1 0 0 1 94 89 )" class="fill" />
    <path d="M 3.799085276242666 16.546179705058126  L 3.799085276242665 17.058375221969424  L 4.31069540198902 17.058375221969428  C 4.448591737913482 17.06113685330361  4.558929895361329 17.173855631037483  4.558902307883376 17.31193735953497  C 4.558902307883376 17.45190366180184  4.449995205269076 17.56549949710052  4.31069540198902 17.56549949710052  L 3.799085276242665 17.56549949710052  L 3.799085276242665 18.07769498973391  C 3.796326801061869 18.21574910195098  3.6837368449224432 18.326213504561874  3.5458129242790415 18.32618588551927  C 3.5444616031917526 18.326207896810658  3.5431101256148483 18.326218903002527  3.54175862568103 18.326218903002527  C 3.4045008272394064 18.326218903002527  3.2930803591734716 18.215108771260414  3.292540572315418 18.07769498973391  L 3.292540572315418 17.56549949710052  L 2.7809304223189035 17.56549949710052  C 2.643034086394438 17.562737865766348  2.532695928946593 17.450019088032462  2.5327235164245456 17.31193735953497  C 2.5327235164245456 17.17197105726811  2.6416306190388466 17.05837522196942  2.7809304223189035 17.05837522196942  L 3.292540572315418 17.05837522196942  L 3.292540572315418 16.54617970505813  C 3.295299047496213 16.40812559284107  3.40788900363564 16.297661190230166  3.5458129242790415 16.29768880927277  C 3.685619264890977 16.29768880927277  3.799085276242666 16.406720519685916  3.799085276242666 16.546179705058126  Z " stroke-width="0" stroke-dasharray="0" stroke="rgba(255, 255, 255, 0)" fill="none" transform="matrix(1 0 0 1 94 89 )" class="stroke" mask="url(#Clip210)" />
    <path d="M 37.74264535193403 15.029878145722925  L 37.231035201937516 15.029878145722927  L 37.231035201937516 14.517682653089537  C 37.23049541507946 14.380268871563048  37.11907494701353 14.269158739820922  36.981817148571906 14.269158739820922  C 36.98046564863808 14.269158739820922  36.979114171061184 14.26916974601279  36.97776284997389 14.269191757304187  C 36.8398389293305 14.269164138261578  36.72724897319107 14.379628540872478  36.72449049801026 14.517682653089537  L 36.72449049801026 15.029878145722927  L 36.21288037226392 15.029878145722927  C 36.07562363522274 15.030418550186726  35.964640486620596 15.141966501758674  35.964640486620596 15.279381345900047  C 35.964640486620596 15.280734392174228  35.964651480233954 15.282087416065455  35.964673466369554 15.283440283288478  C 35.964673466369554 15.419349577564443  36.07611330414357 15.53700242085403  36.21288037226392 15.53700242085403  L 36.72449049801026 15.53700242085403  L 36.72449049801026 16.04919793776532  C 36.72449049801026 16.188657123137542  36.83795650936195 16.297688833550676  36.97776284997389 16.297688809272778  C 37.11568676137228 16.297716428578006  37.228276713735816 16.187252040464227  37.231035201937516 16.04919793776532  L 37.231035201937516 15.53700242085403  L 37.74264535193403 15.53700242085403  C 37.88194515521409 15.53700242085403  37.99085225782839 15.423406585555338  37.990852233578224 15.283440283288478  C 37.9908798213185 15.145358564046587  37.880541678351214 15.032639790092903  37.74264535193403 15.029878145722925  Z " stroke-width="0" stroke-dasharray="0" stroke="rgba(255, 255, 255, 0)" fill="none" transform="matrix(1 0 0 1 94 89 )" class="stroke" mask="url(#Clip210)" />
    <path d="M 20.062715829929136 24.632276143836183  L 18.82927948168632 23  L 6.077016759169164 23  C 6.0768465487772065 23.397428736466452  6.0766763383033195 23.397428822701418  6.07650612782418 23.397428822701418  C 5.797868250898061 23.397428822701418  5.571987621724768 23.171289748602806  5.571987621724768 22.892333063704715  C 5.571987621724768 22.891656803379227  5.571988978315153 22.89098054373582  5.571991691487714 22.89030428886546  C 5.571991691487714 22.61037168433173  5.801456449350802 22.38318001373436  6.077016759169165 22.383180038012263  L 8.374196951708974 22.383180038012263  C 8.19690344141251 22.075602334201804  8.103938408359413 21.726584563562113  8.104715186873792 21.37146712077911  L 8.104715186873792 6.6597921186981495  C 8.105272794166543 5.540719347771452  9.011580121806057 4.633827566574481  10.12937409017108 4.633827566574481  C 10.130556111430375 4.633827566574481  10.131738132463951 4.633828602876953  10.1329201519103 4.633830675480703  L 11.650528041614049 4.633830675480703  L 11.650528041614049 4.124170791598457  C 11.651085648906799 3.005098020671763  12.55739297654631 2.0982062394747896  13.675186944911337 2.0982062394747896  C 13.676368966170628 2.0982062394747896  13.67755098720421 2.0982072757772605  13.678733006650559 2  L 25.83175335974788 2  C 25.833272993585663 2.098205920994979  25.83479263079776 2.098204207300332  25.83631226849178 2.098204207300332  C 26.953941124441016 2.098204207300332  27.8599583247909 3.0052580416835992  27.8599583247909 4.124165650517779  L 27.85995832478439 18.835845769401516  C 27.85995832478439 19.204525117227604  27.761688651640497 19.549876748009215  27.589969998367167 19.847558686634663  L 30.392175258588427 19.847558686634663  C 30.67229447714418 19.847558686634663  30.899226499847558 20.07272186537554  30.899226499847558 20.354682961765764  C 30.899226499847558 20.63461556629949  30.67381411338998 20.861807236896862  30.392681795920307 20.861807236896862  L 24.314145445793972 20.861807236896862  L 24.314145445793972 21.37146712077911  C 24.314145445793972 21.740146468605197  24.21587577265008 22.085498099386808  24.04415711937675 22.383180038012263  L 24.315665082039764 22.383180038012263  C 24.594264664349716 22.383180038012263  24.82069014972122 22.608343216753134  24.82069014972122 22.890304288865455  C 24.82069014972122 23.170236893399174  24.591225391858128 23.397428563996552  24.315665082039764 23.397428563996552  L 21.65073345152089 23.397428563996552  C 21.882224382961656 23.78588576204877  21.83207645960087 24.29503850475846  21.495224211119115 24.632276143836183  C 21.305572932787346 24.823041814056328  21.047812009595184 24.930288613006848  20.77897002052412 24.930288613006848  C 20.51012803145306 24.930288613006848  20.2523671082609 24.823041814056328  20.062715829929136 24.632276143836183  Z " stroke-width="0" stroke-dasharray="0" stroke="rgba(255, 255, 255, 0)" fill="none" transform="matrix(1 0 0 1 94 89 )" class="stroke" mask="url(#Clip210)" />
    <path d="M 18.987827970329526 20.68786359285259  L 20.681206884712108 22.383180038012263  L 22.292019025740647 22.383180038012263  C 22.849218190360553 22.383180038012263  23.30105606218963 21.931839446741208  23 21.366395878998915  L 23 6.635957284759024  C 23.30105606218963 6.088263075386364  22.863401453904597 5.648079201464999  22.323424801070157 6  L 10.095435831597603 6  C 9.555459178763167 5.648079201464999  9.117804570478128 6.090291567242861  9.117804570478128 6.635957284759024  L 9.117804570478128 21.366395878998915  C 9.117804570478128 21.927782438750313  9.573694789462555 22.383180038012263  10.126335069595237 22.383180038012263  L 17.81568353649995 22.383180038012263  L 17.555319564889388 22.122011025637473  C 17.298376342985105 21.866132049211867  17.19788393553724 21.49214343708126  17.29191632078723 21.141739817152683  L 16.81373814394806 20.66250738395161  C 16.201644096228623 21.118668998024418  15.458925006419193 21.365040572957668  14.695860662177406 21.365040572957668  C 12.737002777670144 21.365040572957668  11.14903470852323 19.775255604811758  11.14903470852323 17.81415646180648  C 11.14903470852323 16.875092710948458  11.520591856482763 15.974264674317116  12.182399975887629 15.30879649218945  C 12.847728662793829 14.640327094351575  13.751535708345736 14.264584223436803  14.69413467161909 14.264584223436803  C 16.652433050439114 14.264584223436803  18.239947550609507 15.853915103648013  18.239947550609507 17.814454100798695  C 18.239947550609507 18.582992567941858  17.99081713405434 19.330774707079033  17.529992334543053 19.945433679698123  L 18.00867707296426 20.424666112899196  C 18.358589287824508 20.33006973850233  18.732300651286717 20.430524008991043  18.987827970329526 20.68786359285259  Z " stroke-width="0" stroke-dasharray="0" stroke="rgba(255, 255, 255, 0)" fill="none" transform="matrix(1 0 0 1 94 89 )" class="stroke" mask="url(#Clip210)" />
    <path d="M 24 6.6597921186981495  L 24 19.847558686634663  L 25.838338442062938 19.847558686634663  C 26.395955270210614 19.844768839356224  26.846597222375696 19.391571899719544  26.84686894118005 18.83331016065037  L 26.84686894118005 4.126706400349603  C 26.84686894118005 3.56481272370356  26.395031069350974 3.1124578743653077  25.83833844206295 3.1124578743653077  L 13.671641387003616 3.1124578743653077  C 13.114222574949823 3.115525641322241  12.66388761066865 3.5686414421615202  12.663617449468546 4.126706400349603  L 12.663617449468546 4.633830675480703  L 22.285940480757464 4.633830675480703  C 22.287460114595252 4.633827248094673  22.288979751807343 4.633825534400025  22.290499389501367 4.633825534400025  C 23.408128245450595 4.633825534400025  24.314145445800484 5.540879368783292  24.314145445800484 6.659786977617473  C 24.314145445800484 6.659788690805692  24.31414544579831 6.6597904055099315  24 6.6597921186981495  Z " stroke-width="0" stroke-dasharray="0" stroke="rgba(255, 255, 255, 0)" fill="none" transform="matrix(1 0 0 1 94 89 )" class="stroke" mask="url(#Clip210)" />
    <path d="M 6.458444923360397 0.4551267202630342  L 6.458444923360397 1.2107418669015846  L 7.213196508931844 1.2107418669015846  C 7.425945292341337 1.2107418669015846  7.598170482946546 1.3796142448877666  7.598170482946546 1.5910850732499098  C 7.598170482946546 1.801034526650204  7.42594529234134 1.9714282795982359  7.213196508931844 1.9714282795982359  L 6.458444923360397 1.9714282795982359  L 6.458444923360397 2.7270434262367855  C 6.458444923360397 2.9400356295607786  6.289765542578661 3.1124578743653077  6.078536395414962 3.1124578743653077  C 5.868309634020984 3.111068673661904  5.6986194255361085 2.9400592798871505  5.6986194255361085 2.7295873994933615  C 5.6986194255361085 2.728739401388341  5.698622239529444 2.7278914056232626  5.698627867469526 2.7270434262367855  L 5.698627867469526 1.9714282795982352  L 4.9438762818980795 1.9714282795982359  C 4.942693390036 1.971439298181357  4.941510453373599 1.9714448075623396  4.940327510311064 1.9714448075623396  C 4.730257322004506 1.9714448075623396  4.559730149761522 1.8013939836666966  4.558902307883376 1.5910850732499098  C 4.558902307883376 1.3811356198496165  4.7311274984885845 1.2107418669015846  4.9438762818980795 1.2107418669015846  L 5.698627867469526 1.2107418669015846  L 5.698627867469526 0.4551267202630342  C 5.698627867469526 0.24213451693904192  5.867307248251262 0.06971227213451399  6.078536395414962 0.06971227213451399  C 6.288245906332864 0.06971227213451399  6.458444923360397 0.24213451693904192  6.458444923360397 0.4551267202630342  Z " stroke-width="0" stroke-dasharray="0" stroke="rgba(255, 255, 255, 0)" fill="none" transform="matrix(1 0 0 1 94 89 )" class="stroke" mask="url(#Clip210)" />
    <path d="M 0.5065406794530254 22.89233306368014  C 0.5065406794530254 22.89165680336291  0.5065420360433771 22.890980543727547  0.5065447492158731 22.89030428886546  C 0.5065447492158731 22.61037168433173  0.7360095070789623 22.38318001373436  1.0115697926471656 22.383180038012263  L 4.053877240201926 22.383180038012263  C 4.33247682251188 22.383180038012263  4.558902307883376 22.608343216753145  4.558902307883376 22.89030428886546  C 4.558902307883376 23.17023689339918  4.329437550020288 23.397428563996552  4.053877240201926 23.397428563996552  L 1.0115697926471656 23.397428563996552  C 0.7324213086263188 23.39742882267684  0.5065406794530254 23.171289748578232  0.5065406794530254 22.89233306368014  Z " stroke-width="0" stroke-dasharray="0" stroke="rgba(255, 255, 255, 0)" fill="none" transform="matrix(1 0 0 1 94 89 )" class="stroke" mask="url(#Clip210)" />
    <path d="M 14.6897962288023 20.355017222892382  C 15.361604811013475 20.355017222892382  16.005897862730976 20.087836953530907  16.48093826687182 19.612253024333402  C 16.955978671012662 19.13666909513589  17.2228535911768 18.49163886524493  17.2228535911768 17.81906162252712  C 17.2228535911768 16.4184920181974  16.08876518048835 15.283106022161865  14.6897962288023 15.283106022161865  C 14.017987646591122 15.283106022161865  13.373694594873625 15.550286291523333  12.898654190732783 16.025870220720844  C 12.423613786591936 16.501454149918356  12.1567388664278 17.14648437980932  12.1567388664278 17.81906162252712  C 12.1567388664278 19.219631226856848  13.290827277116248 20.355017222892382  14.6897962288023 20.355017222892382  Z " stroke-width="0" stroke-dasharray="0" stroke="rgba(255, 255, 255, 0)" fill="none" transform="matrix(1 0 0 1 94 89 )" class="stroke" mask="url(#Clip210)" />
    <path d="M 11.143981068709845 7.678099948451347  C 11.143981068709845 7.677592057339726  11.143981833119751 7.677084166516876  11.143983361936963 7.676576277711495  C 11.143983222148007 7.396697205756252  11.370462434245551 7.169731890977908  11.65002150428217 7.169452002580394  L 17.222519712063296 7.169452002580394  C 17.502276627149875 7.169452002580394  17.729064415990546 7.396499274287594  17.729064415990546 7.676576277711495  C 17.729064415990546 7.9566532811354  17.502276627149875 8.183700552842597  17.222519712063296 8.183700552842597  L 11.650528041614049 8.183700552842597  C 11.6500207413131 8.183702083360394  11.649513438995742 8.1837028486206  11.649006136391296 8.1837028486206  C 11.370088493228566 8.1837028486206  11.143981068709845 7.9573367196850455  11.143981068709845 7.678099948451347  Z " stroke-width="0" stroke-dasharray="0" stroke="rgba(255, 255, 255, 0)" fill="none" transform="matrix(1 0 0 1 94 89 )" class="stroke" mask="url(#Clip210)" />
    <path d="M 11.143974187502828 10.21524060068764  C 11.143974187502828 10.21422626179785  11.14397724566147 10.213211925218586  11.14398336193696 10.212197604811188  C 11.14398336193696 9.932265000277463  11.369395748394542 9.705073329680086  11.64698223179058 9.705073353957994  L 19.758788993022684 9.705073353957994  C 20.036375476418723 9.705073353957994  20.261787887126467 9.93023653269887  20.261787887126467 10.212197604811188  C 20.261787887126467 10.492130209344914  20.036375500668882 10.719321879942289  19.758788993022684 10.719321879942289  L 11.646982231790581 10.71932187994229  C 11.369098218068892 10.719047058385502  11.143974187502828 10.493442695577764  11.143974187502828 10.21524060068764  Z " stroke-width="0" stroke-dasharray="0" stroke="rgba(255, 255, 255, 0)" fill="none" transform="matrix(1 0 0 1 94 89 )" class="stroke" mask="url(#Clip210)" />
    <path d="M 11.14397928919025 12.74984847459141  C 11.14397928919025 12.74917196640924  11.143980646775228 12.748495458909815  11.14398336193696 12.747818956188786  C 11.14398336193696 12.467886351655057  11.369902285726422 12.240694681057686  11.649514966950292 12.240694681057686  L 15.197354019518382 12.240694681057686  C 15.476460139160215 12.240694681057686  15.702885624531715 12.46585785979856  15.702885624531715 12.747818956188786  C 15.702885624531715 13.027751560722509  15.476966700742253 13.254943231319881  15.197354019518382 13.254943207041977  L 11.649514966950289 13.254943207041977  C 11.649175910160585 13.254943891405894  11.64883685276846 13.254944233588105  11.648497795289664 13.254944233588105  C 11.369859918363543 13.254944233588105  11.14397928919025 13.028805159489496  11.14397928919025 12.74984847459141  Z " stroke-width="0" stroke-dasharray="0" stroke="rgba(255, 255, 255, 0)" fill="none" transform="matrix(1 0 0 1 94 89 )" class="stroke" mask="url(#Clip210)" />
    <path d="M 1.519634087531584 9.705073353957994  C 0.6803633556648572 9.705073353957994  0 9.023931549705985  0 8.183700552842597  C 0 7.3434695559792065  0.6803633556648572 6.6623277517272  1.519634087531584 6.6623277517272  C 2.358904819398311 6.6623277517272  3.0392681750631687 7.3434695559792065  3.0392681750631687 8.183700552842597  C 3.0392681750631687 9.023931549705985  2.358904819398311 9.705073353957994  1.519634087531584 9.705073353957994  Z " stroke-width="0" stroke-dasharray="0" stroke="rgba(255, 255, 255, 0)" fill="none" transform="matrix(1 0 0 1 94 89 )" class="stroke" mask="url(#Clip210)" />
    <path d="M 0.7599528181711437 8.18370054070364  C 0.7599528181711437 8.603762975916117  1.1000517761579736 8.94431189714888  1.519634132820209 8.94438694126134  C 1.9394052466918759 8.944386953400294  2.2795869299528877 8.603816045839494  2.2795869299528877 8.18370054070364  C 2.2795869299528877 7.763585035567787  1.9394052466918759 7.42301412800699  1.5197698740620154 7.42301412800699  C 1.1000517761579742 7.423089184258405  0.7599528181711437 7.763638105491166  0.7599528181711437 8.18370054070364  Z " stroke-width="0" stroke-dasharray="0" stroke="rgba(255, 255, 255, 0)" fill="none" transform="matrix(1 0 0 1 94 89 )" class="stroke" mask="url(#Clip210)" />
    <path d="M 32.92540529130639 6.662327751727201  C 32.086134559439664 6.662327751727201  31.4057712037748 5.981185947475196  31.4057712037748 5.140954950611803  C 31.4057712037748 4.300723953748416  32.086134559439664 3.619582149496408  32.92540529130639 3.619582149496408  C 33.76467602317312 3.619582149496408  34.44503937883797 4.300723953748416  34.44503937883797 5.140954950611803  C 34.44503937883797 5.981185947475196  33.76467602317312 6.662327751727201  32.92540529130639 6.662327751727201  Z " stroke-width="0" stroke-dasharray="0" stroke="rgba(255, 255, 255, 0)" fill="none" transform="matrix(1 0 0 1 94 89 )" class="stroke" mask="url(#Clip210)" />
    <path d="M 32.16572397665732 5.140954938472851  C 32.16572397665732 5.561017373685328  32.50582293464415 5.901566294918091  32.92540529130638 5.901641339030549  C 33.34517640517806 5.901641351169502  33.68535808843907 5.5610704436087035  33.68535808843907 5.140954938472851  C 33.68535808843907 4.720839433336997  33.34517640517806 4.380268525776199  32.92554103254819 4.380268525776199  C 32.50582293464415 4.380343582027612  32.16572397665732 4.720892503260375  32.16572397665732 5.140954938472851  Z " stroke-width="0" stroke-dasharray="0" stroke="rgba(255, 255, 255, 0)" fill="none" transform="matrix(1 0 0 1 94 89 )" class="stroke" mask="url(#Clip210)" />
  </g>
</svg>