<?xml version="1.0" encoding="utf-8"?>
<svg version="1.1" xmlns:xlink="http://www.w3.org/1999/xlink" width="13px" height="13px" xmlns="http://www.w3.org/2000/svg">
  <defs>
    <pattern id="BGPattern" patternUnits="userSpaceOnUse" alignment="0 0" imageRepeat="None" />
    <mask fill="white" id="Clip197">
      <path d="M 12.064327863729508 0.1939016331967212  L 6.5 5.758229510245902  L 0.935672136270492 0.19390163319672143  C 0.7303446611580462 -0.009738447668445904  0.39922910830916697 -0.009738447668445999  0.19390163319672132 0.19390163319672132  C 0.09516891553277282 0.29207088221197913  0.03965383914759211 0.42555559877556975  0.03965383914759211 0.5647868847336068  C 0.03965383914759211 0.704018170691644  0.09516891553277262 0.8375028872552344  0.1939016331967212 0.935672136270492  L 5.758229510245902 6.5  L 0.19390163319672143 12.06432786372951  C -0.009738447668445525 12.269655338841954  -0.009738447668445525 12.600770891690834  0.19390163319672132 12.80609836680328  C 0.2920708822119788 12.904831084467228  0.4255555987755699 12.96034616085241  0.5647868847336068 12.96034616085241  C 0.7040181706916444 12.96034616085241  0.8375028872552339 12.90483108446723  0.935672136270492 12.806098366803278  L 6.5 7.241770489754099  L 12.064327863729508 12.806098366803278  C 12.266295077868852 13.008065580942624  12.600983607581968 13.010688530737706  12.80609836680328 12.80609836680328  C 12.904831084467228 12.707929117788025  12.96034616085241 12.574444401224433  12.96034616085241 12.435213115266396  C 12.96034616085241 12.295981829308358  12.90483108446723 12.162497112744767  12.806098366803278 12.064327863729508  L 7.241770489754099 6.5  L 12.80609836680328 0.935672136270492  C 13.009738447668449 0.7303446611580462  13.009738447668449 0.3992291083091669  12.80609836680328 0.19390163319672132  C 12.707929117788025 0.09516891553277262  12.574444401224433 0.03965383914759211  12.435213115266396 0.03965383914759211  C 12.295981829308358 0.03965383914759211  12.162497112744767 0.09516891553277262  12.064327863729508 0.1939016331967212  Z " fill-rule="evenodd" />
    </mask>
  </defs>
  <g transform="matrix(1 0 0 1 -923 -1092 )">
    <path d="M 12.064327863729508 0.1939016331967212  L 6.5 5.758229510245902  L 0.935672136270492 0.19390163319672143  C 0.7303446611580462 -0.009738447668445904  0.39922910830916697 -0.009738447668445999  0.19390163319672132 0.19390163319672132  C 0.09516891553277282 0.29207088221197913  0.03965383914759211 0.42555559877556975  0.03965383914759211 0.5647868847336068  C 0.03965383914759211 0.704018170691644  0.09516891553277262 0.8375028872552344  0.1939016331967212 0.935672136270492  L 5.758229510245902 6.5  L 0.19390163319672143 12.06432786372951  C -0.009738447668445525 12.269655338841954  -0.009738447668445525 12.600770891690834  0.19390163319672132 12.80609836680328  C 0.2920708822119788 12.904831084467228  0.4255555987755699 12.96034616085241  0.5647868847336068 12.96034616085241  C 0.7040181706916444 12.96034616085241  0.8375028872552339 12.90483108446723  0.935672136270492 12.806098366803278  L 6.5 7.241770489754099  L 12.064327863729508 12.806098366803278  C 12.266295077868852 13.008065580942624  12.600983607581968 13.010688530737706  12.80609836680328 12.80609836680328  C 12.904831084467228 12.707929117788025  12.96034616085241 12.574444401224433  12.96034616085241 12.435213115266396  C 12.96034616085241 12.295981829308358  12.90483108446723 12.162497112744767  12.806098366803278 12.064327863729508  L 7.241770489754099 6.5  L 12.80609836680328 0.935672136270492  C 13.009738447668449 0.7303446611580462  13.009738447668449 0.3992291083091669  12.80609836680328 0.19390163319672132  C 12.707929117788025 0.09516891553277262  12.574444401224433 0.03965383914759211  12.435213115266396 0.03965383914759211  C 12.295981829308358 0.03965383914759211  12.162497112744767 0.09516891553277262  12.064327863729508 0.1939016331967212  Z " fill-rule="nonzero" fill="rgba(0, 0, 0, 1)" stroke="none" transform="matrix(1 0 0 1 923 1092 )" class="fill" />
    <path d="M 12.064327863729508 0.1939016331967212  L 6.5 5.758229510245902  L 0.935672136270492 0.19390163319672143  C 0.7303446611580462 -0.009738447668445904  0.39922910830916697 -0.009738447668445999  0.19390163319672132 0.19390163319672132  C 0.09516891553277282 0.29207088221197913  0.03965383914759211 0.42555559877556975  0.03965383914759211 0.5647868847336068  C 0.03965383914759211 0.704018170691644  0.09516891553277262 0.8375028872552344  0.1939016331967212 0.935672136270492  L 5.758229510245902 6.5  L 0.19390163319672143 12.06432786372951  C -0.009738447668445525 12.269655338841954  -0.009738447668445525 12.600770891690834  0.19390163319672132 12.80609836680328  C 0.2920708822119788 12.904831084467228  0.4255555987755699 12.96034616085241  0.5647868847336068 12.96034616085241  C 0.7040181706916444 12.96034616085241  0.8375028872552339 12.90483108446723  0.935672136270492 12.806098366803278  L 6.5 7.241770489754099  L 12.064327863729508 12.806098366803278  C 12.266295077868852 13.008065580942624  12.600983607581968 13.010688530737706  12.80609836680328 12.80609836680328  C 12.904831084467228 12.707929117788025  12.96034616085241 12.574444401224433  12.96034616085241 12.435213115266396  C 12.96034616085241 12.295981829308358  12.90483108446723 12.162497112744767  12.806098366803278 12.064327863729508  L 7.241770489754099 6.5  L 12.80609836680328 0.935672136270492  C 13.009738447668449 0.7303446611580462  13.009738447668449 0.3992291083091669  12.80609836680328 0.19390163319672132  C 12.707929117788025 0.09516891553277262  12.574444401224433 0.03965383914759211  12.435213115266396 0.03965383914759211  C 12.295981829308358 0.03965383914759211  12.162497112744767 0.09516891553277262  12.064327863729508 0.1939016331967212  Z " stroke-width="0" stroke-dasharray="0" stroke="rgba(255, 255, 255, 0)" fill="none" transform="matrix(1 0 0 1 923 1092 )" class="stroke" mask="url(#Clip197)" />
  </g>
</svg>