<?xml version="1.0" encoding="utf-8"?>
<svg version="1.1" xmlns:xlink="http://www.w3.org/1999/xlink" width="12px" height="18px" xmlns="http://www.w3.org/2000/svg">
  <defs>
    <pattern id="BGPattern" patternUnits="userSpaceOnUse" alignment="0 0" imageRepeat="None" />
    <mask fill="white" id="Clip203">
      <path d="M 11.526041666666666 3.5407366071428577  C 11.842013888888891 4.25390625  12 5.002232142857142  12 5.785714285714285  C 12 7.265624999999998  11.487847222222223 8.553013392857142  10.463541666666668 9.647879464285715  C 9.43923611111111 10.742745535714285  8.17361111111111 11.370535714285715  6.666666666666667 11.53125  L 6.666666666666667 17.678571428571427  C 6.666666666666667 17.772321428571427  6.635416666666666 17.849330357142858  6.572916666666667 17.909598214285715  C 6.510416666666666 17.969866071428573  6.430555555555555 18  6.333333333333334 18  L 5.666666666666666 18  C 5.5694444444444455 18  5.489583333333334 17.969866071428573  5.427083333333333 17.909598214285715  C 5.364583333333333 17.849330357142858  5.333333333333333 17.772321428571427  5.333333333333333 17.678571428571427  L 5.333333333333333 11.53125  C 3.8263888888888893 11.370535714285715  2.5607638888888893 10.742745535714285  1.5364583333333335 9.647879464285715  C 0.5121527777777778 8.553013392857142  0 7.265624999999998  0 5.785714285714285  C 0 5.002232142857142  0.1579861111111111 4.25390625  0.4739583333333333 3.5407366071428577  C 0.7899305555555557 2.827566964285715  1.217013888888889 2.2114955357142847  1.7552083333333333 1.6925223214285723  C 2.293402777777778 1.173549107142856  2.932291666666667 0.7617187499999987  3.671875 0.45703125  C 4.411458333333334 0.15234375000000133  5.187500000000001 0  6 0  C 6.8125 0  7.588541666666666 0.15234375000000133  8.328125 0.45703125  C 9.067708333333334 0.7617187499999987  9.706597222222223 1.173549107142856  10.244791666666666 1.6925223214285723  C 10.782986111111112 2.2114955357142847  11.210069444444445 2.827566964285715  11.526041666666666 3.5407366071428577  Z M 2.703125 8.96484375  C 3.6163194444444446 9.845424107142858  4.715277777777778 10.285714285714285  6 10.285714285714285  C 7.284722222222223 10.285714285714285  8.383680555555555 9.845424107142858  9.296875 8.96484375  C 10.210069444444446 8.08426339285714  10.666666666666666 7.024553571428571  10.666666666666666 5.785714285714285  C 10.666666666666666 4.546874999999999  10.210069444444446 3.487165178571427  9.296875 2.606584821428572  C 8.383680555555555 1.7260044642857135  7.284722222222223 1.2857142857142851  6 1.2857142857142851  C 4.715277777777778 1.2857142857142851  3.6163194444444446 1.7260044642857135  2.703125 2.606584821428572  C 1.7899305555555558 3.487165178571427  1.3333333333333333 4.546874999999999  1.3333333333333333 5.785714285714285  C 1.3333333333333333 7.024553571428571  1.7899305555555558 8.08426339285714  2.703125 8.96484375  Z " fill-rule="evenodd" />
    </mask>
  </defs>
  <g transform="matrix(1 0 0 1 -1118 -2077 )">
    <path d="M 11.526041666666666 3.5407366071428577  C 11.842013888888891 4.25390625  12 5.002232142857142  12 5.785714285714285  C 12 7.265624999999998  11.487847222222223 8.553013392857142  10.463541666666668 9.647879464285715  C 9.43923611111111 10.742745535714285  8.17361111111111 11.370535714285715  6.666666666666667 11.53125  L 6.666666666666667 17.678571428571427  C 6.666666666666667 17.772321428571427  6.635416666666666 17.849330357142858  6.572916666666667 17.909598214285715  C 6.510416666666666 17.969866071428573  6.430555555555555 18  6.333333333333334 18  L 5.666666666666666 18  C 5.5694444444444455 18  5.489583333333334 17.969866071428573  5.427083333333333 17.909598214285715  C 5.364583333333333 17.849330357142858  5.333333333333333 17.772321428571427  5.333333333333333 17.678571428571427  L 5.333333333333333 11.53125  C 3.8263888888888893 11.370535714285715  2.5607638888888893 10.742745535714285  1.5364583333333335 9.647879464285715  C 0.5121527777777778 8.553013392857142  0 7.265624999999998  0 5.785714285714285  C 0 5.002232142857142  0.1579861111111111 4.25390625  0.4739583333333333 3.5407366071428577  C 0.7899305555555557 2.827566964285715  1.217013888888889 2.2114955357142847  1.7552083333333333 1.6925223214285723  C 2.293402777777778 1.173549107142856  2.932291666666667 0.7617187499999987  3.671875 0.45703125  C 4.411458333333334 0.15234375000000133  5.187500000000001 0  6 0  C 6.8125 0  7.588541666666666 0.15234375000000133  8.328125 0.45703125  C 9.067708333333334 0.7617187499999987  9.706597222222223 1.173549107142856  10.244791666666666 1.6925223214285723  C 10.782986111111112 2.2114955357142847  11.210069444444445 2.827566964285715  11.526041666666666 3.5407366071428577  Z M 2.703125 8.96484375  C 3.6163194444444446 9.845424107142858  4.715277777777778 10.285714285714285  6 10.285714285714285  C 7.284722222222223 10.285714285714285  8.383680555555555 9.845424107142858  9.296875 8.96484375  C 10.210069444444446 8.08426339285714  10.666666666666666 7.024553571428571  10.666666666666666 5.785714285714285  C 10.666666666666666 4.546874999999999  10.210069444444446 3.487165178571427  9.296875 2.606584821428572  C 8.383680555555555 1.7260044642857135  7.284722222222223 1.2857142857142851  6 1.2857142857142851  C 4.715277777777778 1.2857142857142851  3.6163194444444446 1.7260044642857135  2.703125 2.606584821428572  C 1.7899305555555558 3.487165178571427  1.3333333333333333 4.546874999999999  1.3333333333333333 5.785714285714285  C 1.3333333333333333 7.024553571428571  1.7899305555555558 8.08426339285714  2.703125 8.96484375  Z " fill-rule="nonzero" fill="rgba(198, 201, 208, 1)" stroke="none" transform="matrix(1 0 0 1 1118 2077 )" class="fill" />
    <path d="M 11.526041666666666 3.5407366071428577  C 11.842013888888891 4.25390625  12 5.002232142857142  12 5.785714285714285  C 12 7.265624999999998  11.487847222222223 8.553013392857142  10.463541666666668 9.647879464285715  C 9.43923611111111 10.742745535714285  8.17361111111111 11.370535714285715  6.666666666666667 11.53125  L 6.666666666666667 17.678571428571427  C 6.666666666666667 17.772321428571427  6.635416666666666 17.849330357142858  6.572916666666667 17.909598214285715  C 6.510416666666666 17.969866071428573  6.430555555555555 18  6.333333333333334 18  L 5.666666666666666 18  C 5.5694444444444455 18  5.489583333333334 17.969866071428573  5.427083333333333 17.909598214285715  C 5.364583333333333 17.849330357142858  5.333333333333333 17.772321428571427  5.333333333333333 17.678571428571427  L 5.333333333333333 11.53125  C 3.8263888888888893 11.370535714285715  2.5607638888888893 10.742745535714285  1.5364583333333335 9.647879464285715  C 0.5121527777777778 8.553013392857142  0 7.265624999999998  0 5.785714285714285  C 0 5.002232142857142  0.1579861111111111 4.25390625  0.4739583333333333 3.5407366071428577  C 0.7899305555555557 2.827566964285715  1.217013888888889 2.2114955357142847  1.7552083333333333 1.6925223214285723  C 2.293402777777778 1.173549107142856  2.932291666666667 0.7617187499999987  3.671875 0.45703125  C 4.411458333333334 0.15234375000000133  5.187500000000001 0  6 0  C 6.8125 0  7.588541666666666 0.15234375000000133  8.328125 0.45703125  C 9.067708333333334 0.7617187499999987  9.706597222222223 1.173549107142856  10.244791666666666 1.6925223214285723  C 10.782986111111112 2.2114955357142847  11.210069444444445 2.827566964285715  11.526041666666666 3.5407366071428577  Z " stroke-width="0" stroke-dasharray="0" stroke="rgba(255, 255, 255, 0)" fill="none" transform="matrix(1 0 0 1 1118 2077 )" class="stroke" mask="url(#Clip203)" />
    <path d="M 2.703125 8.96484375  C 3.6163194444444446 9.845424107142858  4.715277777777778 10.285714285714285  6 10.285714285714285  C 7.284722222222223 10.285714285714285  8.383680555555555 9.845424107142858  9.296875 8.96484375  C 10.210069444444446 8.08426339285714  10.666666666666666 7.024553571428571  10.666666666666666 5.785714285714285  C 10.666666666666666 4.546874999999999  10.210069444444446 3.487165178571427  9.296875 2.606584821428572  C 8.383680555555555 1.7260044642857135  7.284722222222223 1.2857142857142851  6 1.2857142857142851  C 4.715277777777778 1.2857142857142851  3.6163194444444446 1.7260044642857135  2.703125 2.606584821428572  C 1.7899305555555558 3.487165178571427  1.3333333333333333 4.546874999999999  1.3333333333333333 5.785714285714285  C 1.3333333333333333 7.024553571428571  1.7899305555555558 8.08426339285714  2.703125 8.96484375  Z " stroke-width="0" stroke-dasharray="0" stroke="rgba(255, 255, 255, 0)" fill="none" transform="matrix(1 0 0 1 1118 2077 )" class="stroke" mask="url(#Clip203)" />
  </g>
</svg>