<?xml version="1.0" encoding="utf-8"?>
<svg version="1.1" xmlns:xlink="http://www.w3.org/1999/xlink" width="5px" height="8px" xmlns="http://www.w3.org/2000/svg">
  <defs>
    <pattern id="BGPattern" patternUnits="userSpaceOnUse" alignment="0 0" imageRepeat="None" />
    <mask fill="white" id="Clip204">
      <path d="M 0.7469999999999999 7.87702429906542  C 0.5169999999999997 7.667439252336448  0.2729999999999999 7.471252336448598  0.06400000000000017 7.29516261682243  C 1.1420000000000003 6.248194392523365  2.2060000000000004 5.20792523364486  3.2800000000000007 4.1772261682242995  C 3.415 4.047072897196262  3.437000000000001 3.9819962616822435  3.288000000000001 3.841315887850467  C 2.258000000000001 2.867080373831776  1.241000000000001 1.8813607476635517  0.21500000000000075 0.905211214953271  C 0.10500000000000065 0.7999401869158876  0.07100000000000051 0.7406056074766355  0.20700000000000052 0.6286355140186914  C 0.3980000000000006 0.47168598130841105  0.5690000000000006 0.2917682242990652  0.7420000000000004 0.11663551401869149  C 0.8140000000000003 0.0439028037383177  0.8570000000000005 0.022848598130840996  0.9460000000000002 0.10802242990654198  C 2.2650000000000006 1.3779738317757009  3.588 2.6431401869158875  4.912999999999999 3.906392523364486  C 4.992999999999999 3.982953271028037  4.997999999999999 4.025061682242991  4.914999999999999 4.104493457943924  C 3.599170721097548 5.356098309611206  2.285835002821334 6.6101018329161185  0.9749999999999998 7.866497196261682  C 0.8909999999999996 7.9468859813084105  0.8429999999999999 7.96411214953271  0.7469999999999999 7.87702429906542  Z " fill-rule="evenodd" />
    </mask>
  </defs>
  <g transform="matrix(1 0 0 1 -1357 -2133 )">
    <path d="M 0.7469999999999999 7.87702429906542  C 0.5169999999999997 7.667439252336448  0.2729999999999999 7.471252336448598  0.06400000000000017 7.29516261682243  C 1.1420000000000003 6.248194392523365  2.2060000000000004 5.20792523364486  3.2800000000000007 4.1772261682242995  C 3.415 4.047072897196262  3.437000000000001 3.9819962616822435  3.288000000000001 3.841315887850467  C 2.258000000000001 2.867080373831776  1.241000000000001 1.8813607476635517  0.21500000000000075 0.905211214953271  C 0.10500000000000065 0.7999401869158876  0.07100000000000051 0.7406056074766355  0.20700000000000052 0.6286355140186914  C 0.3980000000000006 0.47168598130841105  0.5690000000000006 0.2917682242990652  0.7420000000000004 0.11663551401869149  C 0.8140000000000003 0.0439028037383177  0.8570000000000005 0.022848598130840996  0.9460000000000002 0.10802242990654198  C 2.2650000000000006 1.3779738317757009  3.588 2.6431401869158875  4.912999999999999 3.906392523364486  C 4.992999999999999 3.982953271028037  4.997999999999999 4.025061682242991  4.914999999999999 4.104493457943924  C 3.599170721097548 5.356098309611206  2.285835002821334 6.6101018329161185  0.9749999999999998 7.866497196261682  C 0.8909999999999996 7.9468859813084105  0.8429999999999999 7.96411214953271  0.7469999999999999 7.87702429906542  Z " fill-rule="nonzero" fill="rgba(152, 157, 170, 1)" stroke="none" transform="matrix(1 0 0 1 1357 2133 )" class="fill" />
    <path d="M 0.7469999999999999 7.87702429906542  C 0.5169999999999997 7.667439252336448  0.2729999999999999 7.471252336448598  0.06400000000000017 7.29516261682243  C 1.1420000000000003 6.248194392523365  2.2060000000000004 5.20792523364486  3.2800000000000007 4.1772261682242995  C 3.415 4.047072897196262  3.437000000000001 3.9819962616822435  3.288000000000001 3.841315887850467  C 2.258000000000001 2.867080373831776  1.241000000000001 1.8813607476635517  0.21500000000000075 0.905211214953271  C 0.10500000000000065 0.7999401869158876  0.07100000000000051 0.7406056074766355  0.20700000000000052 0.6286355140186914  C 0.3980000000000006 0.47168598130841105  0.5690000000000006 0.2917682242990652  0.7420000000000004 0.11663551401869149  C 0.8140000000000003 0.0439028037383177  0.8570000000000005 0.022848598130840996  0.9460000000000002 0.10802242990654198  C 2.2650000000000006 1.3779738317757009  3.588 2.6431401869158875  4.912999999999999 3.906392523364486  C 4.992999999999999 3.982953271028037  4.997999999999999 4.025061682242991  4.914999999999999 4.104493457943924  C 3.599170721097548 5.356098309611206  2.285835002821334 6.6101018329161185  0.9749999999999998 7.866497196261682  C 0.8909999999999996 7.9468859813084105  0.8429999999999999 7.96411214953271  0.7469999999999999 7.87702429906542  Z " stroke-width="0" stroke-dasharray="0" stroke="rgba(255, 255, 255, 0)" fill="none" transform="matrix(1 0 0 1 1357 2133 )" class="stroke" mask="url(#Clip204)" />
  </g>
</svg>