<?xml version="1.0" encoding="utf-8"?>
<svg version="1.1" xmlns:xlink="http://www.w3.org/1999/xlink" width="13px" height="13px" xmlns="http://www.w3.org/2000/svg">
  <defs>
    <pattern id="BGPattern" patternUnits="userSpaceOnUse" alignment="0 0" imageRepeat="None" />
    <mask fill="white" id="Clip205">
      <path d="M 2.1666666666666665 7  L 2.1666666666666665 9  L 1.0833333333333333 9  L 1.0833333333333333 6  L 5.958333333333333 6  L 5.958333333333333 4  L 7.041666666666666 4  L 7.041666666666666 6  L 11.916666666666666 6  L 11.916666666666666 9  L 10.833333333333334 9  L 10.833333333333334 7  L 7.041666666666666 7  L 7.041666666666666 9  L 5.958333333333333 9  L 5.958333333333333 7  L 2.1666666666666665 7  Z M 4.875 1.5  C 4.875 2.325  5.606249999999999 3  6.5 3  C 7.39375 3  8.125 2.325  8.125 1.5  C 8.125 0.6749999999999998  7.39375 0  6.5 0  C 5.606250000000001 0  4.875 0.675  4.875 1.5  Z M 8.125 11.5  C 8.125 10.675  7.39375 10  6.5 10  C 5.606249999999999 10  4.875 10.675  4.875 11.5  C 4.875 12.325  5.606249999999999 13  6.5 13  C 7.39375 13  8.125 12.325  8.125 11.5  Z M 3.25 11.5  C 3.25 10.675  2.5187500000000003 10  1.625 10  C 0.7312499999999998 10  0 10.675  0 11.5  C 0 12.325  0.7312499999999998 13  1.625 13  C 2.5187500000000003 13  3.25 12.325  3.25 11.5  Z M 13 11.5  C 13 10.675  12.268749999999999 10  11.375 10  C 10.481250000000001 10  9.75 10.675  9.75 11.5  C 9.75 12.325  10.481250000000001 13  11.375 13  C 12.268749999999999 13  13 12.325  13 11.5  Z " fill-rule="evenodd" />
    </mask>
  </defs>
  <g transform="matrix(1 0 0 1 -1125 -2129 )">
    <path d="M 2.1666666666666665 7  L 2.1666666666666665 9  L 1.0833333333333333 9  L 1.0833333333333333 6  L 5.958333333333333 6  L 5.958333333333333 4  L 7.041666666666666 4  L 7.041666666666666 6  L 11.916666666666666 6  L 11.916666666666666 9  L 10.833333333333334 9  L 10.833333333333334 7  L 7.041666666666666 7  L 7.041666666666666 9  L 5.958333333333333 9  L 5.958333333333333 7  L 2.1666666666666665 7  Z M 4.875 1.5  C 4.875 2.325  5.606249999999999 3  6.5 3  C 7.39375 3  8.125 2.325  8.125 1.5  C 8.125 0.6749999999999998  7.39375 0  6.5 0  C 5.606250000000001 0  4.875 0.675  4.875 1.5  Z M 8.125 11.5  C 8.125 10.675  7.39375 10  6.5 10  C 5.606249999999999 10  4.875 10.675  4.875 11.5  C 4.875 12.325  5.606249999999999 13  6.5 13  C 7.39375 13  8.125 12.325  8.125 11.5  Z M 3.25 11.5  C 3.25 10.675  2.5187500000000003 10  1.625 10  C 0.7312499999999998 10  0 10.675  0 11.5  C 0 12.325  0.7312499999999998 13  1.625 13  C 2.5187500000000003 13  3.25 12.325  3.25 11.5  Z M 13 11.5  C 13 10.675  12.268749999999999 10  11.375 10  C 10.481250000000001 10  9.75 10.675  9.75 11.5  C 9.75 12.325  10.481250000000001 13  11.375 13  C 12.268749999999999 13  13 12.325  13 11.5  Z " fill-rule="nonzero" fill="rgba(255, 255, 255, 1)" stroke="none" transform="matrix(1 0 0 1 1125 2129 )" class="fill" />
    <path d="M 2.1666666666666665 7  L 2.1666666666666665 9  L 1.0833333333333333 9  L 1.0833333333333333 6  L 5.958333333333333 6  L 5.958333333333333 4  L 7.041666666666666 4  L 7.041666666666666 6  L 11.916666666666666 6  L 11.916666666666666 9  L 10.833333333333334 9  L 10.833333333333334 7  L 7.041666666666666 7  L 7.041666666666666 9  L 5.958333333333333 9  L 5.958333333333333 7  L 2.1666666666666665 7  Z " stroke-width="0" stroke-dasharray="0" stroke="rgba(255, 255, 255, 0)" fill="none" transform="matrix(1 0 0 1 1125 2129 )" class="stroke" mask="url(#Clip205)" />
    <path d="M 4.875 1.5  C 4.875 2.325  5.606249999999999 3  6.5 3  C 7.39375 3  8.125 2.325  8.125 1.5  C 8.125 0.6749999999999998  7.39375 0  6.5 0  C 5.606250000000001 0  4.875 0.675  4.875 1.5  Z " stroke-width="0" stroke-dasharray="0" stroke="rgba(255, 255, 255, 0)" fill="none" transform="matrix(1 0 0 1 1125 2129 )" class="stroke" mask="url(#Clip205)" />
    <path d="M 8.125 11.5  C 8.125 10.675  7.39375 10  6.5 10  C 5.606249999999999 10  4.875 10.675  4.875 11.5  C 4.875 12.325  5.606249999999999 13  6.5 13  C 7.39375 13  8.125 12.325  8.125 11.5  Z " stroke-width="0" stroke-dasharray="0" stroke="rgba(255, 255, 255, 0)" fill="none" transform="matrix(1 0 0 1 1125 2129 )" class="stroke" mask="url(#Clip205)" />
    <path d="M 3.25 11.5  C 3.25 10.675  2.5187500000000003 10  1.625 10  C 0.7312499999999998 10  0 10.675  0 11.5  C 0 12.325  0.7312499999999998 13  1.625 13  C 2.5187500000000003 13  3.25 12.325  3.25 11.5  Z " stroke-width="0" stroke-dasharray="0" stroke="rgba(255, 255, 255, 0)" fill="none" transform="matrix(1 0 0 1 1125 2129 )" class="stroke" mask="url(#Clip205)" />
    <path d="M 13 11.5  C 13 10.675  12.268749999999999 10  11.375 10  C 10.481250000000001 10  9.75 10.675  9.75 11.5  C 9.75 12.325  10.481250000000001 13  11.375 13  C 12.268749999999999 13  13 12.325  13 11.5  Z " stroke-width="0" stroke-dasharray="0" stroke="rgba(255, 255, 255, 0)" fill="none" transform="matrix(1 0 0 1 1125 2129 )" class="stroke" mask="url(#Clip205)" />
  </g>
</svg>