<?xml version="1.0" encoding="utf-8"?>
<svg version="1.1" xmlns:xlink="http://www.w3.org/1999/xlink" width="10px" height="10px" xmlns="http://www.w3.org/2000/svg">
  <defs>
    <pattern id="BGPattern" patternUnits="userSpaceOnUse" alignment="0 0" imageRepeat="None" />
    <mask fill="white" id="Clip206">
      <path d="M 9.646153846153846 9.772467532467532  C 9.946666666666667 9.465974025974027  9.947692307692307 8.973506493506493  9.645128205128206 8.669090909090908  L 6.088205128205129 5.064935064935065  L 9.646153846153846 1.4607792207792214  C 9.947692307692307 1.1553246753246764  9.948717948717947 0.6628571428571437  9.647179487179486 0.3574025974025977  C 9.346666666666666 0.05298701298701315  8.858461538461537 0.05298701298701315  8.558974358974359 0.3574025974025977  L 5 3.9615584415584415  L 1.4410256410256415 0.3574025974025973  C 1.141538461538462 0.05298701298701269  0.6543589743589748 0.05298701298701269  0.35282051282051313 0.3574025974025973  C 0.053333333333333385 0.6618181818181819  0.053333333333333385 1.1563636363636367  0.354871794871795 1.461818181818182  L 3.911794871794872 5.064935064935065  L 0.35384615384615403 8.668051948051948  C 0.05230769230769247 8.972467532467531  0.05230769230769247 9.465974025974027  0.35282051282051313 9.77142857142857  C 0.5035897435897437 9.925194805194806  0.7025641025641026 10  0.8974358974358975 10  C 1.0923076923076918 10  1.2912820512820518 9.925194805194806  1.4410256410256415 9.772467532467532  L 5 6.168311688311688  L 8.558974358974359 9.772467532467532  C 8.70974358974359 9.924155844155845  8.906666666666668 9.999999999999998  9.102564102564102 9.999999999999998  C 9.29948717948718 9.999999999999998  9.496410256410257 9.925194805194804  9.646153846153846 9.772467532467532  Z " fill-rule="evenodd" />
    </mask>
  </defs>
  <g transform="matrix(1 0 0 1 -1628 -2069 )">
    <path d="M 9.646153846153846 9.772467532467532  C 9.946666666666667 9.465974025974027  9.947692307692307 8.973506493506493  9.645128205128206 8.669090909090908  L 6.088205128205129 5.064935064935065  L 9.646153846153846 1.4607792207792214  C 9.947692307692307 1.1553246753246764  9.948717948717947 0.6628571428571437  9.647179487179486 0.3574025974025977  C 9.346666666666666 0.05298701298701315  8.858461538461537 0.05298701298701315  8.558974358974359 0.3574025974025977  L 5 3.9615584415584415  L 1.4410256410256415 0.3574025974025973  C 1.141538461538462 0.05298701298701269  0.6543589743589748 0.05298701298701269  0.35282051282051313 0.3574025974025973  C 0.053333333333333385 0.6618181818181819  0.053333333333333385 1.1563636363636367  0.354871794871795 1.461818181818182  L 3.911794871794872 5.064935064935065  L 0.35384615384615403 8.668051948051948  C 0.05230769230769247 8.972467532467531  0.05230769230769247 9.465974025974027  0.35282051282051313 9.77142857142857  C 0.5035897435897437 9.925194805194806  0.7025641025641026 10  0.8974358974358975 10  C 1.0923076923076918 10  1.2912820512820518 9.925194805194806  1.4410256410256415 9.772467532467532  L 5 6.168311688311688  L 8.558974358974359 9.772467532467532  C 8.70974358974359 9.924155844155845  8.906666666666668 9.999999999999998  9.102564102564102 9.999999999999998  C 9.29948717948718 9.999999999999998  9.496410256410257 9.925194805194804  9.646153846153846 9.772467532467532  Z " fill-rule="nonzero" fill="rgba(152, 157, 170, 1)" stroke="none" transform="matrix(1 0 0 1 1628 2069 )" class="fill" />
    <path d="M 9.646153846153846 9.772467532467532  C 9.946666666666667 9.465974025974027  9.947692307692307 8.973506493506493  9.645128205128206 8.669090909090908  L 6.088205128205129 5.064935064935065  L 9.646153846153846 1.4607792207792214  C 9.947692307692307 1.1553246753246764  9.948717948717947 0.6628571428571437  9.647179487179486 0.3574025974025977  C 9.346666666666666 0.05298701298701315  8.858461538461537 0.05298701298701315  8.558974358974359 0.3574025974025977  L 5 3.9615584415584415  L 1.4410256410256415 0.3574025974025973  C 1.141538461538462 0.05298701298701269  0.6543589743589748 0.05298701298701269  0.35282051282051313 0.3574025974025973  C 0.053333333333333385 0.6618181818181819  0.053333333333333385 1.1563636363636367  0.354871794871795 1.461818181818182  L 3.911794871794872 5.064935064935065  L 0.35384615384615403 8.668051948051948  C 0.05230769230769247 8.972467532467531  0.05230769230769247 9.465974025974027  0.35282051282051313 9.77142857142857  C 0.5035897435897437 9.925194805194806  0.7025641025641026 10  0.8974358974358975 10  C 1.0923076923076918 10  1.2912820512820518 9.925194805194806  1.4410256410256415 9.772467532467532  L 5 6.168311688311688  L 8.558974358974359 9.772467532467532  C 8.70974358974359 9.924155844155845  8.906666666666668 9.999999999999998  9.102564102564102 9.999999999999998  C 9.29948717948718 9.999999999999998  9.496410256410257 9.925194805194804  9.646153846153846 9.772467532467532  Z " stroke-width="0" stroke-dasharray="0" stroke="rgba(255, 255, 255, 0)" fill="none" transform="matrix(1 0 0 1 1628 2069 )" class="stroke" mask="url(#Clip206)" />
  </g>
</svg>