<?xml version="1.0" encoding="utf-8"?>
<svg version="1.1" xmlns:xlink="http://www.w3.org/1999/xlink" width="11px" height="16px" xmlns="http://www.w3.org/2000/svg">
  <defs>
    <pattern id="BGPattern" patternUnits="userSpaceOnUse" alignment="0 0" imageRepeat="None" />
    <mask fill="white" id="Clip200">
      <path d="M 10.348077065456984 10.39711382391305  L 1.6863800995636777 15.397947347387227  C 0.8352315294178436 13.926892269019415  0.3480762113533914 12.218893903572608  0.34807621135336575 10.397114317030004  C 0.3480762113533368 4.874266818722058  4.825228713045398 0.3971143170299629  10.348076211353376 0.397114317029982  L 10.348077065456984 10.39711382391305  Z " fill-rule="evenodd" />
    </mask>
  </defs>
  <g transform="matrix(1 0 0 1 -352 -1593 )">
    <path d="M 10.348077065456984 10.39711382391305  L 1.6863800995636777 15.397947347387227  C 0.8352315294178436 13.926892269019415  0.3480762113533914 12.218893903572608  0.34807621135336575 10.397114317030004  C 0.3480762113533368 4.874266818722058  4.825228713045398 0.3971143170299629  10.348076211353376 0.397114317029982  L 10.348077065456984 10.39711382391305  Z " fill-rule="nonzero" fill="rgba(24, 144, 255, 1)" stroke="none" transform="matrix(1 0 0 1 352 1593 )" class="fill" />
    <path d="M 10.348077065456984 10.39711382391305  L 1.6863800995636777 15.397947347387227  C 0.8352315294178436 13.926892269019415  0.3480762113533914 12.218893903572608  0.34807621135336575 10.397114317030004  C 0.3480762113533368 4.874266818722058  4.825228713045398 0.3971143170299629  10.348076211353376 0.397114317029982  L 10.348077065456984 10.39711382391305  Z " stroke-width="0" stroke-dasharray="0" stroke="rgba(121, 121, 121, 1)" fill="none" transform="matrix(1 0 0 1 352 1593 )" class="stroke" mask="url(#Clip200)" />
  </g>
</svg>