<?xml version="1.0" encoding="utf-8"?>
<svg version="1.1" xmlns:xlink="http://www.w3.org/1999/xlink" width="20px" height="20px" xmlns="http://www.w3.org/2000/svg">
  <defs>
    <pattern id="BGPattern" patternUnits="userSpaceOnUse" alignment="0 0" imageRepeat="None" />
    <mask fill="white" id="Clip201">
      <path d="M 10 0  L 10 10  L 10.075755401907857 19.999713051837126  C 10.050504054149025 19.99990434992621  10.02525207236241 20  10 20  C 4.477152501692066 20  0 15.522847498307934  0 10  C 0 4.477152501692066  4.477152501692066 0  10 0  Z " fill-rule="evenodd" />
    </mask>
  </defs>
  <g transform="matrix(1 0 0 1 -343 -1594 )">
    <path d="M 10 0  L 10 10  L 10.075755401907857 19.999713051837126  C 10.050504054149025 19.99990434992621  10.02525207236241 20  10 20  C 4.477152501692066 20  0 15.522847498307934  0 10  C 0 4.477152501692066  4.477152501692066 0  10 0  Z " fill-rule="nonzero" fill="rgba(233, 234, 238, 1)" stroke="none" transform="matrix(1 0 0 1 343 1594 )" class="fill" />
    <path d="M 10 0  L 10 10  L 10.075755401907857 19.999713051837126  C 10.050504054149025 19.99990434992621  10.02525207236241 20  10 20  C 4.477152501692066 20  0 15.522847498307934  0 10  C 0 4.477152501692066  4.477152501692066 0  10 0  Z " stroke-width="0" stroke-dasharray="0" stroke="rgba(121, 121, 121, 1)" fill="none" transform="matrix(1 0 0 1 343 1594 )" class="stroke" mask="url(#Clip201)" />
  </g>
</svg>