<?xml version="1.0" encoding="utf-8"?>
<svg version="1.1" xmlns:xlink="http://www.w3.org/1999/xlink" width="6px" height="8px" xmlns="http://www.w3.org/2000/svg">
  <defs>
    <pattern id="BGPattern" patternUnits="userSpaceOnUse" alignment="0 0" imageRepeat="None" />
    <mask fill="white" id="Clip277">
      <path d="M 5.896907216494845 0.480961923847695  C 5.965635738831616 0.5344021376085495  6 0.5958583834335327  6 0.6653306613226455  C 6 0.7348029392117565  5.965635738831616 0.7962591850367398  5.896907216494845 0.8496993987975952  L 1.8453608247422681 4  L 5.896907216494845 7.150300601202405  C 5.965635738831616 7.203740814963259  6 7.265197060788243  6 7.3346693386773545  C 6 7.404141616566466  5.965635738831616 7.46559786239145  5.896907216494845 7.519038076152305  L 5.381443298969073 7.919839679358717  C 5.312714776632303 7.973279893119573  5.233676975945018 8  5.144329896907216 8  C 5.0549828178694165 8  4.975945017182132 7.973279893119573  4.907216494845361 7.919839679358717  L 0.10309278350515465 4.18436873747495  C 0.0343642611683849 4.130928523714094  0 4.069472277889111  0 4  C 0 3.930527722110888  0.0343642611683849 3.869071476285905  0.10309278350515465 3.8156312625250504  L 4.907216494845361 0.08016032064128265  C 4.975945017182132 0.026720106880427252  5.0549828178694165 0  5.144329896907216 0  C 5.233676975945018 0  5.312714776632303 0.026720106880427252  5.381443298969073 0.08016032064128265  L 5.896907216494845 0.480961923847695  Z " fill-rule="evenodd" />
    </mask>
  </defs>
  <g transform="matrix(1 0 0 1 -49 -20 )">
    <path d="M 5.896907216494845 0.480961923847695  C 5.965635738831616 0.5344021376085495  6 0.5958583834335327  6 0.6653306613226455  C 6 0.7348029392117565  5.965635738831616 0.7962591850367398  5.896907216494845 0.8496993987975952  L 1.8453608247422681 4  L 5.896907216494845 7.150300601202405  C 5.965635738831616 7.203740814963259  6 7.265197060788243  6 7.3346693386773545  C 6 7.404141616566466  5.965635738831616 7.46559786239145  5.896907216494845 7.519038076152305  L 5.381443298969073 7.919839679358717  C 5.312714776632303 7.973279893119573  5.233676975945018 8  5.144329896907216 8  C 5.0549828178694165 8  4.975945017182132 7.973279893119573  4.907216494845361 7.919839679358717  L 0.10309278350515465 4.18436873747495  C 0.0343642611683849 4.130928523714094  0 4.069472277889111  0 4  C 0 3.930527722110888  0.0343642611683849 3.869071476285905  0.10309278350515465 3.8156312625250504  L 4.907216494845361 0.08016032064128265  C 4.975945017182132 0.026720106880427252  5.0549828178694165 0  5.144329896907216 0  C 5.233676975945018 0  5.312714776632303 0.026720106880427252  5.381443298969073 0.08016032064128265  L 5.896907216494845 0.480961923847695  Z " fill-rule="nonzero" fill="rgba(91, 94, 104, 1)" stroke="none" transform="matrix(1 0 0 1 49 20 )" class="fill" />
    <path d="M 5.896907216494845 0.480961923847695  C 5.965635738831616 0.5344021376085495  6 0.5958583834335327  6 0.6653306613226455  C 6 0.7348029392117565  5.965635738831616 0.7962591850367398  5.896907216494845 0.8496993987975952  L 1.8453608247422681 4  L 5.896907216494845 7.150300601202405  C 5.965635738831616 7.203740814963259  6 7.265197060788243  6 7.3346693386773545  C 6 7.404141616566466  5.965635738831616 7.46559786239145  5.896907216494845 7.519038076152305  L 5.381443298969073 7.919839679358717  C 5.312714776632303 7.973279893119573  5.233676975945018 8  5.144329896907216 8  C 5.0549828178694165 8  4.975945017182132 7.973279893119573  4.907216494845361 7.919839679358717  L 0.10309278350515465 4.18436873747495  C 0.0343642611683849 4.130928523714094  0 4.069472277889111  0 4  C 0 3.930527722110888  0.0343642611683849 3.869071476285905  0.10309278350515465 3.8156312625250504  L 4.907216494845361 0.08016032064128265  C 4.975945017182132 0.026720106880427252  5.0549828178694165 0  5.144329896907216 0  C 5.233676975945018 0  5.312714776632303 0.026720106880427252  5.381443298969073 0.08016032064128265  L 5.896907216494845 0.480961923847695  Z " stroke-width="0" stroke-dasharray="0" stroke="rgba(121, 121, 121, 1)" fill="none" transform="matrix(1 0 0 1 49 20 )" class="stroke" mask="url(#Clip277)" />
  </g>
</svg>