<?xml version="1.0" encoding="utf-8"?>
<svg version="1.1" xmlns:xlink="http://www.w3.org/1999/xlink" width="10px" height="8px" xmlns="http://www.w3.org/2000/svg">
  <defs>
    <pattern id="BGPattern" patternUnits="userSpaceOnUse" alignment="0 0" imageRepeat="None" />
    <mask fill="white" id="Clip278">
      <path d="M 5.144329896907209 0  C 5.233676975945031 0  5.312714776632305 0.026720106880475214  5.38144329896906 0.08016032064131196  L 5.896907216494839 0.48096192384764436  C 5.965635738831622 0.5344021376085948  6 0.5958583834335514  6 0.6653306613226277  C 6 0.7348029392117041  5.965635738831622 0.7962591850367744  5.896907216494839 0.8496993987976111  L 1.8453608247422721 4  L 5.896907216494839 7.150300601202389  C 5.965635738831622 7.203740814963226  6 7.265197060788296  6 7.334669338677372  C 6 7.404141616566449  5.965635738831622 7.465597862391405  5.896907216494839 7.519038076152356  L 5.38144329896906 7.919839679358688  C 5.312714776632305 7.973279893119525  5.233676975945031 8  5.144329896907209 8  C 5.054982817869416 8  4.975945017182141 7.973279893119525  4.907216494845358 7.919839679358688  L 0.10309278350516138 4.184368737474983  C 0.03436426116837765 4.130928523714147  0 4.069472277889076  0 4  C 0 3.9305277221109236  0.03436426116837765 3.8690714762858534  0.10309278350516138 3.8156312625250166  L 4.907216494845358 0.08016032064131196  C 4.975945017182141 0.026720106880475214  5.054982817869416 0  5.144329896907209 0  Z M 9.144329896907209 0  C 9.23367697594503 0  9.312714776632305 0.026720106880475214  9.38144329896906 0.08016032064131196  L 9.896907216494839 0.48096192384764436  C 9.965635738831622 0.5344021376085948  10 0.5958583834335514  10 0.6653306613226277  C 10 0.7348029392117041  9.965635738831622 0.7962591850367744  9.896907216494839 0.8496993987976111  L 5.845360824742272 4  L 9.896907216494839 7.150300601202389  C 9.965635738831622 7.203740814963226  10 7.265197060788296  10 7.334669338677372  C 10 7.404141616566449  9.965635738831622 7.465597862391405  9.896907216494839 7.519038076152356  L 9.38144329896906 7.919839679358688  C 9.312714776632305 7.973279893119525  9.23367697594503 8  9.144329896907209 8  C 9.054982817869416 8  8.975945017182141 7.973279893119525  8.907216494845358 7.919839679358688  L 4.103092783505161 4.184368737474983  C 4.034364261168378 4.130928523714147  4 4.069472277889076  4 4  C 4 3.9305277221109236  4.034364261168378 3.8690714762858534  4.103092783505161 3.8156312625250166  L 8.907216494845358 0.08016032064131196  C 8.975945017182141 0.026720106880475214  9.054982817869416 0  9.144329896907209 0  Z " fill-rule="evenodd" />
    </mask>
  </defs>
  <g transform="matrix(1 0 0 1 -272 -20 )">
    <path d="M 5.144329896907209 0  C 5.233676975945031 0  5.312714776632305 0.026720106880475214  5.38144329896906 0.08016032064131196  L 5.896907216494839 0.48096192384764436  C 5.965635738831622 0.5344021376085948  6 0.5958583834335514  6 0.6653306613226277  C 6 0.7348029392117041  5.965635738831622 0.7962591850367744  5.896907216494839 0.8496993987976111  L 1.8453608247422721 4  L 5.896907216494839 7.150300601202389  C 5.965635738831622 7.203740814963226  6 7.265197060788296  6 7.334669338677372  C 6 7.404141616566449  5.965635738831622 7.465597862391405  5.896907216494839 7.519038076152356  L 5.38144329896906 7.919839679358688  C 5.312714776632305 7.973279893119525  5.233676975945031 8  5.144329896907209 8  C 5.054982817869416 8  4.975945017182141 7.973279893119525  4.907216494845358 7.919839679358688  L 0.10309278350516138 4.184368737474983  C 0.03436426116837765 4.130928523714147  0 4.069472277889076  0 4  C 0 3.9305277221109236  0.03436426116837765 3.8690714762858534  0.10309278350516138 3.8156312625250166  L 4.907216494845358 0.08016032064131196  C 4.975945017182141 0.026720106880475214  5.054982817869416 0  5.144329896907209 0  Z M 9.144329896907209 0  C 9.23367697594503 0  9.312714776632305 0.026720106880475214  9.38144329896906 0.08016032064131196  L 9.896907216494839 0.48096192384764436  C 9.965635738831622 0.5344021376085948  10 0.5958583834335514  10 0.6653306613226277  C 10 0.7348029392117041  9.965635738831622 0.7962591850367744  9.896907216494839 0.8496993987976111  L 5.845360824742272 4  L 9.896907216494839 7.150300601202389  C 9.965635738831622 7.203740814963226  10 7.265197060788296  10 7.334669338677372  C 10 7.404141616566449  9.965635738831622 7.465597862391405  9.896907216494839 7.519038076152356  L 9.38144329896906 7.919839679358688  C 9.312714776632305 7.973279893119525  9.23367697594503 8  9.144329896907209 8  C 9.054982817869416 8  8.975945017182141 7.973279893119525  8.907216494845358 7.919839679358688  L 4.103092783505161 4.184368737474983  C 4.034364261168378 4.130928523714147  4 4.069472277889076  4 4  C 4 3.9305277221109236  4.034364261168378 3.8690714762858534  4.103092783505161 3.8156312625250166  L 8.907216494845358 0.08016032064131196  C 8.975945017182141 0.026720106880475214  9.054982817869416 0  9.144329896907209 0  Z " fill-rule="nonzero" fill="rgba(91, 94, 104, 1)" stroke="none" transform="matrix(1 0 0 1 272 20 )" class="fill" />
    <path d="M 5.144329896907209 0  C 5.233676975945031 0  5.312714776632305 0.026720106880475214  5.38144329896906 0.08016032064131196  L 5.896907216494839 0.48096192384764436  C 5.965635738831622 0.5344021376085948  6 0.5958583834335514  6 0.6653306613226277  C 6 0.7348029392117041  5.965635738831622 0.7962591850367744  5.896907216494839 0.8496993987976111  L 1.8453608247422721 4  L 5.896907216494839 7.150300601202389  C 5.965635738831622 7.203740814963226  6 7.265197060788296  6 7.334669338677372  C 6 7.404141616566449  5.965635738831622 7.465597862391405  5.896907216494839 7.519038076152356  L 5.38144329896906 7.919839679358688  C 5.312714776632305 7.973279893119525  5.233676975945031 8  5.144329896907209 8  C 5.054982817869416 8  4.975945017182141 7.973279893119525  4.907216494845358 7.919839679358688  L 0.10309278350516138 4.184368737474983  C 0.03436426116837765 4.130928523714147  0 4.069472277889076  0 4  C 0 3.9305277221109236  0.03436426116837765 3.8690714762858534  0.10309278350516138 3.8156312625250166  L 4.907216494845358 0.08016032064131196  C 4.975945017182141 0.026720106880475214  5.054982817869416 0  5.144329896907209 0  Z " stroke-width="0" stroke-dasharray="0" stroke="rgba(121, 121, 121, 1)" fill="none" transform="matrix(1 0 0 1 272 20 )" class="stroke" mask="url(#Clip278)" />
    <path d="M 9.144329896907209 0  C 9.23367697594503 0  9.312714776632305 0.026720106880475214  9.38144329896906 0.08016032064131196  L 9.896907216494839 0.48096192384764436  C 9.965635738831622 0.5344021376085948  10 0.5958583834335514  10 0.6653306613226277  C 10 0.7348029392117041  9.965635738831622 0.7962591850367744  9.896907216494839 0.8496993987976111  L 5.845360824742272 4  L 9.896907216494839 7.150300601202389  C 9.965635738831622 7.203740814963226  10 7.265197060788296  10 7.334669338677372  C 10 7.404141616566449  9.965635738831622 7.465597862391405  9.896907216494839 7.519038076152356  L 9.38144329896906 7.919839679358688  C 9.312714776632305 7.973279893119525  9.23367697594503 8  9.144329896907209 8  C 9.054982817869416 8  8.975945017182141 7.973279893119525  8.907216494845358 7.919839679358688  L 4.103092783505161 4.184368737474983  C 4.034364261168378 4.130928523714147  4 4.069472277889076  4 4  C 4 3.9305277221109236  4.034364261168378 3.8690714762858534  4.103092783505161 3.8156312625250166  L 8.907216494845358 0.08016032064131196  C 8.975945017182141 0.026720106880475214  9.054982817869416 0  9.144329896907209 0  Z " stroke-width="0" stroke-dasharray="0" stroke="rgba(121, 121, 121, 1)" fill="none" transform="matrix(1 0 0 1 272 20 )" class="stroke" mask="url(#Clip278)" />
  </g>
</svg>