<?xml version="1.0" encoding="utf-8"?>
<svg version="1.1" xmlns:xlink="http://www.w3.org/1999/xlink" width="13px" height="13px" xmlns="http://www.w3.org/2000/svg">
  <defs>
    <pattern id="BGPattern" patternUnits="userSpaceOnUse" alignment="0 0" imageRepeat="None" />
    <mask fill="white" id="Clip279">
      <path d="M 9.898692805147059 0.5522875870098037  L 9.898692805147059 1.0620915085784313  L 11.088915037990198 1.0620915085784313  C 12.121437903186274 1.0620915085784313  12.957516334558825 1.8988496678921571  12.957516334558825 2.9329019607843136  L 12.957516334558825 11.08653594240196  C 12.957516334558825 12.119908491421569  12.121098039215687 12.957516334558825  11.088915037990198 12.957516334558825  L 1.911084962009804 12.957516334558825  C 0.8785620968137255 12.957516334558825  0.04248366544117654 12.120758175245099  0.04248366544117654 11.086705882352941  L 0.04248366544117654 2.9330719007352943  C 0.04248366544117654 1.8996993517156864  0.8789019607843139 1.0620915085784313  1.911084962009804 1.0620915085784313  L 3.1013071948529416 1.0620915085784313  L 3.1013071948529416 0.5522875870098037  C 3.1013071948529416 0.270730655723517  3.329554185135282 0.0424836654411763  3.611111116421569 0.0424836654411763  C 3.8926680477078555 0.0424836654411763  4.120915037990197 0.270730655723517  4.120915037990197 0.5522875870098037  L 4.120915037990197 1.0620915085784313  L 8.879084962009804 1.0620915085784313  L 8.879084962009804 0.5522875870098037  C 8.879084962009804 0.270730655723517  9.107331952292144 0.0424836654411763  9.388888883578431 0.0424836654411763  C 9.670445814864719 0.0424836654411763  9.898692805147059 0.270730655723517  9.898692805147059 0.5522875870098037  Z M 11.088915037990198 2.0816993517156863  L 9.898692805147059 2.0816993517156863  L 9.898692805147059 2.5915032732843133  C 9.898692805147059 2.8730602045705997  9.670445814864719 3.1013071948529407  9.388888883578431 3.1013071948529407  C 9.107331952292144 3.1013071948529407  8.879084962009804 2.8730602045705997  8.879084962009804 2.5915032732843133  L 8.879084962009804 2.081699351715686  L 4.120915037990197 2.081699351715686  L 4.120915037990197 2.5915032732843133  C 4.120915037990197 2.8730602045705997  3.8926680477078555 3.1013071948529407  3.611111116421569 3.1013071948529407  C 3.329554185135282 3.1013071948529407  3.1013071948529416 2.8730602045705997  3.1013071948529416 2.5915032732843133  L 3.1013071948529416 2.081699351715686  L 1.911084962009804 2.081699351715686  C 1.4420338524239407 2.08226153741797  1.0620906753914647 2.4626603718889033  1.0620906753914647 2.931711818381176  C 1.0620906753914647 2.9321085326617067  1.0620909531205214 2.932505246892644  1.0620915085784313 2.9329019607843136  L 1.0620915085784313 11.086535942401962  C 1.0620895927918768 11.08727233153499  1.062088634897383 11.088008722848635  1.062088634897383 11.08874511447371  C 1.062088634897383 11.557659864645336  1.442170220913437 11.93781623610435  1.911084962009804 11.937908491421569  L 11.088915037990192 11.937908491421569  C 11.557966147576057 11.937346305719286  11.937909324608535 11.55694747124835  11.937909324608535 11.087896024756077  C 11.937909324608535 11.087499310476089  11.93790904687948 11.087102596244073  11.937908491421569 11.086705882352941  L 11.937908491421569 2.9330719007352952  C 11.937910407208124 2.9323355116025556  11.93791136510262 2.931599120288333  11.93791136510262 2.930862728663547  C 11.93791136510262 2.4619479784919207  11.557829779086566 2.081791607032906  11.088915037990198 2.0816993517156863  Z M 3.271241824754902 5.650326802696078  L 9.7287581752451 5.650326802696078  C 10.010315106531387 5.650326802696078  10.238562096813727 5.878573792978418  10.238562096813727 6.160130724264705  C 10.238562096813727 6.441687655550992  10.010315106531387 6.669934645833332  9.7287581752451 6.669934645833332  L 3.271241824754902 6.669934645833332  C 2.989684893468615 6.669934645833332  2.7614379031862746 6.441687655550992  2.7614379031862746 6.160130724264705  C 2.7614379031862746 5.878573792978418  2.989684893468615 5.650326802696078  3.271241824754902 5.650326802696078  Z M 3.271241824754902 8.199346410539215  L 7.689542488970588 8.199346410539215  C 7.971099420256875 8.199346410539215  8.199346410539215 8.427593400821555  8.199346410539215 8.709150332107843  C 8.199346410539215 8.990707263394128  7.971099420256875 9.21895425367647  7.689542488970588 9.21895425367647  L 3.271241824754902 9.21895425367647  C 2.989684893468615 9.21895425367647  2.7614379031862746 8.990707263394128  2.7614379031862746 8.709150332107843  C 2.7614379031862746 8.427593400821555  2.989684893468615 8.199346410539215  3.271241824754902 8.199346410539215  Z " fill-rule="evenodd" />
    </mask>
  </defs>
  <g transform="matrix(1 0 0 1 -177 -11 )">
    <path d="M 9.898692805147059 0.5522875870098037  L 9.898692805147059 1.0620915085784313  L 11.088915037990198 1.0620915085784313  C 12.121437903186274 1.0620915085784313  12.957516334558825 1.8988496678921571  12.957516334558825 2.9329019607843136  L 12.957516334558825 11.08653594240196  C 12.957516334558825 12.119908491421569  12.121098039215687 12.957516334558825  11.088915037990198 12.957516334558825  L 1.911084962009804 12.957516334558825  C 0.8785620968137255 12.957516334558825  0.04248366544117654 12.120758175245099  0.04248366544117654 11.086705882352941  L 0.04248366544117654 2.9330719007352943  C 0.04248366544117654 1.8996993517156864  0.8789019607843139 1.0620915085784313  1.911084962009804 1.0620915085784313  L 3.1013071948529416 1.0620915085784313  L 3.1013071948529416 0.5522875870098037  C 3.1013071948529416 0.270730655723517  3.329554185135282 0.0424836654411763  3.611111116421569 0.0424836654411763  C 3.8926680477078555 0.0424836654411763  4.120915037990197 0.270730655723517  4.120915037990197 0.5522875870098037  L 4.120915037990197 1.0620915085784313  L 8.879084962009804 1.0620915085784313  L 8.879084962009804 0.5522875870098037  C 8.879084962009804 0.270730655723517  9.107331952292144 0.0424836654411763  9.388888883578431 0.0424836654411763  C 9.670445814864719 0.0424836654411763  9.898692805147059 0.270730655723517  9.898692805147059 0.5522875870098037  Z M 11.088915037990198 2.0816993517156863  L 9.898692805147059 2.0816993517156863  L 9.898692805147059 2.5915032732843133  C 9.898692805147059 2.8730602045705997  9.670445814864719 3.1013071948529407  9.388888883578431 3.1013071948529407  C 9.107331952292144 3.1013071948529407  8.879084962009804 2.8730602045705997  8.879084962009804 2.5915032732843133  L 8.879084962009804 2.081699351715686  L 4.120915037990197 2.081699351715686  L 4.120915037990197 2.5915032732843133  C 4.120915037990197 2.8730602045705997  3.8926680477078555 3.1013071948529407  3.611111116421569 3.1013071948529407  C 3.329554185135282 3.1013071948529407  3.1013071948529416 2.8730602045705997  3.1013071948529416 2.5915032732843133  L 3.1013071948529416 2.081699351715686  L 1.911084962009804 2.081699351715686  C 1.4420338524239407 2.08226153741797  1.0620906753914647 2.4626603718889033  1.0620906753914647 2.931711818381176  C 1.0620906753914647 2.9321085326617067  1.0620909531205214 2.932505246892644  1.0620915085784313 2.9329019607843136  L 1.0620915085784313 11.086535942401962  C 1.0620895927918768 11.08727233153499  1.062088634897383 11.088008722848635  1.062088634897383 11.08874511447371  C 1.062088634897383 11.557659864645336  1.442170220913437 11.93781623610435  1.911084962009804 11.937908491421569  L 11.088915037990192 11.937908491421569  C 11.557966147576057 11.937346305719286  11.937909324608535 11.55694747124835  11.937909324608535 11.087896024756077  C 11.937909324608535 11.087499310476089  11.93790904687948 11.087102596244073  11.937908491421569 11.086705882352941  L 11.937908491421569 2.9330719007352952  C 11.937910407208124 2.9323355116025556  11.93791136510262 2.931599120288333  11.93791136510262 2.930862728663547  C 11.93791136510262 2.4619479784919207  11.557829779086566 2.081791607032906  11.088915037990198 2.0816993517156863  Z M 3.271241824754902 5.650326802696078  L 9.7287581752451 5.650326802696078  C 10.010315106531387 5.650326802696078  10.238562096813727 5.878573792978418  10.238562096813727 6.160130724264705  C 10.238562096813727 6.441687655550992  10.010315106531387 6.669934645833332  9.7287581752451 6.669934645833332  L 3.271241824754902 6.669934645833332  C 2.989684893468615 6.669934645833332  2.7614379031862746 6.441687655550992  2.7614379031862746 6.160130724264705  C 2.7614379031862746 5.878573792978418  2.989684893468615 5.650326802696078  3.271241824754902 5.650326802696078  Z M 3.271241824754902 8.199346410539215  L 7.689542488970588 8.199346410539215  C 7.971099420256875 8.199346410539215  8.199346410539215 8.427593400821555  8.199346410539215 8.709150332107843  C 8.199346410539215 8.990707263394128  7.971099420256875 9.21895425367647  7.689542488970588 9.21895425367647  L 3.271241824754902 9.21895425367647  C 2.989684893468615 9.21895425367647  2.7614379031862746 8.990707263394128  2.7614379031862746 8.709150332107843  C 2.7614379031862746 8.427593400821555  2.989684893468615 8.199346410539215  3.271241824754902 8.199346410539215  Z " fill-rule="nonzero" fill="rgba(178, 178, 178, 1)" stroke="none" transform="matrix(1 0 0 1 177 11 )" class="fill" />
    <path d="M 9.898692805147059 0.5522875870098037  L 9.898692805147059 1.0620915085784313  L 11.088915037990198 1.0620915085784313  C 12.121437903186274 1.0620915085784313  12.957516334558825 1.8988496678921571  12.957516334558825 2.9329019607843136  L 12.957516334558825 11.08653594240196  C 12.957516334558825 12.119908491421569  12.121098039215687 12.957516334558825  11.088915037990198 12.957516334558825  L 1.911084962009804 12.957516334558825  C 0.8785620968137255 12.957516334558825  0.04248366544117654 12.120758175245099  0.04248366544117654 11.086705882352941  L 0.04248366544117654 2.9330719007352943  C 0.04248366544117654 1.8996993517156864  0.8789019607843139 1.0620915085784313  1.911084962009804 1.0620915085784313  L 3.1013071948529416 1.0620915085784313  L 3.1013071948529416 0.5522875870098037  C 3.1013071948529416 0.270730655723517  3.329554185135282 0.0424836654411763  3.611111116421569 0.0424836654411763  C 3.8926680477078555 0.0424836654411763  4.120915037990197 0.270730655723517  4.120915037990197 0.5522875870098037  L 4.120915037990197 1.0620915085784313  L 8.879084962009804 1.0620915085784313  L 8.879084962009804 0.5522875870098037  C 8.879084962009804 0.270730655723517  9.107331952292144 0.0424836654411763  9.388888883578431 0.0424836654411763  C 9.670445814864719 0.0424836654411763  9.898692805147059 0.270730655723517  9.898692805147059 0.5522875870098037  Z " stroke-width="0" stroke-dasharray="0" stroke="rgba(255, 255, 255, 0)" fill="none" transform="matrix(1 0 0 1 177 11 )" class="stroke" mask="url(#Clip279)" />
    <path d="M 11.088915037990198 2.0816993517156863  L 9.898692805147059 2.0816993517156863  L 9.898692805147059 2.5915032732843133  C 9.898692805147059 2.8730602045705997  9.670445814864719 3.1013071948529407  9.388888883578431 3.1013071948529407  C 9.107331952292144 3.1013071948529407  8.879084962009804 2.8730602045705997  8.879084962009804 2.5915032732843133  L 8.879084962009804 2.081699351715686  L 4.120915037990197 2.081699351715686  L 4.120915037990197 2.5915032732843133  C 4.120915037990197 2.8730602045705997  3.8926680477078555 3.1013071948529407  3.611111116421569 3.1013071948529407  C 3.329554185135282 3.1013071948529407  3.1013071948529416 2.8730602045705997  3.1013071948529416 2.5915032732843133  L 3.1013071948529416 2.081699351715686  L 1.911084962009804 2.081699351715686  C 1.4420338524239407 2.08226153741797  1.0620906753914647 2.4626603718889033  1.0620906753914647 2.931711818381176  C 1.0620906753914647 2.9321085326617067  1.0620909531205214 2.932505246892644  1.0620915085784313 2.9329019607843136  L 1.0620915085784313 11.086535942401962  C 1.0620895927918768 11.08727233153499  1.062088634897383 11.088008722848635  1.062088634897383 11.08874511447371  C 1.062088634897383 11.557659864645336  1.442170220913437 11.93781623610435  1.911084962009804 11.937908491421569  L 11.088915037990192 11.937908491421569  C 11.557966147576057 11.937346305719286  11.937909324608535 11.55694747124835  11.937909324608535 11.087896024756077  C 11.937909324608535 11.087499310476089  11.93790904687948 11.087102596244073  11.937908491421569 11.086705882352941  L 11.937908491421569 2.9330719007352952  C 11.937910407208124 2.9323355116025556  11.93791136510262 2.931599120288333  11.93791136510262 2.930862728663547  C 11.93791136510262 2.4619479784919207  11.557829779086566 2.081791607032906  11.088915037990198 2.0816993517156863  Z " stroke-width="0" stroke-dasharray="0" stroke="rgba(255, 255, 255, 0)" fill="none" transform="matrix(1 0 0 1 177 11 )" class="stroke" mask="url(#Clip279)" />
    <path d="M 3.271241824754902 5.650326802696078  L 9.7287581752451 5.650326802696078  C 10.010315106531387 5.650326802696078  10.238562096813727 5.878573792978418  10.238562096813727 6.160130724264705  C 10.238562096813727 6.441687655550992  10.010315106531387 6.669934645833332  9.7287581752451 6.669934645833332  L 3.271241824754902 6.669934645833332  C 2.989684893468615 6.669934645833332  2.7614379031862746 6.441687655550992  2.7614379031862746 6.160130724264705  C 2.7614379031862746 5.878573792978418  2.989684893468615 5.650326802696078  3.271241824754902 5.650326802696078  Z " stroke-width="0" stroke-dasharray="0" stroke="rgba(255, 255, 255, 0)" fill="none" transform="matrix(1 0 0 1 177 11 )" class="stroke" mask="url(#Clip279)" />
    <path d="M 3.271241824754902 8.199346410539215  L 7.689542488970588 8.199346410539215  C 7.971099420256875 8.199346410539215  8.199346410539215 8.427593400821555  8.199346410539215 8.709150332107843  C 8.199346410539215 8.990707263394128  7.971099420256875 9.21895425367647  7.689542488970588 9.21895425367647  L 3.271241824754902 9.21895425367647  C 2.989684893468615 9.21895425367647  2.7614379031862746 8.990707263394128  2.7614379031862746 8.709150332107843  C 2.7614379031862746 8.427593400821555  2.989684893468615 8.199346410539215  3.271241824754902 8.199346410539215  Z " stroke-width="0" stroke-dasharray="0" stroke="rgba(255, 255, 255, 0)" fill="none" transform="matrix(1 0 0 1 177 11 )" class="stroke" mask="url(#Clip279)" />
  </g>
</svg>