<?xml version="1.0" encoding="utf-8"?>
<svg version="1.1" xmlns:xlink="http://www.w3.org/1999/xlink" width="20px" height="18px" xmlns="http://www.w3.org/2000/svg">
  <defs>
    <pattern id="BGPattern" patternUnits="userSpaceOnUse" alignment="0 0" imageRepeat="None" />
    <mask fill="white" id="Clip241">
      <path d="M 0 9  C 0 3.9599999999999995  4.3999999999999995 0  10 0  C 15.600000000000001 0  20 3.9599999999999995  20 9  C 20 14.040000000000001  15.600000000000001 18  10 18  C 4.3999999999999995 18  0 14.040000000000001  0 9  Z " fill-rule="evenodd" />
    </mask>
  </defs>
  <g transform="matrix(1 0 0 1 -779 -1001 )">
    <path d="M 0 9  C 0 3.9599999999999995  4.3999999999999995 0  10 0  C 15.600000000000001 0  20 3.9599999999999995  20 9  C 20 14.040000000000001  15.600000000000001 18  10 18  C 4.3999999999999995 18  0 14.040000000000001  0 9  Z " fill-rule="nonzero" fill="rgba(255, 85, 80, 1)" stroke="none" transform="matrix(1 0 0 1 779 1001 )" class="fill" />
    <path d="M 0 9  C 0 3.9599999999999995  4.3999999999999995 0  10 0  C 15.600000000000001 0  20 3.9599999999999995  20 9  C 20 14.040000000000001  15.600000000000001 18  10 18  C 4.3999999999999995 18  0 14.040000000000001  0 9  Z " stroke-width="0" stroke-dasharray="0" stroke="rgba(121, 121, 121, 1)" fill="none" transform="matrix(1 0 0 1 779 1001 )" class="stroke" mask="url(#Clip241)" />
  </g>
</svg>