<?xml version="1.0" encoding="utf-8"?>
<svg version="1.1" xmlns:xlink="http://www.w3.org/1999/xlink" width="14px" height="16px" xmlns="http://www.w3.org/2000/svg">
  <defs>
    <pattern id="BGPattern" patternUnits="userSpaceOnUse" alignment="0 0" imageRepeat="None" />
    <mask fill="white" id="Clip239">
      <path d="M 1.375 13  L 0 10.153  L 0 6.565  L 0 2.964  L 1.243 0  L 5.049 0  L 8.514 0.9100000000000001  L 10.967 3.588  L 11 7.176  L 11 10.764  L 8.975999999999999 13  L 5.17 13  L 1.375 13  Z " fill-rule="evenodd" />
    </mask>
  </defs>
  <g transform="matrix(1 0 0 1 -2 0 )">
    <path d="M 1.375 13  L 0 10.153  L 0 6.565  L 0 2.964  L 1.243 0  L 5.049 0  L 8.514 0.9100000000000001  L 10.967 3.588  L 11 7.176  L 11 10.764  L 8.975999999999999 13  L 5.17 13  L 1.375 13  Z " fill-rule="nonzero" fill="rgba(255, 255, 255, 0)" stroke="none" transform="matrix(1 0 0 1 3 1 )" class="fill" />
    <path d="M 1.375 13  L 0 10.153  L 0 6.565  L 0 2.964  L 1.243 0  L 5.049 0  L 8.514 0.9100000000000001  L 10.967 3.588  L 11 7.176  L 11 10.764  L 8.975999999999999 13  L 5.17 13  L 1.375 13  Z " stroke-width="4" stroke-dasharray="0" stroke="rgba(144, 161, 185, 1)" fill="none" transform="matrix(1 0 0 1 3 1 )" class="stroke" mask="url(#Clip239)" />
  </g>
</svg>