<?xml version="1.0" encoding="utf-8"?>
<svg version="1.1" xmlns:xlink="http://www.w3.org/1999/xlink" width="10px" height="8px" xmlns="http://www.w3.org/2000/svg">
  <defs>
    <pattern id="BGPattern" patternUnits="userSpaceOnUse" alignment="0 0" imageRepeat="None" />
    <mask fill="white" id="Clip123">
      <path d="M 0 1.5476190476190368  L 1.1791666666666742 0.200000000000013  L 5 4.566666666666671  L 8.820833333333326 0.200000000000013  L 10 1.5476190476190368  L 5 7.261904761904751  L 0 1.5476190476190368  Z " fill-rule="evenodd" />
    </mask>
  </defs>
  <g transform="matrix(1 0 0 1 -108 -13 )">
    <path d="M 0 1.5476190476190368  L 1.1791666666666742 0.200000000000013  L 5 4.566666666666671  L 8.820833333333326 0.200000000000013  L 10 1.5476190476190368  L 5 7.261904761904751  L 0 1.5476190476190368  Z " fill-rule="nonzero" fill="rgba(102, 110, 232, 0.8980392156862745)" stroke="none" transform="matrix(1 0 0 1 108 13 )" class="fill" />
    <path d="M 0 1.5476190476190368  L 1.1791666666666742 0.200000000000013  L 5 4.566666666666671  L 8.820833333333326 0.200000000000013  L 10 1.5476190476190368  L 5 7.261904761904751  L 0 1.5476190476190368  Z " stroke-width="0" stroke-dasharray="0" stroke="rgba(255, 255, 255, 0)" fill="none" transform="matrix(1 0 0 1 108 13 )" class="stroke" mask="url(#Clip123)" />
  </g>
</svg>