<?xml version="1.0" encoding="utf-8"?>
<svg version="1.1" xmlns:xlink="http://www.w3.org/1999/xlink" width="18px" height="18px" xmlns="http://www.w3.org/2000/svg">
  <defs>
    <pattern id="BGPattern" patternUnits="userSpaceOnUse" alignment="0 0" imageRepeat="None" />
    <mask fill="white" id="Clip124">
      <path d="M 17.822284754192538 11.36699999999999  L 15.870513238455032 9.877499999999998  C 15.907513646336383 9.589499999999987  15.935263952247283 9.296999999999997  15.935263952247283 9  C 15.935263952247283 8.703000000000003  15.907513646336383 8.410500000000013  15.870513238455032 8.122500000000002  L 17.826909805177706 6.63300000000001  C 18.002661742613782 6.4979999999999905  18.053537303450526 6.2549999999999955  17.93791102882153 6.056999999999988  L 16.087890634757628 2.9385000000000048  C 15.972264360128634 2.7450000000000045  15.731761708900308 2.6639999999999873  15.52363441456805 2.7450000000000045  L 13.220359023958395 3.649499999999989  C 12.743978772487026 3.294000000000011  12.221348011163855 2.992500000000007  11.657091790974391 2.7630000000000052  L 11.31021296708741 0.3779999999999859  C 11.268587508221003 0.16650000000001342  11.078960417829421 0  10.847707868571433 0  L 7.147667080443398 0  C 6.91641453118541 0  6.726787440793942 0.16650000000001342  6.689787032912591 0.3779999999999859  L 6.342908209025609 2.7630000000000052  C 5.778651988836145 2.992500000000007  5.256021227512974 3.289500000000004  4.779640976041605 3.649499999999989  L 2.4763655854319495 2.7450000000000045  C 2.268238291099692 2.6684999999999945  2.0277356398713664 2.7450000000000045  1.9121093652423724 2.9385000000000048  L 0.062088971178468455 6.056999999999988  C -0.05353730345052554 6.250499999999988  -0.0026617426137818256 6.493500000000012  0.1730901948222936 6.63300000000001  L 2.1248617105597987 8.122500000000002  C 2.087861302678448 8.410500000000013  2.0601109967675484 8.703000000000003  2.0601109967675484 9  C 2.0601109967675484 9.296999999999997  2.087861302678448 9.589499999999987  2.1248617105597987 9.877499999999998  L 0.1730901948222936 11.36699999999999  C -0.0026617426137818256 11.50200000000001  -0.05353730345052554 11.745000000000005  0.062088971178468455 11.943000000000012  L 1.9121093652423724 15.061499999999995  C 2.0277356398713664 15.254999999999995  2.268238291099692 15.336000000000013  2.4763655854319495 15.254999999999995  L 4.779640976041605 14.350500000000011  C 5.256021227512974 14.705999999999989  5.778651988836145 15.007499999999993  6.342908209025609 15.236999999999995  L 6.689787032912591 17.621999999999986  C 6.726787440793942 17.833499999999987  6.91641453118541 18  7.147667080443398 18  L 10.847707868571433 18  C 11.078960417829421 18  11.268587508221003 17.833500000000015  11.30558791610224 17.621999999999986  L 11.652466739989222 15.236999999999995  C 12.216722960178686 15.007499999999993  12.739353721501857 14.710499999999996  13.21573397297334 14.350500000000011  L 15.519009363582882 15.254999999999995  C 15.727136657915139 15.331500000000005  15.967639309143465 15.254999999999995  16.08326558377246 15.061499999999995  L 17.933285977836363 11.943000000000012  C 18.04891225246547 11.749500000000012  17.998036691628613 11.506499999999988  17.822284754192538 11.36699999999999  Z M 12.235223164119361 9  C 12.235223164119361 10.741500000000002  10.787582205764352 12.150000000000006  8.997687474507416 12.150000000000006  C 7.207792743250479 12.150000000000006  5.76015178489547 10.741500000000002  5.76015178489547 9  C 5.76015178489547 7.258499999999998  7.207792743250479 5.849999999999994  8.997687474507416 5.849999999999994  C 10.787582205764352 5.849999999999994  12.235223164119361 7.258499999999998  12.235223164119361 9  Z " fill-rule="evenodd" />
    </mask>
  </defs>
  <g transform="matrix(1 0 0 1 -1688 -23 )">
    <path d="M 17.822284754192538 11.36699999999999  L 15.870513238455032 9.877499999999998  C 15.907513646336383 9.589499999999987  15.935263952247283 9.296999999999997  15.935263952247283 9  C 15.935263952247283 8.703000000000003  15.907513646336383 8.410500000000013  15.870513238455032 8.122500000000002  L 17.826909805177706 6.63300000000001  C 18.002661742613782 6.4979999999999905  18.053537303450526 6.2549999999999955  17.93791102882153 6.056999999999988  L 16.087890634757628 2.9385000000000048  C 15.972264360128634 2.7450000000000045  15.731761708900308 2.6639999999999873  15.52363441456805 2.7450000000000045  L 13.220359023958395 3.649499999999989  C 12.743978772487026 3.294000000000011  12.221348011163855 2.992500000000007  11.657091790974391 2.7630000000000052  L 11.31021296708741 0.3779999999999859  C 11.268587508221003 0.16650000000001342  11.078960417829421 0  10.847707868571433 0  L 7.147667080443398 0  C 6.91641453118541 0  6.726787440793942 0.16650000000001342  6.689787032912591 0.3779999999999859  L 6.342908209025609 2.7630000000000052  C 5.778651988836145 2.992500000000007  5.256021227512974 3.289500000000004  4.779640976041605 3.649499999999989  L 2.4763655854319495 2.7450000000000045  C 2.268238291099692 2.6684999999999945  2.0277356398713664 2.7450000000000045  1.9121093652423724 2.9385000000000048  L 0.062088971178468455 6.056999999999988  C -0.05353730345052554 6.250499999999988  -0.0026617426137818256 6.493500000000012  0.1730901948222936 6.63300000000001  L 2.1248617105597987 8.122500000000002  C 2.087861302678448 8.410500000000013  2.0601109967675484 8.703000000000003  2.0601109967675484 9  C 2.0601109967675484 9.296999999999997  2.087861302678448 9.589499999999987  2.1248617105597987 9.877499999999998  L 0.1730901948222936 11.36699999999999  C -0.0026617426137818256 11.50200000000001  -0.05353730345052554 11.745000000000005  0.062088971178468455 11.943000000000012  L 1.9121093652423724 15.061499999999995  C 2.0277356398713664 15.254999999999995  2.268238291099692 15.336000000000013  2.4763655854319495 15.254999999999995  L 4.779640976041605 14.350500000000011  C 5.256021227512974 14.705999999999989  5.778651988836145 15.007499999999993  6.342908209025609 15.236999999999995  L 6.689787032912591 17.621999999999986  C 6.726787440793942 17.833499999999987  6.91641453118541 18  7.147667080443398 18  L 10.847707868571433 18  C 11.078960417829421 18  11.268587508221003 17.833500000000015  11.30558791610224 17.621999999999986  L 11.652466739989222 15.236999999999995  C 12.216722960178686 15.007499999999993  12.739353721501857 14.710499999999996  13.21573397297334 14.350500000000011  L 15.519009363582882 15.254999999999995  C 15.727136657915139 15.331500000000005  15.967639309143465 15.254999999999995  16.08326558377246 15.061499999999995  L 17.933285977836363 11.943000000000012  C 18.04891225246547 11.749500000000012  17.998036691628613 11.506499999999988  17.822284754192538 11.36699999999999  Z M 12.235223164119361 9  C 12.235223164119361 10.741500000000002  10.787582205764352 12.150000000000006  8.997687474507416 12.150000000000006  C 7.207792743250479 12.150000000000006  5.76015178489547 10.741500000000002  5.76015178489547 9  C 5.76015178489547 7.258499999999998  7.207792743250479 5.849999999999994  8.997687474507416 5.849999999999994  C 10.787582205764352 5.849999999999994  12.235223164119361 7.258499999999998  12.235223164119361 9  Z " fill-rule="nonzero" fill="rgba(102, 110, 232, 0.8980392156862745)" stroke="none" transform="matrix(1 0 0 1 1688 23 )" class="fill" />
    <path d="M 17.822284754192538 11.36699999999999  L 15.870513238455032 9.877499999999998  C 15.907513646336383 9.589499999999987  15.935263952247283 9.296999999999997  15.935263952247283 9  C 15.935263952247283 8.703000000000003  15.907513646336383 8.410500000000013  15.870513238455032 8.122500000000002  L 17.826909805177706 6.63300000000001  C 18.002661742613782 6.4979999999999905  18.053537303450526 6.2549999999999955  17.93791102882153 6.056999999999988  L 16.087890634757628 2.9385000000000048  C 15.972264360128634 2.7450000000000045  15.731761708900308 2.6639999999999873  15.52363441456805 2.7450000000000045  L 13.220359023958395 3.649499999999989  C 12.743978772487026 3.294000000000011  12.221348011163855 2.992500000000007  11.657091790974391 2.7630000000000052  L 11.31021296708741 0.3779999999999859  C 11.268587508221003 0.16650000000001342  11.078960417829421 0  10.847707868571433 0  L 7.147667080443398 0  C 6.91641453118541 0  6.726787440793942 0.16650000000001342  6.689787032912591 0.3779999999999859  L 6.342908209025609 2.7630000000000052  C 5.778651988836145 2.992500000000007  5.256021227512974 3.289500000000004  4.779640976041605 3.649499999999989  L 2.4763655854319495 2.7450000000000045  C 2.268238291099692 2.6684999999999945  2.0277356398713664 2.7450000000000045  1.9121093652423724 2.9385000000000048  L 0.062088971178468455 6.056999999999988  C -0.05353730345052554 6.250499999999988  -0.0026617426137818256 6.493500000000012  0.1730901948222936 6.63300000000001  L 2.1248617105597987 8.122500000000002  C 2.087861302678448 8.410500000000013  2.0601109967675484 8.703000000000003  2.0601109967675484 9  C 2.0601109967675484 9.296999999999997  2.087861302678448 9.589499999999987  2.1248617105597987 9.877499999999998  L 0.1730901948222936 11.36699999999999  C -0.0026617426137818256 11.50200000000001  -0.05353730345052554 11.745000000000005  0.062088971178468455 11.943000000000012  L 1.9121093652423724 15.061499999999995  C 2.0277356398713664 15.254999999999995  2.268238291099692 15.336000000000013  2.4763655854319495 15.254999999999995  L 4.779640976041605 14.350500000000011  C 5.256021227512974 14.705999999999989  5.778651988836145 15.007499999999993  6.342908209025609 15.236999999999995  L 6.689787032912591 17.621999999999986  C 6.726787440793942 17.833499999999987  6.91641453118541 18  7.147667080443398 18  L 10.847707868571433 18  C 11.078960417829421 18  11.268587508221003 17.833500000000015  11.30558791610224 17.621999999999986  L 11.652466739989222 15.236999999999995  C 12.216722960178686 15.007499999999993  12.739353721501857 14.710499999999996  13.21573397297334 14.350500000000011  L 15.519009363582882 15.254999999999995  C 15.727136657915139 15.331500000000005  15.967639309143465 15.254999999999995  16.08326558377246 15.061499999999995  L 17.933285977836363 11.943000000000012  C 18.04891225246547 11.749500000000012  17.998036691628613 11.506499999999988  17.822284754192538 11.36699999999999  Z " stroke-width="0" stroke-dasharray="0" stroke="rgba(255, 255, 255, 0)" fill="none" transform="matrix(1 0 0 1 1688 23 )" class="stroke" mask="url(#Clip124)" />
    <path d="M 12.235223164119361 9  C 12.235223164119361 10.741500000000002  10.787582205764352 12.150000000000006  8.997687474507416 12.150000000000006  C 7.207792743250479 12.150000000000006  5.76015178489547 10.741500000000002  5.76015178489547 9  C 5.76015178489547 7.258499999999998  7.207792743250479 5.849999999999994  8.997687474507416 5.849999999999994  C 10.787582205764352 5.849999999999994  12.235223164119361 7.258499999999998  12.235223164119361 9  Z " stroke-width="0" stroke-dasharray="0" stroke="rgba(255, 255, 255, 0)" fill="none" transform="matrix(1 0 0 1 1688 23 )" class="stroke" mask="url(#Clip124)" />
  </g>
</svg>