<?xml version="1.0" encoding="utf-8"?>
<svg version="1.1" xmlns:xlink="http://www.w3.org/1999/xlink" width="1906px" height="460px" xmlns="http://www.w3.org/2000/svg">
  <defs>
    <pattern id="BGPattern" patternUnits="userSpaceOnUse" alignment="0 0" imageRepeat="None" />
    <mask fill="white" id="Clip125">
      <path d="M 0 460  L 0 0  L 1906 0  L 1906 460  L 0 460  Z " fill-rule="evenodd" />
    </mask>
  </defs>
  <g transform="matrix(1 0 0 1 -14 -565 )">
    <path d="M 0 460  L 0 0  L 1906 0  L 1906 460  L 0 460  Z " fill-rule="nonzero" fill="rgba(242, 242, 242, 1)" stroke="none" transform="matrix(1 0 0 1 14 565 )" class="fill" />
    <path d="M 0 460  L 0 0  L 1906 0  L 1906 460  L 0 460  Z " stroke-width="2" stroke-dasharray="0" stroke="rgba(121, 121, 121, 1)" fill="none" transform="matrix(1 0 0 1 14 565 )" class="stroke" mask="url(#Clip125)" />
    <path d="M 1903.9860826306906 0.4860451153632405  L 2.013917369309427 459.51395488463675  M 2.013917369309427 0.4860451153632405  L 1903.9860826306906 459.51395488463675  " stroke-width="1" stroke-dasharray="0" stroke="rgba(121, 121, 121, 1)" fill="none" transform="matrix(1 0 0 1 14 565 )" class="stroke" />
  </g>
</svg>