<?xml version="1.0" encoding="utf-8"?>
<svg version="1.1" xmlns:xlink="http://www.w3.org/1999/xlink" width="18px" height="18px" xmlns="http://www.w3.org/2000/svg">
  <defs>
    <pattern id="BGPattern" patternUnits="userSpaceOnUse" alignment="0 0" imageRepeat="None" />
    <mask fill="white" id="Clip120">
      <path d="M 0 7.714285714285751  C 0 3.456000000000003  3.4560000000000173 0  7.714285714285666 0  C 11.972571428571428 0  15.428571428571445 3.456000000000003  15.428571428571445 7.714285714285751  C 15.428571428571445 11.972571428571435  11.972571428571428 15.428571428571438  7.714285714285666 15.428571428571438  C 3.4560000000000173 15.428571428571438  0 11.972571428571435  0 7.714285714285751  Z M 1.7142857142857792 7.714285714285751  C 1.7142857142857792 11.028857142857156  4.398857142857196 13.71428571428573  7.714285714285666 13.71428571428573  C 11.028857142857078 13.71428571428573  13.71428571428578 11.028857142857156  13.71428571428578 7.714285714285751  C 13.71428571428578 4.398857142857111  11.028857142857078 1.7142857142857082  7.714285714285666 1.7142857142857082  C 4.398857142857196 1.7142857142857082  1.7142857142857792 4.398857142857111  1.7142857142857792 7.714285714285751  Z M 13.775142857142896 14.987142857142857  L 14.987142857142885 13.775142857142846  L 17.412000000000035 16.199142857142867  L 16.199142857142874 17.411999999999985  L 13.775142857142896 14.987142857142857  Z " fill-rule="evenodd" />
    </mask>
  </defs>
  <g transform="matrix(1 0 0 1 -1593 -23 )">
    <path d="M 0 7.714285714285751  C 0 3.456000000000003  3.4560000000000173 0  7.714285714285666 0  C 11.972571428571428 0  15.428571428571445 3.456000000000003  15.428571428571445 7.714285714285751  C 15.428571428571445 11.972571428571435  11.972571428571428 15.428571428571438  7.714285714285666 15.428571428571438  C 3.4560000000000173 15.428571428571438  0 11.972571428571435  0 7.714285714285751  Z M 1.7142857142857792 7.714285714285751  C 1.7142857142857792 11.028857142857156  4.398857142857196 13.71428571428573  7.714285714285666 13.71428571428573  C 11.028857142857078 13.71428571428573  13.71428571428578 11.028857142857156  13.71428571428578 7.714285714285751  C 13.71428571428578 4.398857142857111  11.028857142857078 1.7142857142857082  7.714285714285666 1.7142857142857082  C 4.398857142857196 1.7142857142857082  1.7142857142857792 4.398857142857111  1.7142857142857792 7.714285714285751  Z M 13.775142857142896 14.987142857142857  L 14.987142857142885 13.775142857142846  L 17.412000000000035 16.199142857142867  L 16.199142857142874 17.411999999999985  L 13.775142857142896 14.987142857142857  Z " fill-rule="nonzero" fill="rgba(102, 110, 232, 1)" stroke="none" transform="matrix(1 0 0 1 1593 23 )" class="fill" />
    <path d="M 0 7.714285714285751  C 0 3.456000000000003  3.4560000000000173 0  7.714285714285666 0  C 11.972571428571428 0  15.428571428571445 3.456000000000003  15.428571428571445 7.714285714285751  C 15.428571428571445 11.972571428571435  11.972571428571428 15.428571428571438  7.714285714285666 15.428571428571438  C 3.4560000000000173 15.428571428571438  0 11.972571428571435  0 7.714285714285751  Z " stroke-width="0" stroke-dasharray="0" stroke="rgba(255, 255, 255, 0)" fill="none" transform="matrix(1 0 0 1 1593 23 )" class="stroke" mask="url(#Clip120)" />
    <path d="M 1.7142857142857792 7.714285714285751  C 1.7142857142857792 11.028857142857156  4.398857142857196 13.71428571428573  7.714285714285666 13.71428571428573  C 11.028857142857078 13.71428571428573  13.71428571428578 11.028857142857156  13.71428571428578 7.714285714285751  C 13.71428571428578 4.398857142857111  11.028857142857078 1.7142857142857082  7.714285714285666 1.7142857142857082  C 4.398857142857196 1.7142857142857082  1.7142857142857792 4.398857142857111  1.7142857142857792 7.714285714285751  Z " stroke-width="0" stroke-dasharray="0" stroke="rgba(255, 255, 255, 0)" fill="none" transform="matrix(1 0 0 1 1593 23 )" class="stroke" mask="url(#Clip120)" />
    <path d="M 13.775142857142896 14.987142857142857  L 14.987142857142885 13.775142857142846  L 17.412000000000035 16.199142857142867  L 16.199142857142874 17.411999999999985  L 13.775142857142896 14.987142857142857  Z " stroke-width="0" stroke-dasharray="0" stroke="rgba(255, 255, 255, 0)" fill="none" transform="matrix(1 0 0 1 1593 23 )" class="stroke" mask="url(#Clip120)" />
  </g>
</svg>