<?xml version="1.0" encoding="utf-8"?>
<svg version="1.1" xmlns:xlink="http://www.w3.org/1999/xlink" width="18px" height="22px" xmlns="http://www.w3.org/2000/svg">
  <defs>
    <pattern id="BGPattern" patternUnits="userSpaceOnUse" alignment="0 0" imageRepeat="None" />
    <mask fill="white" id="Clip121">
      <path d="M 6.525314685314697 19.032167832167808  C 6.525314685314697 20.23391328671331  7.498674125874004 21.207272727272752  8.70041958041952 21.207272727272752  C 9.90216503496515 21.207272727272752  10.875524475524458 20.23391328671331  10.875524475524458 19.032167832167808  L 6.525314685314697 19.032167832167808  Z M 17.400839160839155 16.857062937062935  L 15.225734265734332 14.681958041958005  L 15.225734265734332 9.244195804195762  C 15.225734265734332 5.899972027972041  13.447586013986097 3.1103999999999843  10.331748251748309 2.3708643356643435  L 10.331748251748309 1.631328671328653  C 10.331748251748309 0.7286601398601107  9.603088111888155 0  8.70041958041952 0  C 7.797751048951 0  7.069090909090846 0.7286601398601107  7.069090909090846 1.631328671328653  L 7.069090909090846 2.3708643356643435  C 3.9532531468531715 3.1103999999999843  2.1751048951048233 5.899972027972041  2.1751048951048233 9.244195804195762  L 2.1751048951048233 14.681958041958005  L 0 16.857062937062935  L 0 18  L 17.400839160839155 18  L 17.400839160839155 16.857062937062935  Z M 13.050629370629395 9.244195804195762  L 13.050629370629395 15.769510489510509  L 4.35020979020976 15.769510489510509  L 4.35020979020976 9.244195804195762  C 4.35020979020976 6.54162797202796  5.997851748251833 4.350209790209803  8.70041958041952 4.350209790209803  C 11.402987412587436 4.350209790209803  13.050629370629395 6.54162797202796  13.050629370629395 9.244195804195762  Z " fill-rule="evenodd" />
    </mask>
  </defs>
  <g transform="matrix(1 0 0 1 -1651 -21 )">
    <path d="M 6.525314685314697 19.032167832167808  C 6.525314685314697 20.23391328671331  7.498674125874004 21.207272727272752  8.70041958041952 21.207272727272752  C 9.90216503496515 21.207272727272752  10.875524475524458 20.23391328671331  10.875524475524458 19.032167832167808  L 6.525314685314697 19.032167832167808  Z M 17.400839160839155 16.857062937062935  L 15.225734265734332 14.681958041958005  L 15.225734265734332 9.244195804195762  C 15.225734265734332 5.899972027972041  13.447586013986097 3.1103999999999843  10.331748251748309 2.3708643356643435  L 10.331748251748309 1.631328671328653  C 10.331748251748309 0.7286601398601107  9.603088111888155 0  8.70041958041952 0  C 7.797751048951 0  7.069090909090846 0.7286601398601107  7.069090909090846 1.631328671328653  L 7.069090909090846 2.3708643356643435  C 3.9532531468531715 3.1103999999999843  2.1751048951048233 5.899972027972041  2.1751048951048233 9.244195804195762  L 2.1751048951048233 14.681958041958005  L 0 16.857062937062935  L 0 18  L 17.400839160839155 18  L 17.400839160839155 16.857062937062935  Z M 13.050629370629395 9.244195804195762  L 13.050629370629395 15.769510489510509  L 4.35020979020976 15.769510489510509  L 4.35020979020976 9.244195804195762  C 4.35020979020976 6.54162797202796  5.997851748251833 4.350209790209803  8.70041958041952 4.350209790209803  C 11.402987412587436 4.350209790209803  13.050629370629395 6.54162797202796  13.050629370629395 9.244195804195762  Z " fill-rule="nonzero" fill="rgba(102, 110, 232, 0.8980392156862745)" stroke="none" transform="matrix(1 0 0 1 1651 21 )" class="fill" />
    <path d="M 6.525314685314697 19.032167832167808  C 6.525314685314697 20.23391328671331  7.498674125874004 21.207272727272752  8.70041958041952 21.207272727272752  C 9.90216503496515 21.207272727272752  10.875524475524458 20.23391328671331  10.875524475524458 19.032167832167808  L 6.525314685314697 19.032167832167808  Z " stroke-width="0" stroke-dasharray="0" stroke="rgba(255, 255, 255, 0)" fill="none" transform="matrix(1 0 0 1 1651 21 )" class="stroke" mask="url(#Clip121)" />
    <path d="M 17.400839160839155 16.857062937062935  L 15.225734265734332 14.681958041958005  L 15.225734265734332 9.244195804195762  C 15.225734265734332 5.899972027972041  13.447586013986097 3.1103999999999843  10.331748251748309 2.3708643356643435  L 10.331748251748309 1.631328671328653  C 10.331748251748309 0.7286601398601107  9.603088111888155 0  8.70041958041952 0  C 7.797751048951 0  7.069090909090846 0.7286601398601107  7.069090909090846 1.631328671328653  L 7.069090909090846 2.3708643356643435  C 3.9532531468531715 3.1103999999999843  2.1751048951048233 5.899972027972041  2.1751048951048233 9.244195804195762  L 2.1751048951048233 14.681958041958005  L 0 16.857062937062935  L 0 18  L 17.400839160839155 18  L 17.400839160839155 16.857062937062935  Z " stroke-width="0" stroke-dasharray="0" stroke="rgba(255, 255, 255, 0)" fill="none" transform="matrix(1 0 0 1 1651 21 )" class="stroke" mask="url(#Clip121)" />
    <path d="M 13.050629370629395 9.244195804195762  L 13.050629370629395 15.769510489510509  L 4.35020979020976 15.769510489510509  L 4.35020979020976 9.244195804195762  C 4.35020979020976 6.54162797202796  5.997851748251833 4.350209790209803  8.70041958041952 4.350209790209803  C 11.402987412587436 4.350209790209803  13.050629370629395 6.54162797202796  13.050629370629395 9.244195804195762  Z " stroke-width="0" stroke-dasharray="0" stroke="rgba(255, 255, 255, 0)" fill="none" transform="matrix(1 0 0 1 1651 21 )" class="stroke" mask="url(#Clip121)" />
  </g>
</svg>