<?xml version="1.0" encoding="utf-8"?>
<svg version="1.1" xmlns:xlink="http://www.w3.org/1999/xlink" width="15px" height="11px" xmlns="http://www.w3.org/2000/svg">
  <defs>
    <pattern id="BGPattern" patternUnits="userSpaceOnUse" alignment="0 0" imageRepeat="None" />
    <mask fill="white" id="Clip307">
      <path d="M 15 10.3125  C 15 10.69219576550867  14.664213562373094 11  14.25 11  L 0.75 11  C 0.3357864376269051 11  0 10.69219576550867  0 10.3125  L 0 4.8125  C 0 4.432804234491329  0.3357864376269051 4.125  0.75 4.125  L 2.25 4.125  C 2.664213562373095 4.125  3 4.432804234491329  3 4.8125  C 3 5.192195765508671  2.664213562373095 5.5  2.25 5.5  L 1.5 5.5  L 1.5 9.625  L 13.5 9.625  L 13.5 5.5  L 12.75 5.5  C 12.335786437626904 5.5  12 5.192195765508671  12 4.8125  C 12 4.432804234491329  12.335786437626904 4.125  12.75 4.125  L 14.25 4.125  C 14.664213562373094 4.125  15 4.432804234491329  15 4.8125  L 15 10.3125  Z M 9.2175 3.2381250000000006  L 8.25 2.3478124999999994  L 8.25 7.563187499999998  C 8.25 7.9428832655086685  7.914213562373095 8.250687499999998  7.5 8.250687499999998  C 7.085786437626905 8.250687499999998  6.75 7.9428832655086685  6.75 7.563187499999998  L 6.75 2.3450624999999983  L 5.782500000000001 3.231937499999998  C 5.646602724898666 3.3386186575031824  5.4735773297563135 3.3972513021059383  5.294657670429884 3.3972513021059383  C 4.880444108056789 3.3972513021059383  4.544657670429884 3.0894470676146084  4.544657670429884 2.7097513021059383  C 4.544657670429884 2.5457416143900446  4.608620555451072 2.3871350021762217  4.7250000000000005 2.262562499999998  L 6.930000000000001 0.24131249999999815  C 7.048497327645276 0.1141313255651053  7.213592312501159 0.031005956238098653  7.394250000000001 0.007562499999999472  C 7.6282207000102 -0.02421467147379114  7.864822560552328 0.047145858341107405  8.0325 0.2000624999999978  L 10.2825 2.262562499999998  C 10.424028263503192 2.391598740144355  10.50360233807208 2.5670289023040302  10.50360233807208 2.7500079303365967  C 10.50360233807208 3.129703695845267  10.167815900445175 3.4375079303365967  9.75360233807208 3.4375079303365967  C 9.752401553520459 3.4375079303365967  9.751200770700526 3.4375052868834413  9.75 3.4375  C 9.550647761512478 3.4385565216747525  9.359039123103521 3.3668157286554354  9.2175 3.2381250000000006  Z " fill-rule="evenodd" />
    </mask>
  </defs>
  <g transform="matrix(1 0 0 1 -939 -1386 )">
    <path d="M 15 10.3125  C 15 10.69219576550867  14.664213562373094 11  14.25 11  L 0.75 11  C 0.3357864376269051 11  0 10.69219576550867  0 10.3125  L 0 4.8125  C 0 4.432804234491329  0.3357864376269051 4.125  0.75 4.125  L 2.25 4.125  C 2.664213562373095 4.125  3 4.432804234491329  3 4.8125  C 3 5.192195765508671  2.664213562373095 5.5  2.25 5.5  L 1.5 5.5  L 1.5 9.625  L 13.5 9.625  L 13.5 5.5  L 12.75 5.5  C 12.335786437626904 5.5  12 5.192195765508671  12 4.8125  C 12 4.432804234491329  12.335786437626904 4.125  12.75 4.125  L 14.25 4.125  C 14.664213562373094 4.125  15 4.432804234491329  15 4.8125  L 15 10.3125  Z M 9.2175 3.2381250000000006  L 8.25 2.3478124999999994  L 8.25 7.563187499999998  C 8.25 7.9428832655086685  7.914213562373095 8.250687499999998  7.5 8.250687499999998  C 7.085786437626905 8.250687499999998  6.75 7.9428832655086685  6.75 7.563187499999998  L 6.75 2.3450624999999983  L 5.782500000000001 3.231937499999998  C 5.646602724898666 3.3386186575031824  5.4735773297563135 3.3972513021059383  5.294657670429884 3.3972513021059383  C 4.880444108056789 3.3972513021059383  4.544657670429884 3.0894470676146084  4.544657670429884 2.7097513021059383  C 4.544657670429884 2.5457416143900446  4.608620555451072 2.3871350021762217  4.7250000000000005 2.262562499999998  L 6.930000000000001 0.24131249999999815  C 7.048497327645276 0.1141313255651053  7.213592312501159 0.031005956238098653  7.394250000000001 0.007562499999999472  C 7.6282207000102 -0.02421467147379114  7.864822560552328 0.047145858341107405  8.0325 0.2000624999999978  L 10.2825 2.262562499999998  C 10.424028263503192 2.391598740144355  10.50360233807208 2.5670289023040302  10.50360233807208 2.7500079303365967  C 10.50360233807208 3.129703695845267  10.167815900445175 3.4375079303365967  9.75360233807208 3.4375079303365967  C 9.752401553520459 3.4375079303365967  9.751200770700526 3.4375052868834413  9.75 3.4375  C 9.550647761512478 3.4385565216747525  9.359039123103521 3.3668157286554354  9.2175 3.2381250000000006  Z " fill-rule="nonzero" fill="rgba(255, 255, 255, 1)" stroke="none" transform="matrix(1 0 0 1 939 1386 )" class="fill" />
    <path d="M 15 10.3125  C 15 10.69219576550867  14.664213562373094 11  14.25 11  L 0.75 11  C 0.3357864376269051 11  0 10.69219576550867  0 10.3125  L 0 4.8125  C 0 4.432804234491329  0.3357864376269051 4.125  0.75 4.125  L 2.25 4.125  C 2.664213562373095 4.125  3 4.432804234491329  3 4.8125  C 3 5.192195765508671  2.664213562373095 5.5  2.25 5.5  L 1.5 5.5  L 1.5 9.625  L 13.5 9.625  L 13.5 5.5  L 12.75 5.5  C 12.335786437626904 5.5  12 5.192195765508671  12 4.8125  C 12 4.432804234491329  12.335786437626904 4.125  12.75 4.125  L 14.25 4.125  C 14.664213562373094 4.125  15 4.432804234491329  15 4.8125  L 15 10.3125  Z " stroke-width="0" stroke-dasharray="0" stroke="rgba(255, 255, 255, 0)" fill="none" transform="matrix(1 0 0 1 939 1386 )" class="stroke" mask="url(#Clip307)" />
    <path d="M 9.2175 3.2381250000000006  L 8.25 2.3478124999999994  L 8.25 7.563187499999998  C 8.25 7.9428832655086685  7.914213562373095 8.250687499999998  7.5 8.250687499999998  C 7.085786437626905 8.250687499999998  6.75 7.9428832655086685  6.75 7.563187499999998  L 6.75 2.3450624999999983  L 5.782500000000001 3.231937499999998  C 5.646602724898666 3.3386186575031824  5.4735773297563135 3.3972513021059383  5.294657670429884 3.3972513021059383  C 4.880444108056789 3.3972513021059383  4.544657670429884 3.0894470676146084  4.544657670429884 2.7097513021059383  C 4.544657670429884 2.5457416143900446  4.608620555451072 2.3871350021762217  4.7250000000000005 2.262562499999998  L 6.930000000000001 0.24131249999999815  C 7.048497327645276 0.1141313255651053  7.213592312501159 0.031005956238098653  7.394250000000001 0.007562499999999472  C 7.6282207000102 -0.02421467147379114  7.864822560552328 0.047145858341107405  8.0325 0.2000624999999978  L 10.2825 2.262562499999998  C 10.424028263503192 2.391598740144355  10.50360233807208 2.5670289023040302  10.50360233807208 2.7500079303365967  C 10.50360233807208 3.129703695845267  10.167815900445175 3.4375079303365967  9.75360233807208 3.4375079303365967  C 9.752401553520459 3.4375079303365967  9.751200770700526 3.4375052868834413  9.75 3.4375  C 9.550647761512478 3.4385565216747525  9.359039123103521 3.3668157286554354  9.2175 3.2381250000000006  Z " stroke-width="0" stroke-dasharray="0" stroke="rgba(255, 255, 255, 0)" fill="none" transform="matrix(1 0 0 1 939 1386 )" class="stroke" mask="url(#Clip307)" />
  </g>
</svg>