<?xml version="1.0" encoding="utf-8"?>
<svg version="1.1" xmlns:xlink="http://www.w3.org/1999/xlink" width="6px" height="12px" xmlns="http://www.w3.org/2000/svg">
  <defs>
    <pattern id="BGPattern" patternUnits="userSpaceOnUse" alignment="0 0" imageRepeat="None" />
    <mask fill="white" id="Clip232">
      <path d="M 5.896907216494845 0.7214428857715425  C 5.965635738831616 0.8016032064128242  6 0.893787575150299  6 0.9979959919839683  C 6 1.1022044088176348  5.965635738831616 1.1943887775551096  5.896907216494845 1.2745490981963927  L 1.8453608247422681 6  L 5.896907216494845 10.725450901803608  C 5.965635738831616 10.805611222444888  6 10.897795591182364  6 11.002004008016032  C 6 11.1062124248497  5.965635738831616 11.198396793587175  5.896907216494845 11.278557114228457  L 5.381443298969073 11.879759519038076  C 5.312714776632303 11.959919839679358  5.233676975945018 12  5.144329896907216 12  C 5.0549828178694165 12  4.975945017182132 11.959919839679358  4.907216494845361 11.879759519038076  L 0.10309278350515465 6.2765531062124245  C 0.0343642611683849 6.196392785571142  0 6.104208416833666  0 6  C 0 5.895791583166332  0.0343642611683849 5.803607214428857  0.10309278350515465 5.7234468937875755  L 4.907216494845361 0.12024048096192397  C 4.975945017182132 0.04008016032064088  5.0549828178694165 0  5.144329896907216 0  C 5.233676975945018 0  5.312714776632303 0.04008016032064088  5.381443298969073 0.12024048096192397  L 5.896907216494845 0.7214428857715425  Z " fill-rule="evenodd" />
    </mask>
  </defs>
  <g transform="matrix(1 0 0 1 -1536 -890 )">
    <path d="M 5.896907216494845 0.7214428857715425  C 5.965635738831616 0.8016032064128242  6 0.893787575150299  6 0.9979959919839683  C 6 1.1022044088176348  5.965635738831616 1.1943887775551096  5.896907216494845 1.2745490981963927  L 1.8453608247422681 6  L 5.896907216494845 10.725450901803608  C 5.965635738831616 10.805611222444888  6 10.897795591182364  6 11.002004008016032  C 6 11.1062124248497  5.965635738831616 11.198396793587175  5.896907216494845 11.278557114228457  L 5.381443298969073 11.879759519038076  C 5.312714776632303 11.959919839679358  5.233676975945018 12  5.144329896907216 12  C 5.0549828178694165 12  4.975945017182132 11.959919839679358  4.907216494845361 11.879759519038076  L 0.10309278350515465 6.2765531062124245  C 0.0343642611683849 6.196392785571142  0 6.104208416833666  0 6  C 0 5.895791583166332  0.0343642611683849 5.803607214428857  0.10309278350515465 5.7234468937875755  L 4.907216494845361 0.12024048096192397  C 4.975945017182132 0.04008016032064088  5.0549828178694165 0  5.144329896907216 0  C 5.233676975945018 0  5.312714776632303 0.04008016032064088  5.381443298969073 0.12024048096192397  L 5.896907216494845 0.7214428857715425  Z " fill-rule="nonzero" fill="rgba(170, 169, 176, 1)" stroke="none" transform="matrix(1 0 0 1 1536 890 )" class="fill" />
    <path d="M 5.896907216494845 0.7214428857715425  C 5.965635738831616 0.8016032064128242  6 0.893787575150299  6 0.9979959919839683  C 6 1.1022044088176348  5.965635738831616 1.1943887775551096  5.896907216494845 1.2745490981963927  L 1.8453608247422681 6  L 5.896907216494845 10.725450901803608  C 5.965635738831616 10.805611222444888  6 10.897795591182364  6 11.002004008016032  C 6 11.1062124248497  5.965635738831616 11.198396793587175  5.896907216494845 11.278557114228457  L 5.381443298969073 11.879759519038076  C 5.312714776632303 11.959919839679358  5.233676975945018 12  5.144329896907216 12  C 5.0549828178694165 12  4.975945017182132 11.959919839679358  4.907216494845361 11.879759519038076  L 0.10309278350515465 6.2765531062124245  C 0.0343642611683849 6.196392785571142  0 6.104208416833666  0 6  C 0 5.895791583166332  0.0343642611683849 5.803607214428857  0.10309278350515465 5.7234468937875755  L 4.907216494845361 0.12024048096192397  C 4.975945017182132 0.04008016032064088  5.0549828178694165 0  5.144329896907216 0  C 5.233676975945018 0  5.312714776632303 0.04008016032064088  5.381443298969073 0.12024048096192397  L 5.896907216494845 0.7214428857715425  Z " stroke-width="0" stroke-dasharray="0" stroke="rgba(121, 121, 121, 1)" fill="none" transform="matrix(1 0 0 1 1536 890 )" class="stroke" mask="url(#Clip232)" />
  </g>
</svg>