<?xml version="1.0" encoding="utf-8"?>
<svg version="1.1" xmlns:xlink="http://www.w3.org/1999/xlink" width="12px" height="7px" xmlns="http://www.w3.org/2000/svg">
  <defs>
    <pattern id="BGPattern" patternUnits="userSpaceOnUse" alignment="0 0" imageRepeat="None" />
    <mask fill="white" id="Clip231">
      <path d="M 11.879759519038076 0.7216494845360822  C 11.959919839679358 0.8018327605956451  12 0.8940435280641458  12 0.9982817869415811  C 12 1.102520045819014  11.959919839679358 1.1947308132875132  11.879759519038076 1.2749140893470792  L 6.2765531062124245 6.8797250859106525  C 6.196392785571143 6.959908361970217  6.104208416833668 7  6 7  C 5.895791583166334 7  5.803607214428858 6.959908361970217  5.723446893787575 6.8797250859106525  L 0.12024048096192384 1.2749140893470792  C 0.0400801603206414 1.1947308132875132  0 1.102520045819014  0 0.9982817869415811  C 0 0.8940435280641458  0.0400801603206414 0.8018327605956451  0.12024048096192384 0.7216494845360822  L 0.721442885771543 0.12027491408934743  C 0.8016032064128259 0.04009163802978144  0.8937875751503007 0  0.9979959919839679 0  C 1.1022044088176355 0  1.1943887775551103 0.04009163802978144  1.2745490981963927 0.12027491408934743  L 6 4.847079037800687  L 10.725450901803608 0.12027491408934743  C 10.80561122244489 0.04009163802978144  10.897795591182366 0  11.002004008016032 0  C 11.106212424849701 0  11.198396793587175 0.04009163802978144  11.278557114228457 0.12027491408934743  L 11.879759519038076 0.7216494845360822  Z " fill-rule="evenodd" />
    </mask>
  </defs>
  <g transform="matrix(1 0 0 1 -1482 -893 )">
    <path d="M 11.879759519038076 0.7216494845360822  C 11.959919839679358 0.8018327605956451  12 0.8940435280641458  12 0.9982817869415811  C 12 1.102520045819014  11.959919839679358 1.1947308132875132  11.879759519038076 1.2749140893470792  L 6.2765531062124245 6.8797250859106525  C 6.196392785571143 6.959908361970217  6.104208416833668 7  6 7  C 5.895791583166334 7  5.803607214428858 6.959908361970217  5.723446893787575 6.8797250859106525  L 0.12024048096192384 1.2749140893470792  C 0.0400801603206414 1.1947308132875132  0 1.102520045819014  0 0.9982817869415811  C 0 0.8940435280641458  0.0400801603206414 0.8018327605956451  0.12024048096192384 0.7216494845360822  L 0.721442885771543 0.12027491408934743  C 0.8016032064128259 0.04009163802978144  0.8937875751503007 0  0.9979959919839679 0  C 1.1022044088176355 0  1.1943887775551103 0.04009163802978144  1.2745490981963927 0.12027491408934743  L 6 4.847079037800687  L 10.725450901803608 0.12027491408934743  C 10.80561122244489 0.04009163802978144  10.897795591182366 0  11.002004008016032 0  C 11.106212424849701 0  11.198396793587175 0.04009163802978144  11.278557114228457 0.12027491408934743  L 11.879759519038076 0.7216494845360822  Z " fill-rule="nonzero" fill="rgba(170, 169, 176, 1)" stroke="none" transform="matrix(1 0 0 1 1482 893 )" class="fill" />
    <path d="M 11.879759519038076 0.7216494845360822  C 11.959919839679358 0.8018327605956451  12 0.8940435280641458  12 0.9982817869415811  C 12 1.102520045819014  11.959919839679358 1.1947308132875132  11.879759519038076 1.2749140893470792  L 6.2765531062124245 6.8797250859106525  C 6.196392785571143 6.959908361970217  6.104208416833668 7  6 7  C 5.895791583166334 7  5.803607214428858 6.959908361970217  5.723446893787575 6.8797250859106525  L 0.12024048096192384 1.2749140893470792  C 0.0400801603206414 1.1947308132875132  0 1.102520045819014  0 0.9982817869415811  C 0 0.8940435280641458  0.0400801603206414 0.8018327605956451  0.12024048096192384 0.7216494845360822  L 0.721442885771543 0.12027491408934743  C 0.8016032064128259 0.04009163802978144  0.8937875751503007 0  0.9979959919839679 0  C 1.1022044088176355 0  1.1943887775551103 0.04009163802978144  1.2745490981963927 0.12027491408934743  L 6 4.847079037800687  L 10.725450901803608 0.12027491408934743  C 10.80561122244489 0.04009163802978144  10.897795591182366 0  11.002004008016032 0  C 11.106212424849701 0  11.198396793587175 0.04009163802978144  11.278557114228457 0.12027491408934743  L 11.879759519038076 0.7216494845360822  Z " stroke-width="0" stroke-dasharray="0" stroke="rgba(121, 121, 121, 1)" fill="none" transform="matrix(1 0 0 1 1482 893 )" class="stroke" mask="url(#Clip231)" />
  </g>
</svg>