<?xml version="1.0" encoding="utf-8"?>
<svg version="1.1" xmlns:xlink="http://www.w3.org/1999/xlink" width="16px" height="16px" xmlns="http://www.w3.org/2000/svg">
  <defs>
    <pattern id="BGPattern" patternUnits="userSpaceOnUse" alignment="0 0" imageRepeat="None" />
    <mask fill="white" id="Clip235">
      <path d="M 13.135416666666666 9.135416666666668  C 13.267361111111112 9.003472222222221  13.333333333333334 8.847222222222221  13.333333333333334 8.666666666666668  L 13.333333333333334 7.333333333333334  C 13.333333333333334 7.152777777777777  13.267361111111112 6.996527777777777  13.135416666666666 6.864583333333334  C 13.003472222222223 6.732638888888889  12.847222222222223 6.666666666666666  12.666666666666666 6.666666666666666  L 3.3333333333333335 6.666666666666666  C 3.152777777777778 6.666666666666666  2.996527777777778 6.732638888888889  2.8645833333333335 6.864583333333334  C 2.7326388888888893 6.996527777777777  2.6666666666666665 7.152777777777777  2.6666666666666665 7.333333333333334  L 2.6666666666666665 8.666666666666668  C 2.6666666666666665 8.847222222222221  2.7326388888888893 9.003472222222221  2.8645833333333335 9.135416666666668  C 2.996527777777778 9.26736111111111  3.152777777777778 9.333333333333332  3.3333333333333335 9.333333333333332  L 12.666666666666666 9.333333333333332  C 12.847222222222223 9.333333333333332  13.003472222222223 9.26736111111111  13.135416666666666 9.135416666666668  Z M 15.119791666666666 0.8802083333333339  C 15.706597222222221 1.4670138888888875  16 2.173611111111109  16 3  L 16 13  C 16 13.82638888888889  15.706597222222221 14.53298611111111  15.119791666666666 15.119791666666666  C 14.532986111111112 15.706597222222221  13.826388888888891 16  13 16  L 3 16  C 2.173611111111111 16  1.467013888888889 15.706597222222221  0.8802083333333334 15.119791666666666  C 0.29340277777777773 14.53298611111111  0 13.82638888888889  0 13  L 0 3  C 0 2.173611111111109  0.29340277777777773 1.4670138888888875  0.8802083333333334 0.8802083333333339  C 1.467013888888889 0.2934027777777768  2.173611111111111 0  3 0  L 13 0  C 13.826388888888891 0  14.532986111111112 0.2934027777777768  15.119791666666666 0.8802083333333339  Z " fill-rule="evenodd" />
    </mask>
  </defs>
  <g transform="matrix(1 0 0 1 -19 -63 )">
    <path d="M 13.135416666666666 9.135416666666668  C 13.267361111111112 9.003472222222221  13.333333333333334 8.847222222222221  13.333333333333334 8.666666666666668  L 13.333333333333334 7.333333333333334  C 13.333333333333334 7.152777777777777  13.267361111111112 6.996527777777777  13.135416666666666 6.864583333333334  C 13.003472222222223 6.732638888888889  12.847222222222223 6.666666666666666  12.666666666666666 6.666666666666666  L 3.3333333333333335 6.666666666666666  C 3.152777777777778 6.666666666666666  2.996527777777778 6.732638888888889  2.8645833333333335 6.864583333333334  C 2.7326388888888893 6.996527777777777  2.6666666666666665 7.152777777777777  2.6666666666666665 7.333333333333334  L 2.6666666666666665 8.666666666666668  C 2.6666666666666665 8.847222222222221  2.7326388888888893 9.003472222222221  2.8645833333333335 9.135416666666668  C 2.996527777777778 9.26736111111111  3.152777777777778 9.333333333333332  3.3333333333333335 9.333333333333332  L 12.666666666666666 9.333333333333332  C 12.847222222222223 9.333333333333332  13.003472222222223 9.26736111111111  13.135416666666666 9.135416666666668  Z M 15.119791666666666 0.8802083333333339  C 15.706597222222221 1.4670138888888875  16 2.173611111111109  16 3  L 16 13  C 16 13.82638888888889  15.706597222222221 14.53298611111111  15.119791666666666 15.119791666666666  C 14.532986111111112 15.706597222222221  13.826388888888891 16  13 16  L 3 16  C 2.173611111111111 16  1.467013888888889 15.706597222222221  0.8802083333333334 15.119791666666666  C 0.29340277777777773 14.53298611111111  0 13.82638888888889  0 13  L 0 3  C 0 2.173611111111109  0.29340277777777773 1.4670138888888875  0.8802083333333334 0.8802083333333339  C 1.467013888888889 0.2934027777777768  2.173611111111111 0  3 0  L 13 0  C 13.826388888888891 0  14.532986111111112 0.2934027777777768  15.119791666666666 0.8802083333333339  Z " fill-rule="nonzero" fill="rgba(104, 96, 255, 1)" stroke="none" transform="matrix(1 0 0 1 19 63 )" class="fill" />
    <path d="M 13.135416666666666 9.135416666666668  C 13.267361111111112 9.003472222222221  13.333333333333334 8.847222222222221  13.333333333333334 8.666666666666668  L 13.333333333333334 7.333333333333334  C 13.333333333333334 7.152777777777777  13.267361111111112 6.996527777777777  13.135416666666666 6.864583333333334  C 13.003472222222223 6.732638888888889  12.847222222222223 6.666666666666666  12.666666666666666 6.666666666666666  L 3.3333333333333335 6.666666666666666  C 3.152777777777778 6.666666666666666  2.996527777777778 6.732638888888889  2.8645833333333335 6.864583333333334  C 2.7326388888888893 6.996527777777777  2.6666666666666665 7.152777777777777  2.6666666666666665 7.333333333333334  L 2.6666666666666665 8.666666666666668  C 2.6666666666666665 8.847222222222221  2.7326388888888893 9.003472222222221  2.8645833333333335 9.135416666666668  C 2.996527777777778 9.26736111111111  3.152777777777778 9.333333333333332  3.3333333333333335 9.333333333333332  L 12.666666666666666 9.333333333333332  C 12.847222222222223 9.333333333333332  13.003472222222223 9.26736111111111  13.135416666666666 9.135416666666668  Z " stroke-width="0" stroke-dasharray="0" stroke="rgba(121, 121, 121, 1)" fill="none" transform="matrix(1 0 0 1 19 63 )" class="stroke" mask="url(#Clip235)" />
    <path d="M 15.119791666666666 0.8802083333333339  C 15.706597222222221 1.4670138888888875  16 2.173611111111109  16 3  L 16 13  C 16 13.82638888888889  15.706597222222221 14.53298611111111  15.119791666666666 15.119791666666666  C 14.532986111111112 15.706597222222221  13.826388888888891 16  13 16  L 3 16  C 2.173611111111111 16  1.467013888888889 15.706597222222221  0.8802083333333334 15.119791666666666  C 0.29340277777777773 14.53298611111111  0 13.82638888888889  0 13  L 0 3  C 0 2.173611111111109  0.29340277777777773 1.4670138888888875  0.8802083333333334 0.8802083333333339  C 1.467013888888889 0.2934027777777768  2.173611111111111 0  3 0  L 13 0  C 13.826388888888891 0  14.532986111111112 0.2934027777777768  15.119791666666666 0.8802083333333339  Z " stroke-width="0" stroke-dasharray="0" stroke="rgba(121, 121, 121, 1)" fill="none" transform="matrix(1 0 0 1 19 63 )" class="stroke" mask="url(#Clip235)" />
  </g>
</svg>