<?xml version="1.0" encoding="utf-8"?>
<svg version="1.1" xmlns:xlink="http://www.w3.org/1999/xlink" width="16px" height="16px" xmlns="http://www.w3.org/2000/svg">
  <defs>
    <pattern id="BGPattern" patternUnits="userSpaceOnUse" alignment="0 0" imageRepeat="None" />
    <mask fill="white" id="Clip234">
      <path d="M 6.666666666666667 12.395833333333334  C 6.847222222222222 12.395833333333334  7.003472222222222 12.32986111111111  7.135416666666667 12.197916666666666  L 13.53125 5.802083333333334  C 13.663194444444445 5.6701388888888875  13.729166666666666 5.5138888888888875  13.729166666666666 5.333333333333334  C 13.729166666666666 5.152777777777777  13.663194444444445 4.996527777777777  13.53125 4.864583333333334  L 12.46875 3.802083333333334  C 12.336805555555557 3.6701388888888875  12.180555555555557 3.604166666666666  12 3.604166666666666  C 11.819444444444445 3.604166666666666  11.663194444444445 3.6701388888888875  11.53125 3.802083333333334  L 6.666666666666667 8.666666666666668  L 4.46875 6.46875  C 4.336805555555556 6.336805555555555  4.180555555555556 6.270833333333334  4 6.270833333333334  C 3.8194444444444446 6.270833333333334  3.6631944444444446 6.336805555555555  3.53125 6.46875  L 2.46875 7.53125  C 2.336805555555556 7.663194444444445  2.2708333333333335 7.819444444444445  2.2708333333333335 8  C 2.2708333333333335 8.180555555555554  2.336805555555556 8.336805555555554  2.46875 8.46875  L 6.197916666666667 12.197916666666666  C 6.329861111111112 12.32986111111111  6.486111111111112 12.395833333333334  6.666666666666667 12.395833333333334  Z M 15.119791666666666 0.8802083333333339  C 15.706597222222221 1.4670138888888875  16 2.173611111111109  16 3  L 16 13  C 16 13.82638888888889  15.706597222222221 14.53298611111111  15.119791666666666 15.119791666666666  C 14.532986111111112 15.706597222222221  13.826388888888891 16  13 16  L 3 16  C 2.173611111111111 16  1.467013888888889 15.706597222222221  0.8802083333333334 15.119791666666666  C 0.29340277777777773 14.53298611111111  0 13.82638888888889  0 13  L 0 3  C 0 2.173611111111109  0.29340277777777773 1.4670138888888875  0.8802083333333334 0.8802083333333339  C 1.467013888888889 0.2934027777777768  2.173611111111111 0  3 0  L 13 0  C 13.826388888888891 0  14.532986111111112 0.2934027777777768  15.119791666666666 0.8802083333333339  Z " fill-rule="evenodd" />
    </mask>
  </defs>
  <g transform="matrix(1 0 0 1 -19 -102 )">
    <path d="M 6.666666666666667 12.395833333333334  C 6.847222222222222 12.395833333333334  7.003472222222222 12.32986111111111  7.135416666666667 12.197916666666666  L 13.53125 5.802083333333334  C 13.663194444444445 5.6701388888888875  13.729166666666666 5.5138888888888875  13.729166666666666 5.333333333333334  C 13.729166666666666 5.152777777777777  13.663194444444445 4.996527777777777  13.53125 4.864583333333334  L 12.46875 3.802083333333334  C 12.336805555555557 3.6701388888888875  12.180555555555557 3.604166666666666  12 3.604166666666666  C 11.819444444444445 3.604166666666666  11.663194444444445 3.6701388888888875  11.53125 3.802083333333334  L 6.666666666666667 8.666666666666668  L 4.46875 6.46875  C 4.336805555555556 6.336805555555555  4.180555555555556 6.270833333333334  4 6.270833333333334  C 3.8194444444444446 6.270833333333334  3.6631944444444446 6.336805555555555  3.53125 6.46875  L 2.46875 7.53125  C 2.336805555555556 7.663194444444445  2.2708333333333335 7.819444444444445  2.2708333333333335 8  C 2.2708333333333335 8.180555555555554  2.336805555555556 8.336805555555554  2.46875 8.46875  L 6.197916666666667 12.197916666666666  C 6.329861111111112 12.32986111111111  6.486111111111112 12.395833333333334  6.666666666666667 12.395833333333334  Z M 15.119791666666666 0.8802083333333339  C 15.706597222222221 1.4670138888888875  16 2.173611111111109  16 3  L 16 13  C 16 13.82638888888889  15.706597222222221 14.53298611111111  15.119791666666666 15.119791666666666  C 14.532986111111112 15.706597222222221  13.826388888888891 16  13 16  L 3 16  C 2.173611111111111 16  1.467013888888889 15.706597222222221  0.8802083333333334 15.119791666666666  C 0.29340277777777773 14.53298611111111  0 13.82638888888889  0 13  L 0 3  C 0 2.173611111111109  0.29340277777777773 1.4670138888888875  0.8802083333333334 0.8802083333333339  C 1.467013888888889 0.2934027777777768  2.173611111111111 0  3 0  L 13 0  C 13.826388888888891 0  14.532986111111112 0.2934027777777768  15.119791666666666 0.8802083333333339  Z " fill-rule="nonzero" fill="rgba(104, 96, 255, 1)" stroke="none" transform="matrix(1 0 0 1 19 102 )" class="fill" />
    <path d="M 6.666666666666667 12.395833333333334  C 6.847222222222222 12.395833333333334  7.003472222222222 12.32986111111111  7.135416666666667 12.197916666666666  L 13.53125 5.802083333333334  C 13.663194444444445 5.6701388888888875  13.729166666666666 5.5138888888888875  13.729166666666666 5.333333333333334  C 13.729166666666666 5.152777777777777  13.663194444444445 4.996527777777777  13.53125 4.864583333333334  L 12.46875 3.802083333333334  C 12.336805555555557 3.6701388888888875  12.180555555555557 3.604166666666666  12 3.604166666666666  C 11.819444444444445 3.604166666666666  11.663194444444445 3.6701388888888875  11.53125 3.802083333333334  L 6.666666666666667 8.666666666666668  L 4.46875 6.46875  C 4.336805555555556 6.336805555555555  4.180555555555556 6.270833333333334  4 6.270833333333334  C 3.8194444444444446 6.270833333333334  3.6631944444444446 6.336805555555555  3.53125 6.46875  L 2.46875 7.53125  C 2.336805555555556 7.663194444444445  2.2708333333333335 7.819444444444445  2.2708333333333335 8  C 2.2708333333333335 8.180555555555554  2.336805555555556 8.336805555555554  2.46875 8.46875  L 6.197916666666667 12.197916666666666  C 6.329861111111112 12.32986111111111  6.486111111111112 12.395833333333334  6.666666666666667 12.395833333333334  Z " stroke-width="0" stroke-dasharray="0" stroke="rgba(121, 121, 121, 1)" fill="none" transform="matrix(1 0 0 1 19 102 )" class="stroke" mask="url(#Clip234)" />
    <path d="M 15.119791666666666 0.8802083333333339  C 15.706597222222221 1.4670138888888875  16 2.173611111111109  16 3  L 16 13  C 16 13.82638888888889  15.706597222222221 14.53298611111111  15.119791666666666 15.119791666666666  C 14.532986111111112 15.706597222222221  13.826388888888891 16  13 16  L 3 16  C 2.173611111111111 16  1.467013888888889 15.706597222222221  0.8802083333333334 15.119791666666666  C 0.29340277777777773 14.53298611111111  0 13.82638888888889  0 13  L 0 3  C 0 2.173611111111109  0.29340277777777773 1.4670138888888875  0.8802083333333334 0.8802083333333339  C 1.467013888888889 0.2934027777777768  2.173611111111111 0  3 0  L 13 0  C 13.826388888888891 0  14.532986111111112 0.2934027777777768  15.119791666666666 0.8802083333333339  Z " stroke-width="0" stroke-dasharray="0" stroke="rgba(121, 121, 121, 1)" fill="none" transform="matrix(1 0 0 1 19 102 )" class="stroke" mask="url(#Clip234)" />
  </g>
</svg>