<?xml version="1.0" encoding="utf-8"?>
<svg version="1.1" xmlns:xlink="http://www.w3.org/1999/xlink" width="14px" height="14px" xmlns="http://www.w3.org/2000/svg">
  <defs>
    <pattern id="BGPattern" patternUnits="userSpaceOnUse" alignment="0 0" imageRepeat="None" />
    <mask fill="white" id="Clip212">
      <path d="M 12.767125000000007 13.540450000000002  L 8.911000000000023 9.684499999999998  C 8.01762500000001 10.4082125  6.87925000000002 10.841687500000003  5.639374999999994 10.841687500000003  C 2.7667499999999805 10.841687500000003  0.4375 8.512612500000003  0.4375 5.639637499999999  C 0.4375 2.7665749999999996  2.7667499999999805 0.4375  5.639374999999994 0.4375  C 8.512874999999987 0.4375  10.842125000000017 2.7665749999999996  10.842125000000017 5.639637499999999  C 10.842125000000017 6.879162499999999  10.408124999999984 8.017449999999997  9.684499999999986 8.9110875  L 13.54062500000002 12.767037499999997  L 12.767125000000007 13.540450000000002  Z M 5.639374999999994 9.747937500000003  C 7.9082500000000095 9.747937500000003  9.748375000000017 7.9086000000000025  9.748375000000017 5.639637499999999  C 9.748375000000017 3.3705875  7.9082500000000095 1.53125  5.639374999999994 1.53125  C 3.3704999999999785 1.53125  1.53125 3.3705875  1.53125 5.639637499999999  C 1.53125 7.9086000000000025  3.3704999999999785 9.747937500000003  5.639374999999994 9.747937500000003  Z " fill-rule="evenodd" />
    </mask>
  </defs>
  <g transform="matrix(1 0 0 1 -246 -70 )">
    <path d="M 12.767125000000007 13.540450000000002  L 8.911000000000023 9.684499999999998  C 8.01762500000001 10.4082125  6.87925000000002 10.841687500000003  5.639374999999994 10.841687500000003  C 2.7667499999999805 10.841687500000003  0.4375 8.512612500000003  0.4375 5.639637499999999  C 0.4375 2.7665749999999996  2.7667499999999805 0.4375  5.639374999999994 0.4375  C 8.512874999999987 0.4375  10.842125000000017 2.7665749999999996  10.842125000000017 5.639637499999999  C 10.842125000000017 6.879162499999999  10.408124999999984 8.017449999999997  9.684499999999986 8.9110875  L 13.54062500000002 12.767037499999997  L 12.767125000000007 13.540450000000002  Z M 5.639374999999994 9.747937500000003  C 7.9082500000000095 9.747937500000003  9.748375000000017 7.9086000000000025  9.748375000000017 5.639637499999999  C 9.748375000000017 3.3705875  7.9082500000000095 1.53125  5.639374999999994 1.53125  C 3.3704999999999785 1.53125  1.53125 3.3705875  1.53125 5.639637499999999  C 1.53125 7.9086000000000025  3.3704999999999785 9.747937500000003  5.639374999999994 9.747937500000003  Z " fill-rule="nonzero" fill="rgba(23, 43, 77, 1)" stroke="none" transform="matrix(1 0 0 1 246 70 )" class="fill" />
    <path d="M 12.767125000000007 13.540450000000002  L 8.911000000000023 9.684499999999998  C 8.01762500000001 10.4082125  6.87925000000002 10.841687500000003  5.639374999999994 10.841687500000003  C 2.7667499999999805 10.841687500000003  0.4375 8.512612500000003  0.4375 5.639637499999999  C 0.4375 2.7665749999999996  2.7667499999999805 0.4375  5.639374999999994 0.4375  C 8.512874999999987 0.4375  10.842125000000017 2.7665749999999996  10.842125000000017 5.639637499999999  C 10.842125000000017 6.879162499999999  10.408124999999984 8.017449999999997  9.684499999999986 8.9110875  L 13.54062500000002 12.767037499999997  L 12.767125000000007 13.540450000000002  Z " stroke-width="0" stroke-dasharray="0" stroke="rgba(255, 255, 255, 0)" fill="none" transform="matrix(1 0 0 1 246 70 )" class="stroke" mask="url(#Clip212)" />
    <path d="M 5.639374999999994 9.747937500000003  C 7.9082500000000095 9.747937500000003  9.748375000000017 7.9086000000000025  9.748375000000017 5.639637499999999  C 9.748375000000017 3.3705875  7.9082500000000095 1.53125  5.639374999999994 1.53125  C 3.3704999999999785 1.53125  1.53125 3.3705875  1.53125 5.639637499999999  C 1.53125 7.9086000000000025  3.3704999999999785 9.747937500000003  5.639374999999994 9.747937500000003  Z " stroke-width="0" stroke-dasharray="0" stroke="rgba(255, 255, 255, 0)" fill="none" transform="matrix(1 0 0 1 246 70 )" class="stroke" mask="url(#Clip212)" />
  </g>
</svg>