<?xml version="1.0" encoding="utf-8"?>
<svg version="1.1" xmlns:xlink="http://www.w3.org/1999/xlink" width="16px" height="16px" xmlns="http://www.w3.org/2000/svg">
  <defs>
    <pattern id="BGPattern" patternUnits="userSpaceOnUse" alignment="0 0" imageRepeat="None" />
    <mask fill="white" id="Clip213">
      <path d="M 14.591000000000008 15.474800000000002  L 10.184000000000026 11.067999999999998  C 9.163000000000011 11.8951  7.862000000000023 12.390500000000003  6.444999999999993 12.390500000000003  C 3.1619999999999777 12.390500000000003  0.5 9.728700000000003  0.5 6.4453  C 0.5 3.1617999999999995  3.1619999999999777 0.5  6.444999999999993 0.5  C 9.728999999999985 0.5  12.39100000000002 3.1617999999999995  12.39100000000002 6.4453  C 12.39100000000002 7.861899999999999  11.894999999999982 9.162799999999997  11.067999999999984 10.1841  L 15.475000000000023 14.590899999999998  L 14.591000000000008 15.474800000000002  Z M 6.444999999999993 11.140500000000003  C 9.038000000000011 11.140500000000003  11.14100000000002 9.038400000000003  11.14100000000002 6.4453  C 11.14100000000002 3.8521  9.038000000000011 1.75  6.444999999999993 1.75  C 3.8519999999999754 1.75  1.75 3.8521  1.75 6.4453  C 1.75 9.038400000000003  3.8519999999999754 11.140500000000003  6.444999999999993 11.140500000000003  Z " fill-rule="evenodd" />
    </mask>
  </defs>
  <g transform="matrix(1 0 0 1 -240 -68 )">
    <path d="M 14.591000000000008 15.474800000000002  L 10.184000000000026 11.067999999999998  C 9.163000000000011 11.8951  7.862000000000023 12.390500000000003  6.444999999999993 12.390500000000003  C 3.1619999999999777 12.390500000000003  0.5 9.728700000000003  0.5 6.4453  C 0.5 3.1617999999999995  3.1619999999999777 0.5  6.444999999999993 0.5  C 9.728999999999985 0.5  12.39100000000002 3.1617999999999995  12.39100000000002 6.4453  C 12.39100000000002 7.861899999999999  11.894999999999982 9.162799999999997  11.067999999999984 10.1841  L 15.475000000000023 14.590899999999998  L 14.591000000000008 15.474800000000002  Z M 6.444999999999993 11.140500000000003  C 9.038000000000011 11.140500000000003  11.14100000000002 9.038400000000003  11.14100000000002 6.4453  C 11.14100000000002 3.8521  9.038000000000011 1.75  6.444999999999993 1.75  C 3.8519999999999754 1.75  1.75 3.8521  1.75 6.4453  C 1.75 9.038400000000003  3.8519999999999754 11.140500000000003  6.444999999999993 11.140500000000003  Z " fill-rule="nonzero" fill="rgba(23, 43, 77, 1)" stroke="none" transform="matrix(1 0 0 1 240 68 )" class="fill" />
    <path d="M 14.591000000000008 15.474800000000002  L 10.184000000000026 11.067999999999998  C 9.163000000000011 11.8951  7.862000000000023 12.390500000000003  6.444999999999993 12.390500000000003  C 3.1619999999999777 12.390500000000003  0.5 9.728700000000003  0.5 6.4453  C 0.5 3.1617999999999995  3.1619999999999777 0.5  6.444999999999993 0.5  C 9.728999999999985 0.5  12.39100000000002 3.1617999999999995  12.39100000000002 6.4453  C 12.39100000000002 7.861899999999999  11.894999999999982 9.162799999999997  11.067999999999984 10.1841  L 15.475000000000023 14.590899999999998  L 14.591000000000008 15.474800000000002  Z " stroke-width="0" stroke-dasharray="0" stroke="rgba(255, 255, 255, 0)" fill="none" transform="matrix(1 0 0 1 240 68 )" class="stroke" mask="url(#Clip213)" />
    <path d="M 6.444999999999993 11.140500000000003  C 9.038000000000011 11.140500000000003  11.14100000000002 9.038400000000003  11.14100000000002 6.4453  C 11.14100000000002 3.8521  9.038000000000011 1.75  6.444999999999993 1.75  C 3.8519999999999754 1.75  1.75 3.8521  1.75 6.4453  C 1.75 9.038400000000003  3.8519999999999754 11.140500000000003  6.444999999999993 11.140500000000003  Z " stroke-width="0" stroke-dasharray="0" stroke="rgba(255, 255, 255, 0)" fill="none" transform="matrix(1 0 0 1 240 68 )" class="stroke" mask="url(#Clip213)" />
  </g>
</svg>