<?xml version="1.0" encoding="utf-8"?>
<svg version="1.1" xmlns:xlink="http://www.w3.org/1999/xlink" width="5px" height="4px" xmlns="http://www.w3.org/2000/svg">
  <defs>
    <pattern id="BGPattern" patternUnits="userSpaceOnUse" alignment="0 0" imageRepeat="None" />
    <mask fill="white" id="Clip223">
      <path d="M 0 2  C 0 0.8799999999999999  1.0999999999999999 0  2.5 0  C 3.9000000000000004 0  5 0.8799999999999999  5 2  C 5 3.12  3.9000000000000004 4  2.5 4  C 1.0999999999999999 4  0 3.12  0 2  Z " fill-rule="evenodd" />
    </mask>
  </defs>
  <g transform="matrix(1 0 0 1 -657 -2996 )">
    <path d="M 0 2  C 0 0.8799999999999999  1.0999999999999999 0  2.5 0  C 3.9000000000000004 0  5 0.8799999999999999  5 2  C 5 3.12  3.9000000000000004 4  2.5 4  C 1.0999999999999999 4  0 3.12  0 2  Z " fill-rule="nonzero" fill="rgba(182, 188, 200, 1)" stroke="none" transform="matrix(1 0 0 1 657 2996 )" class="fill" />
    <path d="M 0 2  C 0 0.8799999999999999  1.0999999999999999 0  2.5 0  C 3.9000000000000004 0  5 0.8799999999999999  5 2  C 5 3.12  3.9000000000000004 4  2.5 4  C 1.0999999999999999 4  0 3.12  0 2  Z " stroke-width="0" stroke-dasharray="0" stroke="rgba(121, 121, 121, 1)" fill="none" transform="matrix(1 0 0 1 657 2996 )" class="stroke" mask="url(#Clip223)" />
  </g>
</svg>