<?xml version="1.0" encoding="utf-8"?>
<svg version="1.1" xmlns:xlink="http://www.w3.org/1999/xlink" width="9px" height="10px" xmlns="http://www.w3.org/2000/svg">
  <g transform="matrix(1 0 0 1 -3.5 -2.5 )">
    <path d="M 6.416666666666667 0  C 6.416666666666667 0  2.041666666666667 0  2.041666666666667 0  C 1.5001830061276755 0  0.9808772007624309 0.21071379525320866  0.5979904333750408 0.5857865469796316  C 0.21510366598765063 0.9608592987060546  0 1.469567026410784  0 2  C 0 2.5304329735892157  0.21510366598765063 3.0391407012939453  0.5979904333750408 3.414213453020368  C 0.9808772007624309 3.789286204746791  1.5001830061276755 3.999999999999999  2.041666666666667 4  C 2.041666666666667 4  4.958333333333334 4  4.958333333333334 4  C 5.499816993872325 4.000000011178039  6.019123355547587 4.210713795253208  6.4020101229349775 4.585786546979631  C 6.784896890322368 4.960859298706054  7 5.469567026410784  7 6  C 7 6.530432973589216  6.784896890322368 7.039141246250697  6.4020101229349775 7.41421399797712  C 6.019123355547587 7.7892867497035425  5.499816993872325 7.999999988821962  4.958333333333334 8  C 4.958333333333334 8  0 8  0 8  " stroke-width="1.1666666269302368" stroke-dasharray="0" stroke="rgba(74, 85, 101, 1)" fill="none" transform="matrix(1 0 0 1 4 3 )" class="stroke" />
  </g>
</svg>