<?xml version="1.0" encoding="utf-8"?>
<svg version="1.1" xmlns:xlink="http://www.w3.org/1999/xlink" width="12px" height="12px" xmlns="http://www.w3.org/2000/svg">
  <defs>
    <pattern id="BGPattern" patternUnits="userSpaceOnUse" alignment="0 0" imageRepeat="None" />
    <mask fill="white" id="Clip221">
      <path d="M 6 0  C 9.313708591461182 0  12 2.686291408538818  12 6  C 12 9.313708591461182  9.313708591461182 12  6 12  C 2.686291408538818 12  0 9.313708591461182  0 6  C 0 2.686291408538818  2.686291408538818 0  6 0  Z " fill-rule="evenodd" />
    </mask>
  </defs>
  <g transform="matrix(1 0 0 1 -1 -1 )">
    <path d="M 6 0  C 9.313708591461182 0  12 2.686291408538818  12 6  C 12 9.313708591461182  9.313708591461182 12  6 12  C 2.686291408538818 12  0 9.313708591461182  0 6  C 0 2.686291408538818  2.686291408538818 0  6 0  Z " fill-rule="nonzero" fill="rgba(255, 255, 255, 0)" stroke="none" transform="matrix(1 0 0 1 1 1 )" class="fill" />
    <path d="M 6 0  C 9.313708591461182 0  12 2.686291408538818  12 6  C 12 9.313708591461182  9.313708591461182 12  6 12  C 2.686291408538818 12  0 9.313708591461182  0 6  C 0 2.686291408538818  2.686291408538818 0  6 0  Z " stroke-width="2.3333332538604736" stroke-dasharray="0" stroke="rgba(74, 85, 101, 1)" fill="none" transform="matrix(1 0 0 1 1 1 )" class="stroke" mask="url(#Clip221)" />
  </g>
</svg>