<?xml version="1.0" encoding="utf-8"?>
<svg version="1.1" xmlns:xlink="http://www.w3.org/1999/xlink" width="7px" height="8px" xmlns="http://www.w3.org/2000/svg">
  <g transform="matrix(1 0 0 1 -7.5 -4.5 )">
    <path d="M 3.125 6  C 3.125 6  4.375 6  4.375 6  C 4.540760312229395 6  4.699731981381774 5.936786350607871  4.81694221496582 5.8242645263671875  C 4.934152448549867 5.711742702126504  5 5.559129899740219  5 5.4  C 5 5.4  5 3.210000228881836  5 3.210000228881836  C 4.999747319943708 3.0738376826047897  4.951258907094598 2.9418066412210466  4.862500429153442 2.835599899291992  C 4.862500429153442 2.835599899291992  2.687499523162842 0.22560024261474615  2.687499523162842 0.22560024261474615  C 2.6290463795885444 0.15532819032669068  2.554886629804969 0.09856866896152497  2.47050404548645 0.05951900482177735  C 2.3861214611679316 0.020469340682029727  2.2936752531677485 0.0001281611155718565  2.200000286102295 0  C 2.200000286102295 0  0 0  0 0  " stroke-width="1.1666666269302368" stroke-dasharray="0" stroke="rgba(74, 85, 101, 1)" fill="none" transform="matrix(1 0 0 1 8 5 )" class="stroke" />
  </g>
</svg>