<?xml version="1.0" encoding="utf-8"?>
<svg version="1.1" xmlns:xlink="http://www.w3.org/1999/xlink" width="15px" height="15px" xmlns="http://www.w3.org/2000/svg">
  <g transform="matrix(1 0 0 1 -0.5 -0.5 )">
    <path d="M 13 6.5  C 13 6.5  11.388000297546386 6.5  11.388000297546386 6.5  C 11.103929856419562 6.499392361601349  10.827478753030299 6.591848482191563  10.600928115844725 6.7632287502288815  C 10.37437747865915 6.934609018266201  10.21019864678383 7.175479055941104  10.133500099182129 7.449000024795532  C 10.133500099182129 7.449000024795532  8.605999851226805 12.88299980163574  8.605999851226805 12.88299980163574  C 8.59615500671789 12.916753555275498  8.575627878867088 12.946404398977755  8.547499752044677 12.967500495910643  C 8.519371625222265 12.98859659284353  8.485160159133374 13  8.450000000000001 13  C 8.414839840866625 13  8.380628374777734 12.98859659284353  8.352500247955321 12.967500495910643  C 8.324372121132908 12.946404398977755  8.30384499328211 12.916753555275498  8.294000148773193 12.88299980163574  C 8.294000148773193 12.88299980163574  4.705999851226807 0.11700004339218137  4.705999851226807 0.11700004339218137  C 4.696155006717891 0.08324628975242375  4.67562787886709 0.05359606593847275  4.647499752044677 0.03249996900558472  C 4.619371625222265 0.01140387207269669  4.585160159133374 0  4.55 0  C 4.514839840866625 0  4.480628374777734 0.01140387207269669  4.452500247955322 0.03249996900558472  C 4.424372121132909 0.05359606593847275  4.403844993282109 0.08324628975242375  4.394000148773194 0.11700004339218137  C 4.394000148773194 0.11700004339218137  2.866499900817871 5.550999975204468  2.866499900817871 5.550999975204468  C 2.790102105587721 5.823450377583504  2.626897573471069 6.0635354042053216  2.401661467552185 6.234808683395386  C 2.1764253616333007 6.40608196258545  1.901457767188549 6.499190320994239  1.6184998512268065 6.5  C 1.6184998512268065 6.5  0 6.5  0 6.5  " stroke-width="1.3333333730697632" stroke-dasharray="0" stroke="rgba(16, 24, 40, 1)" fill="none" transform="matrix(1 0 0 1 1 1 )" class="stroke" />
  </g>
</svg>