<?xml version="1.0" encoding="utf-8"?>
<svg version="1.1" xmlns:xlink="http://www.w3.org/1999/xlink" width="5px" height="5px" xmlns="http://www.w3.org/2000/svg">
  <defs>
    <pattern id="BGPattern" patternUnits="userSpaceOnUse" alignment="0 0" imageRepeat="None" />
    <mask fill="white" id="Clip218">
      <path d="M 2.5 0  C 3.880711942911148 0  5 1.119288057088852  5 2.5  C 5 3.880711942911148  3.880711942911148 5  2.5 5  C 1.119288057088852 5  0 3.880711942911148  0 2.5  C 0 1.119288057088852  1.119288057088852 0  2.5 0  Z " fill-rule="evenodd" />
    </mask>
  </defs>
  <g transform="matrix(1 0 0 1 -5 -2 )">
    <path d="M 2.5 0  C 3.880711942911148 0  5 1.119288057088852  5 2.5  C 5 3.880711942911148  3.880711942911148 5  2.5 5  C 1.119288057088852 5  0 3.880711942911148  0 2.5  C 0 1.119288057088852  1.119288057088852 0  2.5 0  Z " fill-rule="nonzero" fill="rgba(255, 255, 255, 0)" stroke="none" transform="matrix(1 0 0 1 5 2 )" class="fill" />
    <path d="M 2.5 0  C 3.880711942911148 0  5 1.119288057088852  5 2.5  C 5 3.880711942911148  3.880711942911148 5  2.5 5  C 1.119288057088852 5  0 3.880711942911148  0 2.5  C 0 1.119288057088852  1.119288057088852 0  2.5 0  Z " stroke-width="2.3333332538604736" stroke-dasharray="0" stroke="rgba(74, 85, 101, 1)" fill="none" transform="matrix(1 0 0 1 5 2 )" class="stroke" mask="url(#Clip218)" />
  </g>
</svg>