<?xml version="1.0" encoding="utf-8"?>
<svg version="1.1" xmlns:xlink="http://www.w3.org/1999/xlink" width="9px" height="12px" xmlns="http://www.w3.org/2000/svg">
  <defs>
    <pattern id="BGPattern" patternUnits="userSpaceOnUse" alignment="0 0" imageRepeat="None" />
    <mask fill="white" id="Clip220">
      <path d="M 9 2.3998676712514504  C 9 2.3998676712514504  9 6.59916374867378  9 6.59916374867378  C 9 9.598661151157131  7.03125 11.098410853589082  4.6912500858306885 11.968265128914691  C 4.568716485053301 12.01254818585753  4.435614871792495 12.010429372247977  4.314375042915344 11.962265996803627  C 1.96875 11.0984107105619  0 9.598661151157131  0 6.59916374867378  C 0 6.59916374867378  0 2.3998676712514504  0 2.3998676712514504  C 0 2.240764430942043  0.05926333274692297 2.0881777682696487  0.1647525429725647 1.975674795092108  C 0.2702417531982064 1.8631718219145676  0.4133157189935446 1.7999681907547798  0.5625 1.7999681907547802  C 1.6875 1.7999681907547798  3.0937498658895493 1.0800887140397484  4.072499871253967 0.16824151512698382  C 4.19166823849082 0.05965897957543238  4.343261294066906 0  4.5 0  C 4.656738705933094 0  4.80833176150918 0.05965897957543238  4.927500128746033 0.16824151512698382  C 5.911875128746033 1.0860877031236278  7.3125 1.7999681907547802  8.4375 1.7999681907547802  C 8.586684281006455 1.7999681907547802  8.729758783243598 1.8631718219145676  8.835247993469238 1.975674795092108  C 8.940737203694878 2.0881777682696487  9 2.240764430942043  9 2.3998676712514504  Z " fill-rule="evenodd" />
    </mask>
  </defs>
  <g transform="matrix(1 0 0 1 -2 -1 )">
    <path d="M 9 2.3998676712514504  C 9 2.3998676712514504  9 6.59916374867378  9 6.59916374867378  C 9 9.598661151157131  7.03125 11.098410853589082  4.6912500858306885 11.968265128914691  C 4.568716485053301 12.01254818585753  4.435614871792495 12.010429372247977  4.314375042915344 11.962265996803627  C 1.96875 11.0984107105619  0 9.598661151157131  0 6.59916374867378  C 0 6.59916374867378  0 2.3998676712514504  0 2.3998676712514504  C 0 2.240764430942043  0.05926333274692297 2.0881777682696487  0.1647525429725647 1.975674795092108  C 0.2702417531982064 1.8631718219145676  0.4133157189935446 1.7999681907547798  0.5625 1.7999681907547802  C 1.6875 1.7999681907547798  3.0937498658895493 1.0800887140397484  4.072499871253967 0.16824151512698382  C 4.19166823849082 0.05965897957543238  4.343261294066906 0  4.5 0  C 4.656738705933094 0  4.80833176150918 0.05965897957543238  4.927500128746033 0.16824151512698382  C 5.911875128746033 1.0860877031236278  7.3125 1.7999681907547802  8.4375 1.7999681907547802  C 8.586684281006455 1.7999681907547802  8.729758783243598 1.8631718219145676  8.835247993469238 1.975674795092108  C 8.940737203694878 2.0881777682696487  9 2.240764430942043  9 2.3998676712514504  Z " fill-rule="nonzero" fill="rgba(255, 255, 255, 0)" stroke="none" transform="matrix(1 0 0 1 2 1 )" class="fill" />
    <path d="M 9 2.3998676712514504  C 9 2.3998676712514504  9 6.59916374867378  9 6.59916374867378  C 9 9.598661151157131  7.03125 11.098410853589082  4.6912500858306885 11.968265128914691  C 4.568716485053301 12.01254818585753  4.435614871792495 12.010429372247977  4.314375042915344 11.962265996803627  C 1.96875 11.0984107105619  0 9.598661151157131  0 6.59916374867378  C 0 6.59916374867378  0 2.3998676712514504  0 2.3998676712514504  C 0 2.240764430942043  0.05926333274692297 2.0881777682696487  0.1647525429725647 1.975674795092108  C 0.2702417531982064 1.8631718219145676  0.4133157189935446 1.7999681907547798  0.5625 1.7999681907547802  C 1.6875 1.7999681907547798  3.0937498658895493 1.0800887140397484  4.072499871253967 0.16824151512698382  C 4.19166823849082 0.05965897957543238  4.343261294066906 0  4.5 0  C 4.656738705933094 0  4.80833176150918 0.05965897957543238  4.927500128746033 0.16824151512698382  C 5.911875128746033 1.0860877031236278  7.3125 1.7999681907547802  8.4375 1.7999681907547802  C 8.586684281006455 1.7999681907547802  8.729758783243598 1.8631718219145676  8.835247993469238 1.975674795092108  C 8.940737203694878 2.0881777682696487  9 2.240764430942043  9 2.3998676712514504  Z " stroke-width="2.3333332538604736" stroke-dasharray="0" stroke="rgba(74, 85, 101, 1)" fill="none" transform="matrix(1 0 0 1 2 1 )" class="stroke" mask="url(#Clip220)" />
  </g>
</svg>