<?xml version="1.0" encoding="utf-8"?>
<svg version="1.1" xmlns:xlink="http://www.w3.org/1999/xlink" width="9px" height="10px" xmlns="http://www.w3.org/2000/svg">
  <g transform="matrix(1 0 0 1 -0.5 -1.5 )">
    <path d="M 7 8  C 7 8  7 1.1428571428571428  7 1.1428571428571428  C 7 0.839752571923392  6.877083458006382 0.5490623371941703  6.658291021982829 0.33473505292619976  C 6.439498585959276 0.12040776865822927  6.142752582828204 0  5.833333333333334 0  C 5.833333333333334 0  1.1666666666666667 0  1.1666666666666667 0  C 0.8572474171717962 0  0.5605011358857155 0.12040776865822927  0.3417086998621623 0.33473505292619976  C 0.12291626383860907 0.5490623371941703  0 0.839752571923392  0 1.1428571428571428  C 0 1.1428571428571428  0 7.428571428571428  0 7.428571428571428  C 0 7.5801237140383035  0.061458131919304534 7.7254692401204785  0.17085434993108115 7.8326328822544635  C 0.28025056794285774 7.9397965243884485  0.4286237085858981 8  0.5833333333333334 8  C 0.5833333333333334 8  1.75 8  1.75 8  " stroke-width="1.1666666269302368" stroke-dasharray="0" stroke="rgba(74, 85, 101, 1)" fill="none" transform="matrix(1 0 0 1 1 2 )" class="stroke" />
  </g>
</svg>