<?xml version="1.0" encoding="utf-8"?>
<svg version="1.1" xmlns:xlink="http://www.w3.org/1999/xlink" width="12px" height="12px" xmlns="http://www.w3.org/2000/svg">
  <defs>
    <pattern id="BGPattern" patternUnits="userSpaceOnUse" alignment="0 0" imageRepeat="None" />
    <mask fill="white" id="Clip222">
      <path d="M 0 1.3333333333333333  C 0 0.5969536304473877  0.5969536304473877 0  1.3333333333333333 0  C 1.3333333333333333 0  10.666666666666666 0  10.666666666666666 0  C 11.403046369552612 0  12 0.5969536304473877  12 1.3333333333333333  C 12 1.3333333333333333  12 10.666666666666666  12 10.666666666666666  C 12 11.403046369552612  11.403046369552612 12  10.666666666666666 12  C 10.666666666666666 12  1.3333333333333333 12  1.3333333333333333 12  C 0.5969536304473877 12  0 11.403046369552612  0 10.666666666666666  C 0 10.666666666666666  0 1.3333333333333333  0 1.3333333333333333  Z " fill-rule="evenodd" />
    </mask>
  </defs>
  <g transform="matrix(1 0 0 1 -2 -2 )">
    <path d="M 0 1.3333333333333333  C 0 0.5969536304473877  0.5969536304473877 0  1.3333333333333333 0  C 1.3333333333333333 0  10.666666666666666 0  10.666666666666666 0  C 11.403046369552612 0  12 0.5969536304473877  12 1.3333333333333333  C 12 1.3333333333333333  12 10.666666666666666  12 10.666666666666666  C 12 11.403046369552612  11.403046369552612 12  10.666666666666666 12  C 10.666666666666666 12  1.3333333333333333 12  1.3333333333333333 12  C 0.5969536304473877 12  0 11.403046369552612  0 10.666666666666666  C 0 10.666666666666666  0 1.3333333333333333  0 1.3333333333333333  Z " fill-rule="nonzero" fill="rgba(255, 255, 255, 0)" stroke="none" transform="matrix(1 0 0 1 2 2 )" class="fill" />
    <path d="M 0 1.3333333333333333  C 0 0.5969536304473877  0.5969536304473877 0  1.3333333333333333 0  C 1.3333333333333333 0  10.666666666666666 0  10.666666666666666 0  C 11.403046369552612 0  12 0.5969536304473877  12 1.3333333333333333  C 12 1.3333333333333333  12 10.666666666666666  12 10.666666666666666  C 12 11.403046369552612  11.403046369552612 12  10.666666666666666 12  C 10.666666666666666 12  1.3333333333333333 12  1.3333333333333333 12  C 0.5969536304473877 12  0 11.403046369552612  0 10.666666666666666  C 0 10.666666666666666  0 1.3333333333333333  0 1.3333333333333333  Z " stroke-width="2.6666667461395264" stroke-dasharray="0" stroke="rgba(16, 24, 40, 1)" fill="none" transform="matrix(1 0 0 1 2 2 )" class="stroke" mask="url(#Clip222)" />
  </g>
</svg>