<?xml version="1.0" encoding="utf-8"?>
<svg version="1.1" xmlns:xlink="http://www.w3.org/1999/xlink" width="9px" height="12px" xmlns="http://www.w3.org/2000/svg">
  <defs>
    <pattern id="BGPattern" patternUnits="userSpaceOnUse" alignment="0 0" imageRepeat="None" />
    <mask fill="white" id="Clip216">
      <path d="M 7.681980729103088 1.405905072552157  C 8.525894410908222 2.306090912619548  8.999999999999998 3.527004865421045  9 4.800059967790201  C 9 7.795897413498037  5.88431241363287 10.91593627811932  4.838062405586243 11.879548284609346  C 4.740594852715731 11.957726650804641  4.621948921121657 11.999999999999998  4.5 12  C 4.378051078878343 11.999999999999998  4.259405147284269 11.957726650804641  4.161937594413757 11.879548284609346  C 3.1156875863671303 10.91593627811932  0 7.795897413498037  0 4.800059967790201  C 0 3.527004865421045  0.4741058573126793 2.306090912619548  1.318019539117813 1.405905072552157  C 2.161933220922947 0.5057192324847655  3.3065257519483566 0  4.5 0  C 5.693474248051643 0  6.838067047297955 0.5057192324847655  7.681980729103088 1.405905072552157  Z " fill-rule="evenodd" />
    </mask>
  </defs>
  <g transform="matrix(1 0 0 1 -2 -1 )">
    <path d="M 7.681980729103088 1.405905072552157  C 8.525894410908222 2.306090912619548  8.999999999999998 3.527004865421045  9 4.800059967790201  C 9 7.795897413498037  5.88431241363287 10.91593627811932  4.838062405586243 11.879548284609346  C 4.740594852715731 11.957726650804641  4.621948921121657 11.999999999999998  4.5 12  C 4.378051078878343 11.999999999999998  4.259405147284269 11.957726650804641  4.161937594413757 11.879548284609346  C 3.1156875863671303 10.91593627811932  0 7.795897413498037  0 4.800059967790201  C 0 3.527004865421045  0.4741058573126793 2.306090912619548  1.318019539117813 1.405905072552157  C 2.161933220922947 0.5057192324847655  3.3065257519483566 0  4.5 0  C 5.693474248051643 0  6.838067047297955 0.5057192324847655  7.681980729103088 1.405905072552157  Z " fill-rule="nonzero" fill="rgba(255, 255, 255, 0)" stroke="none" transform="matrix(1 0 0 1 2 1 )" class="fill" />
    <path d="M 7.681980729103088 1.405905072552157  C 8.525894410908222 2.306090912619548  8.999999999999998 3.527004865421045  9 4.800059967790201  C 9 7.795897413498037  5.88431241363287 10.91593627811932  4.838062405586243 11.879548284609346  C 4.740594852715731 11.957726650804641  4.621948921121657 11.999999999999998  4.5 12  C 4.378051078878343 11.999999999999998  4.259405147284269 11.957726650804641  4.161937594413757 11.879548284609346  C 3.1156875863671303 10.91593627811932  0 7.795897413498037  0 4.800059967790201  C 0 3.527004865421045  0.4741058573126793 2.306090912619548  1.318019539117813 1.405905072552157  C 2.161933220922947 0.5057192324847655  3.3065257519483566 0  4.5 0  C 5.693474248051643 0  6.838067047297955 0.5057192324847655  7.681980729103088 1.405905072552157  Z " stroke-width="2.3333332538604736" stroke-dasharray="0" stroke="rgba(74, 85, 101, 1)" fill="none" transform="matrix(1 0 0 1 2 1 )" class="stroke" mask="url(#Clip216)" />
  </g>
</svg>