<?xml version="1.0" encoding="utf-8"?>
<svg version="1.1" xmlns:xlink="http://www.w3.org/1999/xlink" width="12px" height="13px" xmlns="http://www.w3.org/2000/svg">
  <defs>
    <pattern id="BGPattern" patternUnits="userSpaceOnUse" alignment="0 0" imageRepeat="None" />
    <mask fill="white" id="Clip215">
      <path d="M 0.6666666666666666 10.225263530406034  C 0.6666666666666666 10.225263530406034  5.333333333333333 12.825796743678945  5.333333333333333 12.825796743678945  C 5.536025603612264 12.93991897381961  5.765951116879781 13.000000000000004  6 13.000000000000004  C 6.234048883120219 13.000000000000004  6.463974396387735 12.93991897381961  6.666666666666666 12.825796743678945  C 6.666666666666666 12.825796743678945  11.333333333333332 10.225263530406034  11.333333333333332 10.225263530406034  C 11.535824994246164 10.111254414331038  11.704013387362162 9.947321345533648  11.821025848388672 9.749910097762125  C 11.938038309415182 9.552498849990604  11.999760172 9.328551561675798  12 9.100533213272909  C 12 9.100533213272909  12 3.8994664767193745  12 3.8994664767193745  C 11.999760172 3.671448128316486  11.938038309415182 3.4475002199862455  11.821025848388672 3.250088972214724  C 11.704013387362162 3.052677724443203  11.535824994246164 2.88874496565353  11.333333333333332 2.774735849578533  C 11.333333333333332 2.774735849578533  6.666666666666666 0.17420263630562374  6.666666666666666 0.17420263630562374  C 6.463974396387735 0.06008040616495653  6.234048883120219 0  6 0  C 5.765951116879781 0  5.536025603612264 0.06008040616495653  5.333333333333333 0.17420263630562374  C 5.333333333333333 0.17420263630562374  0.6666666666666666 2.774735849578533  0.6666666666666666 2.774735849578533  C 0.46417500575383497 2.88874496565353  0.29598677158355713 3.052677724443203  0.17897431055704752 3.250088972214724  C 0.06196184953053792 3.4475002199862455  0.00023982800000036755 3.671448128316486  0 3.8994664767193745  C 0 3.8994664767193745  0 9.100533213272909  0 9.100533213272909  C 0.00023982800000036755 9.328551561675798  0.06196184953053792 9.552498849990604  0.17897431055704752 9.749910097762125  C 0.29598677158355713 9.947321345533648  0.46417500575383497 10.111254414331038  0.6666666666666666 10.225263530406034  Z " fill-rule="evenodd" />
    </mask>
  </defs>
  <g transform="matrix(1 0 0 1 -2 -1 )">
    <path d="M 0.6666666666666666 10.225263530406034  C 0.6666666666666666 10.225263530406034  5.333333333333333 12.825796743678945  5.333333333333333 12.825796743678945  C 5.536025603612264 12.93991897381961  5.765951116879781 13.000000000000004  6 13.000000000000004  C 6.234048883120219 13.000000000000004  6.463974396387735 12.93991897381961  6.666666666666666 12.825796743678945  C 6.666666666666666 12.825796743678945  11.333333333333332 10.225263530406034  11.333333333333332 10.225263530406034  C 11.535824994246164 10.111254414331038  11.704013387362162 9.947321345533648  11.821025848388672 9.749910097762125  C 11.938038309415182 9.552498849990604  11.999760172 9.328551561675798  12 9.100533213272909  C 12 9.100533213272909  12 3.8994664767193745  12 3.8994664767193745  C 11.999760172 3.671448128316486  11.938038309415182 3.4475002199862455  11.821025848388672 3.250088972214724  C 11.704013387362162 3.052677724443203  11.535824994246164 2.88874496565353  11.333333333333332 2.774735849578533  C 11.333333333333332 2.774735849578533  6.666666666666666 0.17420263630562374  6.666666666666666 0.17420263630562374  C 6.463974396387735 0.06008040616495653  6.234048883120219 0  6 0  C 5.765951116879781 0  5.536025603612264 0.06008040616495653  5.333333333333333 0.17420263630562374  C 5.333333333333333 0.17420263630562374  0.6666666666666666 2.774735849578533  0.6666666666666666 2.774735849578533  C 0.46417500575383497 2.88874496565353  0.29598677158355713 3.052677724443203  0.17897431055704752 3.250088972214724  C 0.06196184953053792 3.4475002199862455  0.00023982800000036755 3.671448128316486  0 3.8994664767193745  C 0 3.8994664767193745  0 9.100533213272909  0 9.100533213272909  C 0.00023982800000036755 9.328551561675798  0.06196184953053792 9.552498849990604  0.17897431055704752 9.749910097762125  C 0.29598677158355713 9.947321345533648  0.46417500575383497 10.111254414331038  0.6666666666666666 10.225263530406034  Z " fill-rule="nonzero" fill="rgba(255, 255, 255, 0)" stroke="none" transform="matrix(1 0 0 1 2 1 )" class="fill" />
    <path d="M 0.6666666666666666 10.225263530406034  C 0.6666666666666666 10.225263530406034  5.333333333333333 12.825796743678945  5.333333333333333 12.825796743678945  C 5.536025603612264 12.93991897381961  5.765951116879781 13.000000000000004  6 13.000000000000004  C 6.234048883120219 13.000000000000004  6.463974396387735 12.93991897381961  6.666666666666666 12.825796743678945  C 6.666666666666666 12.825796743678945  11.333333333333332 10.225263530406034  11.333333333333332 10.225263530406034  C 11.535824994246164 10.111254414331038  11.704013387362162 9.947321345533648  11.821025848388672 9.749910097762125  C 11.938038309415182 9.552498849990604  11.999760172 9.328551561675798  12 9.100533213272909  C 12 9.100533213272909  12 3.8994664767193745  12 3.8994664767193745  C 11.999760172 3.671448128316486  11.938038309415182 3.4475002199862455  11.821025848388672 3.250088972214724  C 11.704013387362162 3.052677724443203  11.535824994246164 2.88874496565353  11.333333333333332 2.774735849578533  C 11.333333333333332 2.774735849578533  6.666666666666666 0.17420263630562374  6.666666666666666 0.17420263630562374  C 6.463974396387735 0.06008040616495653  6.234048883120219 0  6 0  C 5.765951116879781 0  5.536025603612264 0.06008040616495653  5.333333333333333 0.17420263630562374  C 5.333333333333333 0.17420263630562374  0.6666666666666666 2.774735849578533  0.6666666666666666 2.774735849578533  C 0.46417500575383497 2.88874496565353  0.29598677158355713 3.052677724443203  0.17897431055704752 3.250088972214724  C 0.06196184953053792 3.4475002199862455  0.00023982800000036755 3.671448128316486  0 3.8994664767193745  C 0 3.8994664767193745  0 9.100533213272909  0 9.100533213272909  C 0.00023982800000036755 9.328551561675798  0.06196184953053792 9.552498849990604  0.17897431055704752 9.749910097762125  C 0.29598677158355713 9.947321345533648  0.46417500575383497 10.111254414331038  0.6666666666666666 10.225263530406034  Z " stroke-width="2.6666667461395264" stroke-dasharray="0" stroke="rgba(16, 24, 40, 1)" fill="none" transform="matrix(1 0 0 1 2 1 )" class="stroke" mask="url(#Clip215)" />
  </g>
</svg>