<?xml version="1.0" encoding="utf-8"?>
<svg version="1.1" xmlns:xlink="http://www.w3.org/1999/xlink" width="10px" height="10px" xmlns="http://www.w3.org/2000/svg">
  <defs>
    <pattern id="BGPattern" patternUnits="userSpaceOnUse" alignment="0 0" imageRepeat="None" />
    <mask fill="white" id="Clip308">
      <path d="M 4.992131147540984 4.250360655737705  L 0.9118688524590164 0.1700983606557377  C 0.8140647351731563 0.07563598345300473  0.683403354007463 0.022839714479972305  0.5474298784143985 0.022839714479972305  C 0.257706730962179 0.022839714479972305  0.022839714479972305 0.257706730962179  0.022839714479972305 0.5474298784143985  C 0.022839714479972305 0.683403354007463  0.07563598345300473 0.8140647351731563  0.1700983606557377 0.9118688524590164  L 4.249836065573771 4.992131147540984  L 0.1700983606557377 9.07239344262295  C 0.07161845024808773 9.17080375592077  0.016287158307822083 9.304318562577208  0.016287158307822083 9.443540983606558  C 0.016287158307822083 9.73332283026517  0.25120175989876586 9.968237431856114  0.5409836065573772 9.968237431856114  C 0.6800774882595341 9.968237431856114  0.8134798652039192 9.913007978992077  0.9118688524590164 9.814688524590164  L 4.992131147540984 5.733901639344262  L 9.07239344262295 9.814688524590165  C 9.1708278906552 9.913122972622414  9.30433365219464 9.968422869707002  9.443540983606558 9.968422869707002  C 9.733425244762255 9.968422869707002  9.968422869707002 9.733425244762255  9.968422869707002 9.443540983606558  C 9.968422869707002 9.30433365219464  9.913122972622418 9.1708278906552  9.814688524590164 9.07239344262295  L 5.733901639344262 4.9921311475409835  L 9.814688524590165 0.9118688524590158  C 9.913007978992077 0.8134798652039197  9.968237431856114 0.6800774882595326  9.968237431856114 0.5409836065573769  C 9.968237431856114 0.2512017598987657  9.73332283026517 0.016287158307821972  9.443540983606558 0.016287158307821972  C 9.304318562577208 0.016287158307821972  9.17080375592077 0.07161845024808833  9.07239344262295 0.1700983606557377  L 4.992131147540984 4.249836065573771  Z " fill-rule="evenodd" />
    </mask>
  </defs>
  <g transform="matrix(1 0 0 1 -301 -26 )">
    <path d="M 4.992131147540984 4.250360655737705  L 0.9118688524590164 0.1700983606557377  C 0.8140647351731563 0.07563598345300473  0.683403354007463 0.022839714479972305  0.5474298784143985 0.022839714479972305  C 0.257706730962179 0.022839714479972305  0.022839714479972305 0.257706730962179  0.022839714479972305 0.5474298784143985  C 0.022839714479972305 0.683403354007463  0.07563598345300473 0.8140647351731563  0.1700983606557377 0.9118688524590164  L 4.249836065573771 4.992131147540984  L 0.1700983606557377 9.07239344262295  C 0.07161845024808773 9.17080375592077  0.016287158307822083 9.304318562577208  0.016287158307822083 9.443540983606558  C 0.016287158307822083 9.73332283026517  0.25120175989876586 9.968237431856114  0.5409836065573772 9.968237431856114  C 0.6800774882595341 9.968237431856114  0.8134798652039192 9.913007978992077  0.9118688524590164 9.814688524590164  L 4.992131147540984 5.733901639344262  L 9.07239344262295 9.814688524590165  C 9.1708278906552 9.913122972622414  9.30433365219464 9.968422869707002  9.443540983606558 9.968422869707002  C 9.733425244762255 9.968422869707002  9.968422869707002 9.733425244762255  9.968422869707002 9.443540983606558  C 9.968422869707002 9.30433365219464  9.913122972622418 9.1708278906552  9.814688524590164 9.07239344262295  L 5.733901639344262 4.9921311475409835  L 9.814688524590165 0.9118688524590158  C 9.913007978992077 0.8134798652039197  9.968237431856114 0.6800774882595326  9.968237431856114 0.5409836065573769  C 9.968237431856114 0.2512017598987657  9.73332283026517 0.016287158307821972  9.443540983606558 0.016287158307821972  C 9.304318562577208 0.016287158307821972  9.17080375592077 0.07161845024808833  9.07239344262295 0.1700983606557377  L 4.992131147540984 4.249836065573771  Z " fill-rule="nonzero" fill="rgba(152, 157, 170, 1)" stroke="none" transform="matrix(1 0 0 1 301 26 )" class="fill" />
    <path d="M 4.992131147540984 4.250360655737705  L 0.9118688524590164 0.1700983606557377  C 0.8140647351731563 0.07563598345300473  0.683403354007463 0.022839714479972305  0.5474298784143985 0.022839714479972305  C 0.257706730962179 0.022839714479972305  0.022839714479972305 0.257706730962179  0.022839714479972305 0.5474298784143985  C 0.022839714479972305 0.683403354007463  0.07563598345300473 0.8140647351731563  0.1700983606557377 0.9118688524590164  L 4.249836065573771 4.992131147540984  L 0.1700983606557377 9.07239344262295  C 0.07161845024808773 9.17080375592077  0.016287158307822083 9.304318562577208  0.016287158307822083 9.443540983606558  C 0.016287158307822083 9.73332283026517  0.25120175989876586 9.968237431856114  0.5409836065573772 9.968237431856114  C 0.6800774882595341 9.968237431856114  0.8134798652039192 9.913007978992077  0.9118688524590164 9.814688524590164  L 4.992131147540984 5.733901639344262  L 9.07239344262295 9.814688524590165  C 9.1708278906552 9.913122972622414  9.30433365219464 9.968422869707002  9.443540983606558 9.968422869707002  C 9.733425244762255 9.968422869707002  9.968422869707002 9.733425244762255  9.968422869707002 9.443540983606558  C 9.968422869707002 9.30433365219464  9.913122972622418 9.1708278906552  9.814688524590164 9.07239344262295  L 5.733901639344262 4.9921311475409835  L 9.814688524590165 0.9118688524590158  C 9.913007978992077 0.8134798652039197  9.968237431856114 0.6800774882595326  9.968237431856114 0.5409836065573769  C 9.968237431856114 0.2512017598987657  9.73332283026517 0.016287158307821972  9.443540983606558 0.016287158307821972  C 9.304318562577208 0.016287158307821972  9.17080375592077 0.07161845024808833  9.07239344262295 0.1700983606557377  L 4.992131147540984 4.249836065573771  Z " stroke-width="0" stroke-dasharray="0" stroke="rgba(255, 255, 255, 0)" fill="none" transform="matrix(1 0 0 1 301 26 )" class="stroke" mask="url(#Clip308)" />
  </g>
</svg>