<?xml version="1.0" encoding="utf-8"?>
<svg version="1.1" xmlns:xlink="http://www.w3.org/1999/xlink" width="7px" height="5px" xmlns="http://www.w3.org/2000/svg">
  <defs>
    <pattern id="BGPattern" patternUnits="userSpaceOnUse" alignment="0 0" imageRepeat="None" />
    <mask fill="white" id="Clip271">
      <path d="M 2.1567267421875016 4.4151323076923035  L 0.007703773437512495 2.226331185897429  L 0.5448356015624967 1.6792887499999978  L 2.693842578124986 3.868139070512818  L 6.45470871093751 0.03748087339744188  L 6.992288234374996 0.5847118990384601  L 3.2314300937499922 4.4151323076923035  L 2.693842578124986 4.962519126602558  L 2.1567267421875016 4.4151323076923035  Z " fill-rule="evenodd" />
    </mask>
  </defs>
  <g transform="matrix(1 0 0 1 -485 -4132 )">
    <path d="M 2.1567267421875016 4.4151323076923035  L 0.007703773437512495 2.226331185897429  L 0.5448356015624967 1.6792887499999978  L 2.693842578124986 3.868139070512818  L 6.45470871093751 0.03748087339744188  L 6.992288234374996 0.5847118990384601  L 3.2314300937499922 4.4151323076923035  L 2.693842578124986 4.962519126602558  L 2.1567267421875016 4.4151323076923035  Z " fill-rule="nonzero" fill="rgba(255, 255, 255, 1)" stroke="none" transform="matrix(1 0 0 1 485 4132 )" class="fill" />
    <path d="M 2.1567267421875016 4.4151323076923035  L 0.007703773437512495 2.226331185897429  L 0.5448356015624967 1.6792887499999978  L 2.693842578124986 3.868139070512818  L 6.45470871093751 0.03748087339744188  L 6.992288234374996 0.5847118990384601  L 3.2314300937499922 4.4151323076923035  L 2.693842578124986 4.962519126602558  L 2.1567267421875016 4.4151323076923035  Z " stroke-width="0" stroke-dasharray="0" stroke="rgba(255, 255, 255, 0)" fill="none" transform="matrix(1 0 0 1 485 4132 )" class="stroke" mask="url(#Clip271)" />
  </g>
</svg>