<?xml version="1.0" encoding="utf-8"?>
<svg version="1.1" xmlns:xlink="http://www.w3.org/1999/xlink" width="9px" height="10px" xmlns="http://www.w3.org/2000/svg">
  <defs>
    <pattern id="BGPattern" patternUnits="userSpaceOnUse" alignment="0 0" imageRepeat="None" />
    <mask fill="white" id="Clip272">
      <path d="M 4.165299196874969 7.593650796874954  C 5.932610397196527 7.593650796874954  7.365299198437498 6.115479811467594  7.365299198437498 4.292063493675585  C 7.365299198437498 2.468647175883575  5.932610397196527 0.9904761904761585  4.165299196874969 0.9904761904761585  C 2.397987996553468 0.9904761904761585  0.9652991953125252 2.468647175883575  0.9652991953125252 4.292063493675585  C 0.9652991953125252 6.115479811467594  2.397987996553468 7.593650796874954  4.165299196874969 7.593650796874954  Z M 7.3992192000000045 6.991441273065448  L 8.901299203124978 8.541206345982118  C 9.026221429281975 8.670133281077142  9.026221429281975 8.879123861779988  8.901299203124978 9.008050796875011  L 8.674739203124943 9.241142857142847  C 8.5497792506483 9.370030868257118  8.347219149351758 9.370030868257118  8.222259196874973 9.241142857142847  L 6.713779200000033 7.6847746063988325  C 5.984511681549918 8.267941661510008  5.088029125130106 8.584419142160755  4.165365228709902 8.584419142160755  C 1.8678606711397094 8.584419142160755  0.005365231834929318 6.662796863512938  0.005365231834929318 4.292355653321465  C 0.005365231834929318 1.9219144431299924  1.8678606711397094 0.00029216448217539437  4.165365228709902 0.00029216448217539437  C 6.462869786280152 0.00029216448217539437  8.325365225584903 1.9219144431299924  8.325365225584903 4.292355653321465  C 8.325365225584903 5.274822370335585  7.998678191721126 6.227551206086446  7.399859203125061 6.991441273065448  Z " fill-rule="evenodd" />
    </mask>
  </defs>
  <g transform="matrix(1 0 0 1 -488 -4166 )">
    <path d="M 4.165299196874969 7.593650796874954  C 5.932610397196527 7.593650796874954  7.365299198437498 6.115479811467594  7.365299198437498 4.292063493675585  C 7.365299198437498 2.468647175883575  5.932610397196527 0.9904761904761585  4.165299196874969 0.9904761904761585  C 2.397987996553468 0.9904761904761585  0.9652991953125252 2.468647175883575  0.9652991953125252 4.292063493675585  C 0.9652991953125252 6.115479811467594  2.397987996553468 7.593650796874954  4.165299196874969 7.593650796874954  Z M 7.3992192000000045 6.991441273065448  L 8.901299203124978 8.541206345982118  C 9.026221429281975 8.670133281077142  9.026221429281975 8.879123861779988  8.901299203124978 9.008050796875011  L 8.674739203124943 9.241142857142847  C 8.5497792506483 9.370030868257118  8.347219149351758 9.370030868257118  8.222259196874973 9.241142857142847  L 6.713779200000033 7.6847746063988325  C 5.984511681549918 8.267941661510008  5.088029125130106 8.584419142160755  4.165365228709902 8.584419142160755  C 1.8678606711397094 8.584419142160755  0.005365231834929318 6.662796863512938  0.005365231834929318 4.292355653321465  C 0.005365231834929318 1.9219144431299924  1.8678606711397094 0.00029216448217539437  4.165365228709902 0.00029216448217539437  C 6.462869786280152 0.00029216448217539437  8.325365225584903 1.9219144431299924  8.325365225584903 4.292355653321465  C 8.325365225584903 5.274822370335585  7.998678191721126 6.227551206086446  7.399859203125061 6.991441273065448  Z " fill-rule="nonzero" fill="rgba(215, 215, 215, 1)" stroke="none" transform="matrix(1 0 0 1 488 4166 )" class="fill" />
    <path d="M 4.165299196874969 7.593650796874954  C 5.932610397196527 7.593650796874954  7.365299198437498 6.115479811467594  7.365299198437498 4.292063493675585  C 7.365299198437498 2.468647175883575  5.932610397196527 0.9904761904761585  4.165299196874969 0.9904761904761585  C 2.397987996553468 0.9904761904761585  0.9652991953125252 2.468647175883575  0.9652991953125252 4.292063493675585  C 0.9652991953125252 6.115479811467594  2.397987996553468 7.593650796874954  4.165299196874969 7.593650796874954  Z " stroke-width="0" stroke-dasharray="0" stroke="rgba(255, 255, 255, 0)" fill="none" transform="matrix(1 0 0 1 488 4166 )" class="stroke" mask="url(#Clip272)" />
    <path d="M 7.3992192000000045 6.991441273065448  L 8.901299203124978 8.541206345982118  C 9.026221429281975 8.670133281077142  9.026221429281975 8.879123861779988  8.901299203124978 9.008050796875011  L 8.674739203124943 9.241142857142847  C 8.5497792506483 9.370030868257118  8.347219149351758 9.370030868257118  8.222259196874973 9.241142857142847  L 6.713779200000033 7.6847746063988325  C 5.984511681549918 8.267941661510008  5.088029125130106 8.584419142160755  4.165365228709902 8.584419142160755  C 1.8678606711397094 8.584419142160755  0.005365231834929318 6.662796863512938  0.005365231834929318 4.292355653321465  C 0.005365231834929318 1.9219144431299924  1.8678606711397094 0.00029216448217539437  4.165365228709902 0.00029216448217539437  C 6.462869786280152 0.00029216448217539437  8.325365225584903 1.9219144431299924  8.325365225584903 4.292355653321465  C 8.325365225584903 5.274822370335585  7.998678191721126 6.227551206086446  7.399859203125061 6.991441273065448  Z " stroke-width="0" stroke-dasharray="0" stroke="rgba(255, 255, 255, 0)" fill="none" transform="matrix(1 0 0 1 488 4166 )" class="stroke" mask="url(#Clip272)" />
  </g>
</svg>