<?xml version="1.0" encoding="utf-8"?>
<svg version="1.1" xmlns:xlink="http://www.w3.org/1999/xlink" width="14px" height="14px" xmlns="http://www.w3.org/2000/svg">
  <defs>
    <pattern id="BGPattern" patternUnits="userSpaceOnUse" alignment="0 0" imageRepeat="None" />
    <mask fill="white" id="Clip275">
      <path d="M 10 3  L 13.25 3  C 13.458333333333334 3  13.635416666666668 3.072916666666666  13.78125 3.21875  C 13.927083333333334 3.3645833333333313  14 3.5416666666666665  14 3.750000000000001  L 14 13.25  C 14 13.458333333333334  13.927083333333334 13.635416666666666  13.78125 13.78125  C 13.635416666666668 13.927083333333334  13.458333333333334 14  13.25 14  L 5.75 14  C 5.541666666666667 14  5.364583333333334 13.927083333333334  5.21875 13.78125  C 5.072916666666667 13.635416666666666  5 13.458333333333334  5 13.25  L 5 11  L 0.75 11  C 0.5416666666666667 11  0.36458333333333337 10.927083333333334  0.21875 10.78125  C 0.07291666666666666 10.635416666666668  0 10.458333333333334  0 10.25  L 0 4.999999999999999  C 0 4.791666666666667  0.05208333333333333 4.562499999999999  0.15625 4.3125  C 0.2604166666666667 4.0625  0.3854166666666667 3.864583333333333  0.53125 3.71875  L 3.71875 0.5312500000000004  C 3.8645833333333335 0.3854166666666661  4.0625 0.2604166666666665  4.3125 0.15625000000000022  C 4.5625 0.052083333333333925  4.791666666666667 0  5 0  L 8.25 0  C 8.458333333333334 0  8.635416666666668 0.07291666666666718  8.78125 0.21875  C 8.927083333333334 0.3645833333333328  9 0.5416666666666663  9 0.7500000000000004  L 9 3.312500000000001  C 9.354166666666668 3.1041666666666665  9.6875 3  10 3  Z M 9 7  L 9 4.6640625  L 6.6640625 7  L 9 7  Z M 4 4  L 4 1.6640624999999993  L 1.6640625 4  L 4 4  Z M 5.15625 7.3125  C 5.260416666666667 7.0625  5.385416666666667 6.864583333333333  5.53125 6.71875  L 8 4.25  L 8 0.9999999999999996  L 5 0.9999999999999996  L 5 4.25  C 5 4.458333333333331  4.927083333333334 4.635416666666666  4.78125 4.781249999999999  C 4.635416666666667 4.927083333333332  4.458333333333334 4.999999999999999  4.25 4.999999999999999  L 1 4.999999999999999  L 1 10  L 5 10  L 5 8  C 5 7.791666666666667  5.052083333333334 7.5625  5.15625 7.3125  Z M 6 13  L 13 13  L 13 4  L 10 4  L 10 7.249999999999999  C 10 7.458333333333333  9.927083333333334 7.635416666666665  9.78125 7.78125  C 9.635416666666668 7.927083333333334  9.458333333333334 8  9.25 8  L 6 8  L 6 13  Z " fill-rule="evenodd" />
    </mask>
  </defs>
  <g transform="matrix(1 0 0 1 -1966 -4433 )">
    <path d="M 10 3  L 13.25 3  C 13.458333333333334 3  13.635416666666668 3.072916666666666  13.78125 3.21875  C 13.927083333333334 3.3645833333333313  14 3.5416666666666665  14 3.750000000000001  L 14 13.25  C 14 13.458333333333334  13.927083333333334 13.635416666666666  13.78125 13.78125  C 13.635416666666668 13.927083333333334  13.458333333333334 14  13.25 14  L 5.75 14  C 5.541666666666667 14  5.364583333333334 13.927083333333334  5.21875 13.78125  C 5.072916666666667 13.635416666666666  5 13.458333333333334  5 13.25  L 5 11  L 0.75 11  C 0.5416666666666667 11  0.36458333333333337 10.927083333333334  0.21875 10.78125  C 0.07291666666666666 10.635416666666668  0 10.458333333333334  0 10.25  L 0 4.999999999999999  C 0 4.791666666666667  0.05208333333333333 4.562499999999999  0.15625 4.3125  C 0.2604166666666667 4.0625  0.3854166666666667 3.864583333333333  0.53125 3.71875  L 3.71875 0.5312500000000004  C 3.8645833333333335 0.3854166666666661  4.0625 0.2604166666666665  4.3125 0.15625000000000022  C 4.5625 0.052083333333333925  4.791666666666667 0  5 0  L 8.25 0  C 8.458333333333334 0  8.635416666666668 0.07291666666666718  8.78125 0.21875  C 8.927083333333334 0.3645833333333328  9 0.5416666666666663  9 0.7500000000000004  L 9 3.312500000000001  C 9.354166666666668 3.1041666666666665  9.6875 3  10 3  Z M 9 7  L 9 4.6640625  L 6.6640625 7  L 9 7  Z M 4 4  L 4 1.6640624999999993  L 1.6640625 4  L 4 4  Z M 5.15625 7.3125  C 5.260416666666667 7.0625  5.385416666666667 6.864583333333333  5.53125 6.71875  L 8 4.25  L 8 0.9999999999999996  L 5 0.9999999999999996  L 5 4.25  C 5 4.458333333333331  4.927083333333334 4.635416666666666  4.78125 4.781249999999999  C 4.635416666666667 4.927083333333332  4.458333333333334 4.999999999999999  4.25 4.999999999999999  L 1 4.999999999999999  L 1 10  L 5 10  L 5 8  C 5 7.791666666666667  5.052083333333334 7.5625  5.15625 7.3125  Z M 6 13  L 13 13  L 13 4  L 10 4  L 10 7.249999999999999  C 10 7.458333333333333  9.927083333333334 7.635416666666665  9.78125 7.78125  C 9.635416666666668 7.927083333333334  9.458333333333334 8  9.25 8  L 6 8  L 6 13  Z " fill-rule="nonzero" fill="rgba(0, 0, 0, 1)" stroke="none" transform="matrix(1 0 0 1 1966 4433 )" class="fill" />
    <path d="M 10 3  L 13.25 3  C 13.458333333333334 3  13.635416666666668 3.072916666666666  13.78125 3.21875  C 13.927083333333334 3.3645833333333313  14 3.5416666666666665  14 3.750000000000001  L 14 13.25  C 14 13.458333333333334  13.927083333333334 13.635416666666666  13.78125 13.78125  C 13.635416666666668 13.927083333333334  13.458333333333334 14  13.25 14  L 5.75 14  C 5.541666666666667 14  5.364583333333334 13.927083333333334  5.21875 13.78125  C 5.072916666666667 13.635416666666666  5 13.458333333333334  5 13.25  L 5 11  L 0.75 11  C 0.5416666666666667 11  0.36458333333333337 10.927083333333334  0.21875 10.78125  C 0.07291666666666666 10.635416666666668  0 10.458333333333334  0 10.25  L 0 4.999999999999999  C 0 4.791666666666667  0.05208333333333333 4.562499999999999  0.15625 4.3125  C 0.2604166666666667 4.0625  0.3854166666666667 3.864583333333333  0.53125 3.71875  L 3.71875 0.5312500000000004  C 3.8645833333333335 0.3854166666666661  4.0625 0.2604166666666665  4.3125 0.15625000000000022  C 4.5625 0.052083333333333925  4.791666666666667 0  5 0  L 8.25 0  C 8.458333333333334 0  8.635416666666668 0.07291666666666718  8.78125 0.21875  C 8.927083333333334 0.3645833333333328  9 0.5416666666666663  9 0.7500000000000004  L 9 3.312500000000001  C 9.354166666666668 3.1041666666666665  9.6875 3  10 3  Z " stroke-width="0" stroke-dasharray="0" stroke="rgba(255, 255, 255, 0)" fill="none" transform="matrix(1 0 0 1 1966 4433 )" class="stroke" mask="url(#Clip275)" />
    <path d="M 9 7  L 9 4.6640625  L 6.6640625 7  L 9 7  Z " stroke-width="0" stroke-dasharray="0" stroke="rgba(255, 255, 255, 0)" fill="none" transform="matrix(1 0 0 1 1966 4433 )" class="stroke" mask="url(#Clip275)" />
    <path d="M 4 4  L 4 1.6640624999999993  L 1.6640625 4  L 4 4  Z " stroke-width="0" stroke-dasharray="0" stroke="rgba(255, 255, 255, 0)" fill="none" transform="matrix(1 0 0 1 1966 4433 )" class="stroke" mask="url(#Clip275)" />
    <path d="M 5.15625 7.3125  C 5.260416666666667 7.0625  5.385416666666667 6.864583333333333  5.53125 6.71875  L 8 4.25  L 8 0.9999999999999996  L 5 0.9999999999999996  L 5 4.25  C 5 4.458333333333331  4.927083333333334 4.635416666666666  4.78125 4.781249999999999  C 4.635416666666667 4.927083333333332  4.458333333333334 4.999999999999999  4.25 4.999999999999999  L 1 4.999999999999999  L 1 10  L 5 10  L 5 8  C 5 7.791666666666667  5.052083333333334 7.5625  5.15625 7.3125  Z " stroke-width="0" stroke-dasharray="0" stroke="rgba(255, 255, 255, 0)" fill="none" transform="matrix(1 0 0 1 1966 4433 )" class="stroke" mask="url(#Clip275)" />
    <path d="M 6 13  L 13 13  L 13 4  L 10 4  L 10 7.249999999999999  C 10 7.458333333333333  9.927083333333334 7.635416666666665  9.78125 7.78125  C 9.635416666666668 7.927083333333334  9.458333333333334 8  9.25 8  L 6 8  L 6 13  Z " stroke-width="0" stroke-dasharray="0" stroke="rgba(255, 255, 255, 0)" fill="none" transform="matrix(1 0 0 1 1966 4433 )" class="stroke" mask="url(#Clip275)" />
  </g>
</svg>