<svg width="500" height="300" viewBox="0 0 500 300" fill="none" xmlns="http://www.w3.org/2000/svg">
<path d="M144.041 147V120.936H147.641L148.073 125.688H148.169C149.945 122.376 152.585 120.264 155.561 120.264C156.713 120.264 157.529 120.408 158.345 120.84L157.385 124.536C156.617 124.296 156.089 124.2 154.985 124.2C152.825 124.2 150.185 125.832 148.457 130.248V147H144.041ZM172.695 147.624C165.735 147.624 160.215 142.584 160.215 133.992C160.215 125.496 165.927 120.264 171.879 120.264C178.551 120.264 182.295 125.064 182.295 132.504C182.295 133.464 182.199 134.328 182.103 135H164.439C164.871 141.048 168.663 144.12 173.175 144.12C175.719 144.12 177.831 143.4 179.751 142.2L181.239 144.984C178.983 146.52 176.199 147.624 172.695 147.624ZM164.487 131.88H178.455C178.455 126.6 176.055 123.768 171.975 123.768C168.663 123.768 165.111 126.216 164.487 131.88ZM193.963 147.624C189.595 147.624 186.379 144.936 186.379 140.232C186.379 134.568 191.275 131.736 202.363 130.488C202.363 127.128 201.259 123.912 196.987 123.912C193.963 123.912 191.227 125.304 189.163 126.6L187.483 123.672C189.835 122.088 193.483 120.264 197.707 120.264C204.091 120.264 206.731 124.488 206.731 130.968V147H203.131L202.747 143.88H202.603C200.107 145.944 197.179 147.624 193.963 147.624ZM195.211 144.072C197.707 144.072 199.819 142.92 202.363 140.664V133.416C193.579 134.424 190.603 136.584 190.603 139.944C190.603 142.92 192.619 144.072 195.211 144.072ZM225.378 147.624C218.37 147.624 213.09 142.632 213.09 133.992C213.09 125.304 218.898 120.264 225.618 120.264C229.026 120.264 231.426 121.56 233.202 123.336L231.042 126.024C229.698 124.776 228.018 123.96 225.81 123.96C221.106 123.96 217.602 127.992 217.602 133.992C217.602 139.992 220.866 143.976 225.714 143.976C228.066 143.976 230.226 143.016 231.81 141.576L233.73 144.264C231.57 146.328 228.642 147.624 225.378 147.624ZM247.123 147.528C241.603 147.528 239.731 143.976 239.731 138.792V124.488H235.843V121.176L239.971 120.936L240.451 112.536H244.099V120.936H251.203V124.488H244.099V138.888C244.099 142.104 245.107 143.928 248.131 143.928C249.091 143.928 250.099 143.784 251.107 143.256L252.019 146.376C250.627 147.048 248.899 147.528 247.123 147.528ZM304.511 107.16V150.84H300.911V107.16H304.511ZM285.887 119.736V112.056H268.463V108.696H289.439V123.096H273.359C272.975 125.64 272.495 128.232 272.063 130.536H289.727C289.727 130.536 289.631 131.688 289.583 132.216C288.767 142.968 287.903 147.336 286.319 148.92C285.263 150.072 284.207 150.408 282.479 150.456C280.943 150.6 277.919 150.6 274.847 150.36C274.751 149.256 274.271 147.72 273.551 146.664C276.719 146.952 279.935 147 281.087 147C282.143 147 282.671 146.952 283.199 146.472C284.351 145.512 285.119 142.008 285.791 133.896H267.599C268.559 130.152 269.615 124.248 270.239 119.736H285.887ZM319.823 119.208H328.031V125.976H319.823V127.512H317.231V120.264C316.703 120.888 316.127 121.512 315.503 122.088C315.023 121.512 314.111 120.552 313.439 120.216C315.743 118.104 317.279 115.416 318.143 113.16L319.343 113.352V111.576H313.823V109.08H319.343V106.68H322.415V109.08H327.599V106.68H330.671V109.08H336.239V111.576H330.671V113.688H327.599V111.576H322.415V113.592H320.735L321.023 113.64L320.399 115.08H334.751C334.751 115.08 334.751 115.896 334.703 116.328C334.319 123.816 333.935 126.648 332.975 127.704C332.351 128.424 331.631 128.664 330.479 128.76C329.567 128.808 327.887 128.808 326.255 128.664C326.207 127.944 325.919 126.888 325.487 126.216C327.119 126.36 328.559 126.36 329.135 126.36C329.759 126.36 330.095 126.312 330.383 125.976C330.911 125.304 331.295 123.096 331.535 117.288H319.295C318.911 117.96 318.527 118.584 318.047 119.208H319.823ZM344.447 107.256C344.015 108.648 343.535 110.04 342.959 111.336H356.783V114.072H353.999C352.751 117.384 350.831 120.024 348.335 122.184C350.927 124.008 353.999 125.352 357.455 126.12C356.735 126.792 355.823 128.04 355.391 128.904C351.695 127.896 348.527 126.264 345.839 124.056C343.103 125.88 339.887 127.224 336.335 128.28C335.999 127.56 335.039 126.216 334.415 125.544C337.871 124.68 340.991 123.528 343.583 121.944C342.143 120.408 340.943 118.68 339.935 116.808C339.119 118.056 338.207 119.16 337.295 120.12C336.767 119.592 335.519 118.584 334.799 118.104C337.775 115.272 340.079 111.048 341.375 106.536L344.447 107.256ZM350.543 114.072H341.663C342.671 116.376 344.159 118.44 345.983 120.216C347.999 118.536 349.535 116.52 350.543 114.072ZM319.823 121.176V123.96H325.439V121.176H319.823ZM350.543 131.16C346.895 131.784 342.191 132.216 337.199 132.552V135.72H353.951V138.36H337.199V141.336H356.735V144.072H337.199V147.192C337.199 149.016 336.719 149.88 335.279 150.36C333.887 150.792 331.679 150.84 328.175 150.84C327.983 149.976 327.455 148.728 326.975 147.864C329.519 147.96 332.015 147.96 332.687 147.912C333.359 147.864 333.599 147.672 333.599 147.096V144.072H314.111V141.336H333.599V138.36H317.231V135.72H333.599V132.744C328.751 132.984 323.759 133.08 319.199 133.08C319.151 132.36 318.767 131.256 318.479 130.632C328.799 130.584 341.519 130.008 348.287 128.856L350.543 131.16Z" fill="#999999"/>
<path d="M199.053 176L202.553 165.752H203.827L207.341 176H206.109L205.087 172.78H201.251L200.215 176H199.053ZM201.559 171.856H204.793L204.261 170.19C203.869 169.028 203.547 167.922 203.197 166.718H203.141C202.805 167.922 202.469 169.028 202.091 170.19L201.559 171.856ZM207.561 176L210.067 172.052L207.757 168.44H209.003L210.053 170.162C210.291 170.582 210.557 170.988 210.823 171.422H210.879C211.117 170.988 211.341 170.582 211.579 170.162L212.559 168.44H213.749L211.439 172.164L213.945 176H212.699L211.537 174.166C211.285 173.704 210.991 173.242 210.697 172.808H210.627C210.361 173.242 210.109 173.704 209.843 174.166L208.765 176H207.561ZM215.475 176V164.856H216.623V167.95L216.581 169.532C217.295 168.818 218.079 168.244 219.115 168.244C220.697 168.244 221.425 169.266 221.425 171.198V176H220.277V171.338C220.277 169.882 219.829 169.238 218.779 169.238C217.981 169.238 217.407 169.658 216.623 170.456V176H215.475ZM226.095 176.182C224.513 176.182 223.785 175.174 223.785 173.242V168.44H224.933V173.102C224.933 174.558 225.381 175.188 226.431 175.188C227.229 175.188 227.803 174.782 228.559 173.858V168.44H229.693V176H228.755L228.657 174.796H228.615C227.901 175.622 227.145 176.182 226.095 176.182ZM235.567 176.182C234.867 176.182 234.055 175.818 233.397 175.216H233.341L233.229 176H232.319V164.856H233.467V167.95L233.411 169.336C234.125 168.734 234.979 168.244 235.847 168.244C237.821 168.244 238.857 169.77 238.857 172.094C238.857 174.684 237.303 176.182 235.567 176.182ZM235.399 175.216C236.715 175.216 237.681 174.026 237.681 172.122C237.681 170.386 237.093 169.21 235.581 169.21C234.923 169.21 234.223 169.588 233.467 170.288V174.39C234.153 175.006 234.881 175.216 235.399 175.216ZM248.427 170.638H250.219C251.871 170.638 252.781 169.966 252.781 168.58C252.781 167.194 251.871 166.704 250.219 166.704H248.427V170.638ZM252.907 176L250.345 171.576H248.427V176H247.265V165.752H250.401C252.473 165.752 253.943 166.508 253.943 168.58C253.943 170.19 253.005 171.142 251.563 171.464L254.209 176H252.907ZM258.128 176.182C256.546 176.182 255.818 175.174 255.818 173.242V168.44H256.966V173.102C256.966 174.558 257.414 175.188 258.464 175.188C259.262 175.188 259.836 174.782 260.592 173.858V168.44H261.726V176H260.788L260.69 174.796H260.648C259.934 175.622 259.178 176.182 258.128 176.182ZM264.352 176V168.44H265.29L265.402 169.546H265.444C266.172 168.818 266.956 168.244 267.992 168.244C269.574 168.244 270.302 169.266 270.302 171.198V176H269.154V171.338C269.154 169.882 268.706 169.238 267.656 169.238C266.858 169.238 266.284 169.658 265.5 170.456V176H264.352ZM275.139 176.14C273.557 176.14 273.053 175.146 273.053 173.676V169.364H271.905V168.51L273.095 168.44L273.235 165.99H274.187V168.44H276.273V169.364H274.187V173.704C274.187 174.656 274.467 175.202 275.377 175.202C275.657 175.202 275.951 175.16 276.259 175.006L276.511 175.818C276.105 176.014 275.615 176.14 275.139 176.14ZM278.01 176V168.44H279.158V176H278.01ZM278.57 166.816C278.108 166.816 277.786 166.508 277.786 166.018C277.786 165.556 278.108 165.248 278.57 165.248C279.032 165.248 279.368 165.556 279.368 166.018C279.368 166.508 279.032 166.816 278.57 166.816ZM281.77 176V168.44H282.708L282.82 169.56H282.862C283.52 168.818 284.332 168.244 285.228 168.244C286.39 168.244 287.006 168.818 287.3 169.714C288.112 168.846 288.91 168.244 289.82 168.244C291.36 168.244 292.102 169.266 292.102 171.198V176H290.982V171.338C290.982 169.882 290.506 169.238 289.498 169.238C288.882 169.238 288.252 169.644 287.51 170.456V176H286.376V171.338C286.376 169.882 285.914 169.238 284.906 169.238C284.304 169.238 283.632 169.644 282.918 170.456V176H281.77ZM297.673 176.182C295.671 176.182 294.075 174.712 294.075 172.234C294.075 169.77 295.713 168.244 297.449 168.244C299.339 168.244 300.431 169.602 300.431 171.786C300.431 172.038 300.417 172.276 300.375 172.472H295.181C295.307 174.306 296.427 175.258 297.799 175.258C298.555 175.258 299.171 175.048 299.731 174.684L300.123 175.426C299.479 175.86 298.709 176.182 297.673 176.182ZM295.195 171.632H299.423C299.423 170.022 298.695 169.168 297.463 169.168C296.469 169.168 295.377 169.938 295.195 171.632ZM133.484 192.87C133.484 194.62 133.064 196.734 129.494 198.036C129.368 197.84 129.13 197.518 128.92 197.35C132.266 196.23 132.588 194.326 132.588 192.856V190.028H133.484V192.87ZM133.932 195.138C134.828 195.81 135.976 196.79 136.55 197.406L135.892 198.064C135.346 197.42 134.198 196.426 133.302 195.712L133.932 195.138ZM124.958 187.83L126.246 188.684C126.806 188.194 127.408 187.466 127.87 186.794H124.006V185.954H128.486L128.654 185.912L129.242 186.29C128.626 187.298 127.716 188.39 126.876 189.132C127.394 189.482 127.87 189.832 128.192 190.098L127.926 190.434H128.934L129.088 190.392L129.676 190.56C129.298 191.638 128.85 192.842 128.472 193.598L127.744 193.402C128.01 192.856 128.304 192.058 128.57 191.288H126.96V196.958C126.96 197.49 126.848 197.756 126.47 197.91C126.092 198.05 125.49 198.064 124.524 198.064C124.482 197.812 124.342 197.434 124.216 197.168C124.958 197.182 125.602 197.182 125.798 197.182C126.008 197.168 126.064 197.112 126.064 196.944V191.288H123.712V190.434H127.212C126.442 189.832 125.322 189.02 124.426 188.418L124.958 187.83ZM135.99 188.236V194.858H135.08V189.09H131.048V194.872H130.18V188.236H132.294C132.448 187.788 132.588 187.228 132.7 186.752H129.662V185.898H136.55V186.752H133.722L133.204 188.236H135.99ZM146.924 187.83C147.708 188.502 148.52 189.44 148.926 190.084L148.086 190.49C147.722 189.832 146.882 188.88 146.126 188.194L146.924 187.83ZM139.714 186.038V189.972H138.804V186.038H139.714ZM142.64 185.394V190.42H141.716V185.394H142.64ZM145.51 196.692C145.51 197.028 145.622 197.084 146.294 197.084C146.616 197.084 148.254 197.084 148.674 197.084C149.234 197.084 149.346 196.902 149.388 195.6C149.598 195.74 149.976 195.88 150.214 195.922C150.116 197.518 149.836 197.896 148.758 197.896C148.478 197.896 146.504 197.896 146.224 197.896C144.908 197.896 144.572 197.658 144.572 196.692V194.424H145.51V196.692ZM144.586 193.486C144.586 194.956 144.012 196.846 138.692 198.12C138.58 197.91 138.314 197.574 138.104 197.364C143.256 196.258 143.606 194.62 143.606 193.472V192.38H144.586V193.486ZM148.562 190.868V195.25H147.596V191.722H140.89V195.32H139.952V190.868H148.562ZM146.294 185.436C146.182 185.87 146.042 186.304 145.902 186.724H150.214V187.578H145.58C145.202 188.488 144.768 189.3 144.292 189.93C144.124 189.79 143.718 189.552 143.494 189.44C144.348 188.404 145.006 186.822 145.398 185.254L146.294 185.436ZM154.914 193.542V192.646H158.456V193.542H154.914ZM176.153 191.638H173.409C173.073 192.394 172.737 193.108 172.415 193.724C173.157 194.102 173.969 194.508 174.739 194.942C175.453 194.102 175.915 193.024 176.153 191.638ZM178.715 190.784V191.638H177.161C176.853 193.22 176.335 194.438 175.551 195.404C176.755 196.104 177.875 196.804 178.631 197.392L177.945 198.134C177.231 197.546 176.125 196.818 174.907 196.076C173.885 197.014 172.527 197.644 170.791 198.106C170.721 197.896 170.497 197.49 170.329 197.294C171.925 196.93 173.171 196.398 174.095 195.6C173.115 195.04 172.093 194.48 171.169 194.032C171.561 193.388 171.995 192.534 172.401 191.638H170.287V190.784H172.765C173.087 190 173.367 189.216 173.563 188.502L174.515 188.656C174.319 189.328 174.053 190.056 173.759 190.784H178.715ZM178.519 187.088V189.748H177.609V187.928H171.561V189.776H170.665V187.088H174.179C174.039 186.556 173.829 185.912 173.647 185.394L174.571 185.198C174.795 185.8 175.047 186.542 175.201 187.088H178.519ZM168.747 196.972C168.747 197.518 168.607 197.784 168.257 197.924C167.921 198.078 167.361 198.106 166.437 198.092C166.423 197.868 166.283 197.49 166.157 197.238C166.801 197.252 167.389 197.252 167.571 197.252C167.753 197.252 167.823 197.182 167.823 196.986V193.514L165.975 194.102L165.751 193.192L167.823 192.576V188.992H165.905V188.11H167.823V185.268H168.747V188.11H170.287V188.992H168.747V192.296L170.441 191.778L170.567 192.618L168.747 193.22V196.972ZM187.829 185.212C188.319 185.926 188.865 186.878 189.075 187.494L188.165 187.872C187.955 187.242 187.451 186.262 186.975 185.52L187.829 185.212ZM181.879 198.064V190.084C181.403 190.756 180.913 191.372 180.409 191.89C180.311 191.666 180.017 191.176 179.849 190.952C181.249 189.58 182.579 187.466 183.377 185.31L184.273 185.59C183.867 186.626 183.377 187.648 182.817 188.614V198.064H181.879ZM192.757 196.706V197.602H183.671V196.706H187.801V193.024H184.511V192.128H187.801V188.922H184.035V188.026H192.547V188.922H188.739V192.128H192.127V193.024H188.739V196.706H192.757ZM196.49 197L199.99 186.752H201.264L204.778 197H203.546L202.524 193.78H198.688L197.652 197H196.49ZM198.996 192.856H202.23L201.698 191.19C201.306 190.028 200.984 188.922 200.634 187.718H200.578C200.242 188.922 199.906 190.028 199.528 191.19L198.996 192.856ZM207.404 197.14C206.536 197.14 206.158 196.594 206.158 195.558V185.856H207.306V195.656C207.306 196.048 207.46 196.188 207.67 196.188C207.74 196.188 207.81 196.188 207.922 196.16L208.09 197.014C207.908 197.098 207.698 197.14 207.404 197.14ZM212.378 197.14C210.796 197.14 210.292 196.146 210.292 194.676V190.364H209.144V189.51L210.334 189.44L210.474 186.99H211.426V189.44H213.512V190.364H211.426V194.704C211.426 195.656 211.706 196.202 212.616 196.202C212.896 196.202 213.19 196.16 213.498 196.006L213.75 196.818C213.344 197.014 212.854 197.14 212.378 197.14ZM227.257 185.324C228.139 185.688 229.203 186.304 229.735 186.78L229.161 187.452C228.643 186.962 227.593 186.318 226.711 185.898L227.257 185.324ZM217.947 196.132C219.473 195.852 221.853 195.362 224.135 194.872L224.205 195.768C222.049 196.244 219.739 196.748 218.143 197.098L217.947 196.132ZM219.739 193.178H222.735V190.588H219.739V193.178ZM223.659 189.762V193.99H218.857V189.762H223.659ZM230.127 187.536V188.46H225.927C226.067 190.406 226.333 192.156 226.697 193.556C227.509 192.38 228.153 191.036 228.615 189.524L229.553 189.748C228.937 191.638 228.083 193.276 227.033 194.662C227.565 196.216 228.237 197.126 228.993 197.126C229.399 197.126 229.581 196.398 229.665 194.508C229.875 194.718 230.225 194.942 230.491 195.026C230.323 197.392 229.945 198.106 228.923 198.106C227.817 198.106 226.949 197.14 226.305 195.53C225.409 196.538 224.359 197.378 223.197 198.064C223.057 197.882 222.693 197.518 222.483 197.35C223.827 196.622 224.989 195.684 225.955 194.536C225.451 192.87 225.129 190.77 224.961 188.46H218.031V187.536H224.905C224.863 186.808 224.849 186.052 224.835 185.296H225.829C225.829 186.066 225.843 186.808 225.885 187.536H230.127ZM239.334 197.182C236.786 197.182 234.994 195.11 234.994 191.834C234.994 188.572 236.786 186.57 239.334 186.57C241.868 186.57 243.66 188.572 243.66 191.834C243.66 195.11 241.868 197.182 239.334 197.182ZM239.334 196.16C241.224 196.16 242.47 194.466 242.47 191.834C242.47 189.216 241.224 187.592 239.334 187.592C237.43 187.592 236.184 189.216 236.184 191.834C236.184 194.466 237.43 196.16 239.334 196.16ZM245.806 200.234V189.44H246.744L246.856 190.322H246.898C247.598 189.762 248.438 189.244 249.334 189.244C251.308 189.244 252.344 190.77 252.344 193.108C252.344 195.684 250.79 197.182 249.054 197.182C248.354 197.182 247.626 196.86 246.926 196.3L246.954 197.63V200.234H245.806ZM248.886 196.216C250.202 196.216 251.168 195.026 251.168 193.122C251.168 191.386 250.58 190.21 249.068 190.21C248.41 190.21 247.724 190.588 246.954 191.288V195.39C247.668 196.006 248.368 196.216 248.886 196.216ZM256.483 197.14C254.901 197.14 254.397 196.146 254.397 194.676V190.364H253.249V189.51L254.439 189.44L254.579 186.99H255.531V189.44H257.617V190.364H255.531V194.704C255.531 195.656 255.811 196.202 256.721 196.202C257.001 196.202 257.295 196.16 257.603 196.006L257.855 196.818C257.449 197.014 256.959 197.14 256.483 197.14ZM259.355 197V189.44H260.503V197H259.355ZM259.915 187.816C259.453 187.816 259.131 187.508 259.131 187.018C259.131 186.556 259.453 186.248 259.915 186.248C260.377 186.248 260.713 186.556 260.713 187.018C260.713 187.508 260.377 187.816 259.915 187.816ZM266.013 197.182C264.165 197.182 262.541 195.726 262.541 193.234C262.541 190.7 264.165 189.244 266.013 189.244C267.861 189.244 269.485 190.7 269.485 193.234C269.485 195.726 267.861 197.182 266.013 197.182ZM266.013 196.23C267.385 196.23 268.323 195.026 268.323 193.234C268.323 191.428 267.385 190.21 266.013 190.21C264.655 190.21 263.717 191.428 263.717 193.234C263.717 195.026 264.655 196.23 266.013 196.23ZM271.537 197V189.44H272.475L272.587 190.546H272.629C273.357 189.818 274.141 189.244 275.177 189.244C276.759 189.244 277.487 190.266 277.487 192.198V197H276.339V192.338C276.339 190.882 275.891 190.238 274.841 190.238C274.043 190.238 273.469 190.658 272.685 191.456V197H271.537ZM284.838 192.45H288.296V190.84H284.838V192.45ZM289.262 190.84V192.45H292.888V190.84H289.262ZM284.838 190.084H288.296V188.502H284.838V190.084ZM289.262 188.502V190.084H292.888V188.502H289.262ZM292.818 185.66C292.384 186.332 291.894 187.088 291.432 187.69H293.84V193.262H289.262V194.662H295.086V195.544H289.262V198.078H288.296V195.544H282.584V194.662H288.296V193.262H283.914V187.69H286.56C286.252 187.13 285.678 186.29 285.16 185.702L285.958 185.324C286.532 185.954 287.176 186.822 287.456 187.41L286.91 187.69H290.382C290.886 187.004 291.474 186.024 291.81 185.324L292.818 185.66ZM298.908 192.772V196.356H302.352V191.652H296.766V190.714H302.352V188.404H297.816V187.48H302.352V185.268H303.332V187.48H307.924V188.404H303.332V190.714H308.904V191.652H303.332V196.356H306.748V192.772H307.686V198.106H306.748V197.28H297.928V192.772H298.908ZM321.812 186.374V187.27H311.872V186.374H321.812ZM322.988 190.322V191.232H318.984V196.37C318.984 196.86 319.096 196.944 319.656 196.944C319.922 196.944 321.224 196.944 321.574 196.944C322.162 196.944 322.26 196.58 322.302 194.396C322.526 194.578 322.932 194.746 323.198 194.816C323.086 197.196 322.834 197.84 321.644 197.84C321.364 197.84 319.824 197.84 319.558 197.84C318.354 197.84 318.032 197.518 318.032 196.384V191.232H315.288C315.036 194.27 314.364 196.776 311.116 198.064C311.018 197.84 310.738 197.504 310.528 197.336C313.524 196.202 314.07 193.92 314.294 191.232H310.668V190.322H322.988ZM337.114 192.282V193.206H333.25V198.092H332.312V193.206H328.252V192.282H332.312V189.076H330.002C329.708 189.916 329.358 190.672 328.966 191.274C328.798 191.134 328.392 190.896 328.168 190.798C328.98 189.608 329.568 187.802 329.89 185.954L330.8 186.136C330.674 186.822 330.506 187.508 330.31 188.152H332.312V185.436H333.25V188.152H336.512V189.076H333.25V192.282H337.114ZM326.208 198.064V190.112C325.774 190.756 325.312 191.358 324.836 191.862C324.752 191.652 324.472 191.176 324.29 190.952C325.62 189.58 326.866 187.452 327.622 185.31L328.518 185.59C328.126 186.626 327.65 187.676 327.104 188.642V198.064H326.208ZM341.576 193.542V192.646H345.118V193.542H341.576ZM349.436 196.286C350.472 195.936 352.012 195.348 353.524 194.774L353.692 195.544C352.278 196.104 350.808 196.692 349.674 197.154L349.436 196.286ZM349.8 194.424C349.758 194.228 349.618 193.808 349.506 193.57C349.786 193.528 350.094 193.164 350.486 192.632C350.724 192.338 351.242 191.596 351.802 190.672C350.206 190.882 349.898 190.966 349.702 191.064C349.66 190.868 349.52 190.42 349.408 190.182C349.646 190.126 349.87 189.79 350.15 189.314C350.458 188.824 351.41 186.976 351.928 185.268L352.824 185.59C352.222 187.144 351.438 188.754 350.64 190L352.306 189.818C352.6 189.3 352.88 188.754 353.132 188.208L353.902 188.642C353.076 190.238 352.082 191.848 351.06 193.15L353.524 192.646C353.51 192.884 353.538 193.22 353.58 193.416C350.472 194.13 350.052 194.256 349.8 194.424ZM357.57 192.044H356.324V194.214H357.57V192.044ZM358.228 192.044V194.214H359.306V192.044H358.228ZM361.84 197.154C361.84 197.518 361.784 197.728 361.546 197.854C361.294 197.98 360.972 197.994 360.468 197.994C360.44 197.784 360.342 197.476 360.244 197.28C360.566 197.294 360.846 197.294 360.944 197.294C361.042 197.28 361.084 197.252 361.084 197.14V194.97H359.964V197.616H359.306V194.97H358.228V197.63H357.57V194.97H356.324V197.98H355.568V191.26H361.084L361.84 191.246V197.154ZM359.964 192.044V194.214H361.084V192.044H359.964ZM358.228 185.184C358.536 185.674 358.844 186.332 358.984 186.794H361.714V189.986H355.54C355.526 192.254 355.302 195.558 354.014 197.854C353.86 197.686 353.482 197.42 353.286 197.322C354.546 195.068 354.672 191.974 354.672 189.832V186.794H357.99C357.836 186.36 357.584 185.856 357.36 185.436L358.228 185.184ZM355.54 187.592V189.202H360.832V187.592H355.54ZM370.506 187.956H374.398V186.444H370.506V187.956ZM375.308 185.716V188.684H369.638V185.716H375.308ZM363.436 194.704C364.206 194.578 365.214 194.41 366.306 194.2V192.114H365.004C364.528 192.114 364.122 192.198 363.996 192.31C363.954 192.114 363.814 191.694 363.716 191.456C363.94 191.4 364.122 190.938 364.36 190.322C364.5 189.972 364.822 189.006 365.116 187.844H363.534V186.948H365.326C365.452 186.402 365.564 185.828 365.648 185.268L366.558 185.464C366.46 185.954 366.362 186.458 366.236 186.948H368.616V187.844H365.998C365.662 189.076 365.256 190.252 364.85 191.246H366.306V189.076H367.174V191.246H368.518V192.114H367.174V194.046L368.784 193.738L368.84 194.578L367.174 194.914V198.036H366.306V195.096L363.646 195.628L363.436 194.704ZM374.356 190.35H370.646V191.624H374.356V190.35ZM368.448 195.992L369.764 195.908V190.35H368.798V189.538H376.19V190.35H375.224V195.516L376.274 195.446L376.26 196.244L375.224 196.328V198.092H374.356V196.398L368.602 196.846L368.448 195.992ZM374.356 192.352H370.646V193.654H374.356V192.352ZM374.356 194.382H370.646V195.852L374.356 195.586V194.382Z" fill="#999999"/>
</svg>
