<?xml version="1.0" encoding="utf-8"?>
<svg version="1.1" xmlns:xlink="http://www.w3.org/1999/xlink" width="8px" height="14px" xmlns="http://www.w3.org/2000/svg">
  <defs>
    <pattern id="BGPattern" patternUnits="userSpaceOnUse" alignment="0 0" imageRepeat="None" />
    <mask fill="white" id="Clip260">
      <path d="M 6.399999999999999 13.066666666666666  L 7.909333333333336 11.557333333333332  L 3.0186666666666646 6.666666666666668  L 7.909333333333336 1.7759999999999998  L 6.399999999999999 0.2666666666666657  L 0 6.666666666666668  L 6.399999999999999 13.066666666666666  Z " fill-rule="evenodd" />
    </mask>
  </defs>
  <g transform="matrix(1 0 0 1 -19 -15 )">
    <path d="M 6.399999999999999 13.066666666666666  L 7.909333333333336 11.557333333333332  L 3.0186666666666646 6.666666666666668  L 7.909333333333336 1.7759999999999998  L 6.399999999999999 0.2666666666666657  L 0 6.666666666666668  L 6.399999999999999 13.066666666666666  Z " fill-rule="nonzero" fill="rgba(0, 0, 0, 1)" stroke="none" transform="matrix(1 0 0 1 19 15 )" class="fill" />
    <path d="M 6.399999999999999 13.066666666666666  L 7.909333333333336 11.557333333333332  L 3.0186666666666646 6.666666666666668  L 7.909333333333336 1.7759999999999998  L 6.399999999999999 0.2666666666666657  L 0 6.666666666666668  L 6.399999999999999 13.066666666666666  Z " stroke-width="2" stroke-dasharray="0" stroke="rgba(121, 121, 121, 1)" fill="none" transform="matrix(1 0 0 1 19 15 )" class="stroke" mask="url(#Clip260)" />
  </g>
</svg>