<?xml version="1.0" encoding="utf-8"?>
<svg version="1.1" xmlns:xlink="http://www.w3.org/1999/xlink" width="3px" height="3px" xmlns="http://www.w3.org/2000/svg">
  <defs>
    <pattern id="BGPattern" patternUnits="userSpaceOnUse" alignment="0 0" imageRepeat="None" />
    <mask fill="white" id="Clip257">
      <path d="M 0 1.5  C 0 0.6599999999999999  0.6599999999999999 0  1.5 0  C 2.34 0  3 0.6599999999999999  3 1.5  C 3 2.34  2.34 3  1.5 3  C 0.6599999999999999 3  0 2.34  0 1.5  Z " fill-rule="evenodd" />
    </mask>
  </defs>
  <g transform="matrix(1 0 0 1 -292 -17 )">
    <path d="M 0 1.5  C 0 0.6599999999999999  0.6599999999999999 0  1.5 0  C 2.34 0  3 0.6599999999999999  3 1.5  C 3 2.34  2.34 3  1.5 3  C 0.6599999999999999 3  0 2.34  0 1.5  Z " fill-rule="nonzero" fill="rgba(0, 0, 0, 1)" stroke="none" transform="matrix(1 0 0 1 292 17 )" class="fill" />
    <path d="M 0 1.5  C 0 0.6599999999999999  0.6599999999999999 0  1.5 0  C 2.34 0  3 0.6599999999999999  3 1.5  C 3 2.34  2.34 3  1.5 3  C 0.6599999999999999 3  0 2.34  0 1.5  Z " stroke-width="0" stroke-dasharray="0" stroke="rgba(121, 121, 121, 1)" fill="none" transform="matrix(1 0 0 1 292 17 )" class="stroke" mask="url(#Clip257)" />
  </g>
</svg>