<?xml version="1.0" encoding="utf-8"?>
<svg version="1.1" xmlns:xlink="http://www.w3.org/1999/xlink" width="11px" height="11px" xmlns="http://www.w3.org/2000/svg">
  <defs>
    <pattern id="BGPattern" patternUnits="userSpaceOnUse" alignment="0 0" imageRepeat="None" />
    <mask fill="white" id="Clip261">
      <path d="M 0.8400615384615406 4.139215384615397  C 0.8400615384615406 6.008876923076912  2.3550153846153847 7.523830769230756  4.224676923076927 7.523830769230756  C 6.094338461538457 7.523830769230756  7.6092923076923 6.008876923076912  7.6092923076923 4.139215384615397  C 7.6092923076923 2.2695538461538263  6.094338461538457 0.7545999999999822  4.224676923076927 0.7545999999999822  C 2.3550153846153847 0.7545999999999822  0.8400615384615406 2.2695538461538263  0.8400615384615406 4.139215384615397  Z M 8.36203076923077 4.139215384615397  C 8.360676923076923 5.135646153846153  8.00867692307692 6.049492307692333  7.422461538461533 6.764323076923063  L 10.803015384615378 10.144876923076936  C 10.949230769230766 10.291092307692281  10.949230769230766 10.529369230769248  10.803015384615378 10.676938461538441  C 10.656800000000004 10.823153846153843  10.41852307692308 10.823153846153843  10.270953846153844 10.676938461538441  L 6.894461538461542 7.2990923076923195  C 6.174215384615379 7.908323076923068  5.242769230769227 8.275215384615365  4.224676923076927 8.275215384615365  C 1.9393846153846113 8.275215384615365  0.08732307692308439 6.423153846153866  0.08732307692308439 4.139215384615397  C 0.08732307692308439 1.8552769230769286  1.9393846153846113 0.0018615384615259243  4.224676923076927 0.0018615384615259243  C 6.509969230769229 0.0018615384615259243  8.36203076923077 1.8539230769230814  8.36203076923077 4.139215384615397  Z " fill-rule="evenodd" />
    </mask>
  </defs>
  <g transform="matrix(1 0 0 1 -653 -259 )">
    <path d="M 0.8400615384615406 4.139215384615397  C 0.8400615384615406 6.008876923076912  2.3550153846153847 7.523830769230756  4.224676923076927 7.523830769230756  C 6.094338461538457 7.523830769230756  7.6092923076923 6.008876923076912  7.6092923076923 4.139215384615397  C 7.6092923076923 2.2695538461538263  6.094338461538457 0.7545999999999822  4.224676923076927 0.7545999999999822  C 2.3550153846153847 0.7545999999999822  0.8400615384615406 2.2695538461538263  0.8400615384615406 4.139215384615397  Z M 8.36203076923077 4.139215384615397  C 8.360676923076923 5.135646153846153  8.00867692307692 6.049492307692333  7.422461538461533 6.764323076923063  L 10.803015384615378 10.144876923076936  C 10.949230769230766 10.291092307692281  10.949230769230766 10.529369230769248  10.803015384615378 10.676938461538441  C 10.656800000000004 10.823153846153843  10.41852307692308 10.823153846153843  10.270953846153844 10.676938461538441  L 6.894461538461542 7.2990923076923195  C 6.174215384615379 7.908323076923068  5.242769230769227 8.275215384615365  4.224676923076927 8.275215384615365  C 1.9393846153846113 8.275215384615365  0.08732307692308439 6.423153846153866  0.08732307692308439 4.139215384615397  C 0.08732307692308439 1.8552769230769286  1.9393846153846113 0.0018615384615259243  4.224676923076927 0.0018615384615259243  C 6.509969230769229 0.0018615384615259243  8.36203076923077 1.8539230769230814  8.36203076923077 4.139215384615397  Z " fill-rule="nonzero" fill="rgba(51, 51, 51, 1)" stroke="none" transform="matrix(1 0 0 1 653 259 )" class="fill" />
    <path d="M 0.8400615384615406 4.139215384615397  C 0.8400615384615406 6.008876923076912  2.3550153846153847 7.523830769230756  4.224676923076927 7.523830769230756  C 6.094338461538457 7.523830769230756  7.6092923076923 6.008876923076912  7.6092923076923 4.139215384615397  C 7.6092923076923 2.2695538461538263  6.094338461538457 0.7545999999999822  4.224676923076927 0.7545999999999822  C 2.3550153846153847 0.7545999999999822  0.8400615384615406 2.2695538461538263  0.8400615384615406 4.139215384615397  Z " stroke-width="2" stroke-dasharray="0" stroke="rgba(121, 121, 121, 1)" fill="none" transform="matrix(1 0 0 1 653 259 )" class="stroke" mask="url(#Clip261)" />
    <path d="M 8.36203076923077 4.139215384615397  C 8.360676923076923 5.135646153846153  8.00867692307692 6.049492307692333  7.422461538461533 6.764323076923063  L 10.803015384615378 10.144876923076936  C 10.949230769230766 10.291092307692281  10.949230769230766 10.529369230769248  10.803015384615378 10.676938461538441  C 10.656800000000004 10.823153846153843  10.41852307692308 10.823153846153843  10.270953846153844 10.676938461538441  L 6.894461538461542 7.2990923076923195  C 6.174215384615379 7.908323076923068  5.242769230769227 8.275215384615365  4.224676923076927 8.275215384615365  C 1.9393846153846113 8.275215384615365  0.08732307692308439 6.423153846153866  0.08732307692308439 4.139215384615397  C 0.08732307692308439 1.8552769230769286  1.9393846153846113 0.0018615384615259243  4.224676923076927 0.0018615384615259243  C 6.509969230769229 0.0018615384615259243  8.36203076923077 1.8539230769230814  8.36203076923077 4.139215384615397  Z " stroke-width="2" stroke-dasharray="0" stroke="rgba(121, 121, 121, 1)" fill="none" transform="matrix(1 0 0 1 653 259 )" class="stroke" mask="url(#Clip261)" />
  </g>
</svg>