<?xml version="1.0" encoding="utf-8"?>
<svg version="1.1" xmlns:xlink="http://www.w3.org/1999/xlink" width="11px" height="11px" xmlns="http://www.w3.org/2000/svg">
  <defs>
    <pattern id="BGPattern" patternUnits="userSpaceOnUse" alignment="0 0" imageRepeat="None" />
    <mask fill="white" id="Clip262">
      <path d="M 10.988729824561403 5.5  C 10.988729824561403 8.530905263157905  8.5321403508772 10.988729824561403  5.5 10.988729824561403  C 2.4678596491228006 10.988729824561403  0.011270175438596652 8.530905263157905  0.011270175438596652 5.5  C 0.011270175438596652 2.469094736842095  2.4678596491228006 0.011270175438596652  5.5 0.011270175438596652  C 8.5321403508772 0.011270175438596652  10.988729824561403 2.469094736842095  10.988729824561403 5.5  Z M 7.193305263157896 3.318835087719293  L 5.496294736842117 5.017080701754395  L 3.798049122807015 3.318835087719293  C 3.6646596491227967 3.1854456140350753  3.4472842105263055 3.1854456140350753  3.3126596491228217 3.318835087719293  C 3.179270175438603 3.4522245614035114  3.179270175438603 3.6696000000000026  3.3126596491228217 3.8042245614035153  L 5.010905263157895 5.502470175438588  L 3.3126596491228217 7.200715789473691  C 3.179270175438603 7.3341052631578805  3.179270175438603 7.551480701754372  3.3126596491228217 7.686105263157884  C 3.446049122807011 7.819494736842103  3.6634245614035024 7.819494736842103  3.798049122807015 7.686105263157884  L 5.496294736842117 5.987859649122811  L 7.19454035087719 7.686105263157884  C 7.327929824561408 7.819494736842103  7.5453052631579 7.819494736842103  7.6799298245614125 7.686105263157884  C 7.814554385964925 7.5527157894736945  7.813319298245602 7.335340350877203  7.6799298245614125 7.200715789473691  L 5.980449122807016 5.502470175438588  L 7.67869473684209 3.8042245614035153  C 7.812084210526308 3.670835087719297  7.812084210526308 3.4534596491228062  7.67869473684209 3.318835087719293  C 7.5453052631579 3.1854456140350753  7.327929824561408 3.1854456140350753  7.193305263157896 3.318835087719293  Z " fill-rule="evenodd" />
    </mask>
  </defs>
  <g transform="matrix(1 0 0 1 -959 -259 )">
    <path d="M 10.988729824561403 5.5  C 10.988729824561403 8.530905263157905  8.5321403508772 10.988729824561403  5.5 10.988729824561403  C 2.4678596491228006 10.988729824561403  0.011270175438596652 8.530905263157905  0.011270175438596652 5.5  C 0.011270175438596652 2.469094736842095  2.4678596491228006 0.011270175438596652  5.5 0.011270175438596652  C 8.5321403508772 0.011270175438596652  10.988729824561403 2.469094736842095  10.988729824561403 5.5  Z M 7.193305263157896 3.318835087719293  L 5.496294736842117 5.017080701754395  L 3.798049122807015 3.318835087719293  C 3.6646596491227967 3.1854456140350753  3.4472842105263055 3.1854456140350753  3.3126596491228217 3.318835087719293  C 3.179270175438603 3.4522245614035114  3.179270175438603 3.6696000000000026  3.3126596491228217 3.8042245614035153  L 5.010905263157895 5.502470175438588  L 3.3126596491228217 7.200715789473691  C 3.179270175438603 7.3341052631578805  3.179270175438603 7.551480701754372  3.3126596491228217 7.686105263157884  C 3.446049122807011 7.819494736842103  3.6634245614035024 7.819494736842103  3.798049122807015 7.686105263157884  L 5.496294736842117 5.987859649122811  L 7.19454035087719 7.686105263157884  C 7.327929824561408 7.819494736842103  7.5453052631579 7.819494736842103  7.6799298245614125 7.686105263157884  C 7.814554385964925 7.5527157894736945  7.813319298245602 7.335340350877203  7.6799298245614125 7.200715789473691  L 5.980449122807016 5.502470175438588  L 7.67869473684209 3.8042245614035153  C 7.812084210526308 3.670835087719297  7.812084210526308 3.4534596491228062  7.67869473684209 3.318835087719293  C 7.5453052631579 3.1854456140350753  7.327929824561408 3.1854456140350753  7.193305263157896 3.318835087719293  Z " fill-rule="nonzero" fill="rgba(200, 201, 204, 1)" stroke="none" transform="matrix(1 0 0 1 959 259 )" class="fill" />
    <path d="M 10.988729824561403 5.5  C 10.988729824561403 8.530905263157905  8.5321403508772 10.988729824561403  5.5 10.988729824561403  C 2.4678596491228006 10.988729824561403  0.011270175438596652 8.530905263157905  0.011270175438596652 5.5  C 0.011270175438596652 2.469094736842095  2.4678596491228006 0.011270175438596652  5.5 0.011270175438596652  C 8.5321403508772 0.011270175438596652  10.988729824561403 2.469094736842095  10.988729824561403 5.5  Z " stroke-width="2" stroke-dasharray="0" stroke="rgba(121, 121, 121, 1)" fill="none" transform="matrix(1 0 0 1 959 259 )" class="stroke" mask="url(#Clip262)" />
    <path d="M 7.193305263157896 3.318835087719293  L 5.496294736842117 5.017080701754395  L 3.798049122807015 3.318835087719293  C 3.6646596491227967 3.1854456140350753  3.4472842105263055 3.1854456140350753  3.3126596491228217 3.318835087719293  C 3.179270175438603 3.4522245614035114  3.179270175438603 3.6696000000000026  3.3126596491228217 3.8042245614035153  L 5.010905263157895 5.502470175438588  L 3.3126596491228217 7.200715789473691  C 3.179270175438603 7.3341052631578805  3.179270175438603 7.551480701754372  3.3126596491228217 7.686105263157884  C 3.446049122807011 7.819494736842103  3.6634245614035024 7.819494736842103  3.798049122807015 7.686105263157884  L 5.496294736842117 5.987859649122811  L 7.19454035087719 7.686105263157884  C 7.327929824561408 7.819494736842103  7.5453052631579 7.819494736842103  7.6799298245614125 7.686105263157884  C 7.814554385964925 7.5527157894736945  7.813319298245602 7.335340350877203  7.6799298245614125 7.200715789473691  L 5.980449122807016 5.502470175438588  L 7.67869473684209 3.8042245614035153  C 7.812084210526308 3.670835087719297  7.812084210526308 3.4534596491228062  7.67869473684209 3.318835087719293  C 7.5453052631579 3.1854456140350753  7.327929824561408 3.1854456140350753  7.193305263157896 3.318835087719293  Z " stroke-width="2" stroke-dasharray="0" stroke="rgba(121, 121, 121, 1)" fill="none" transform="matrix(1 0 0 1 959 259 )" class="stroke" mask="url(#Clip262)" />
  </g>
</svg>