<?xml version="1.0" encoding="utf-8"?>
<svg version="1.1" xmlns:xlink="http://www.w3.org/1999/xlink" width="4px" height="8px" xmlns="http://www.w3.org/2000/svg">
  <defs>
    <pattern id="BGPattern" patternUnits="userSpaceOnUse" alignment="0 0" imageRepeat="None" />
    <mask fill="white" id="Clip209">
      <path d="M 3.84950629032258 7.173021509433961  L 1.0434686612903223 4.000222037735849  L 3.8495062983870962 0.8271232830188681  C 4.01489404032258 0.6397810188679246  4.01489404032258 0.33658311320754725  3.8495062983870962 0.14983938679245298  C 3.6841268145161283 -0.03720361320754707  3.415806024193548 -0.03720361320754707  3.25042654032258 0.14983938679245298  L 0.14508833870967733 3.6616524905660377  C -0.020043572580645316 3.8486954905660373  -0.020043572580645316 4.152047849056604  0.14508833870967733 4.338501962264151  L 3.250426532258064 7.85017025471698  C 3.3333721048387095 7.943696575471697  3.4417847903225804 7.9904500849056594  3.5502139838709668 7.9904500849056594  C 3.658651427419354 7.9904500849056594  3.767064120967741 7.943686924528301  3.84950629032258 7.849870981132074  C 4.014894032258064 7.662827981132074  4.014894032258064 7.360064499999999  3.84950629032258 7.173021509433961  Z " fill-rule="evenodd" />
    </mask>
  </defs>
  <g transform="matrix(1 0 0 1 -1487 -872 )">
    <path d="M 3.84950629032258 7.173021509433961  L 1.0434686612903223 4.000222037735849  L 3.8495062983870962 0.8271232830188681  C 4.01489404032258 0.6397810188679246  4.01489404032258 0.33658311320754725  3.8495062983870962 0.14983938679245298  C 3.6841268145161283 -0.03720361320754707  3.415806024193548 -0.03720361320754707  3.25042654032258 0.14983938679245298  L 0.14508833870967733 3.6616524905660377  C -0.020043572580645316 3.8486954905660373  -0.020043572580645316 4.152047849056604  0.14508833870967733 4.338501962264151  L 3.250426532258064 7.85017025471698  C 3.3333721048387095 7.943696575471697  3.4417847903225804 7.9904500849056594  3.5502139838709668 7.9904500849056594  C 3.658651427419354 7.9904500849056594  3.767064120967741 7.943686924528301  3.84950629032258 7.849870981132074  C 4.014894032258064 7.662827981132074  4.014894032258064 7.360064499999999  3.84950629032258 7.173021509433961  Z " fill-rule="nonzero" fill="rgba(198, 201, 208, 1)" stroke="none" transform="matrix(1 0 0 1 1487 872 )" class="fill" />
    <path d="M 3.84950629032258 7.173021509433961  L 1.0434686612903223 4.000222037735849  L 3.8495062983870962 0.8271232830188681  C 4.01489404032258 0.6397810188679246  4.01489404032258 0.33658311320754725  3.8495062983870962 0.14983938679245298  C 3.6841268145161283 -0.03720361320754707  3.415806024193548 -0.03720361320754707  3.25042654032258 0.14983938679245298  L 0.14508833870967733 3.6616524905660377  C -0.020043572580645316 3.8486954905660373  -0.020043572580645316 4.152047849056604  0.14508833870967733 4.338501962264151  L 3.250426532258064 7.85017025471698  C 3.3333721048387095 7.943696575471697  3.4417847903225804 7.9904500849056594  3.5502139838709668 7.9904500849056594  C 3.658651427419354 7.9904500849056594  3.767064120967741 7.943686924528301  3.84950629032258 7.849870981132074  C 4.014894032258064 7.662827981132074  4.014894032258064 7.360064499999999  3.84950629032258 7.173021509433961  Z " stroke-width="0" stroke-dasharray="0" stroke="rgba(255, 255, 255, 0)" fill="none" transform="matrix(1 0 0 1 1487 872 )" class="stroke" mask="url(#Clip209)" />
  </g>
</svg>