<?xml version="1.0" encoding="utf-8"?>
<svg version="1.1" xmlns:xlink="http://www.w3.org/1999/xlink" width="13px" height="16px" xmlns="http://www.w3.org/2000/svg">
  <defs>
    <pattern id="BGPattern" patternUnits="userSpaceOnUse" alignment="0 0" imageRepeat="None" />
    <mask fill="white" id="Clip208">
      <path d="M 10.99382716550926 16  C 12.057901239583344 16  12.919753091435183 15.105  13 14  L 13 2  C 12.919753091435183 0.8949999999999996  12.057901239583344 0  10.99382716550926 0  L 2.006172834490741 0  C 0.9420987604166554 0  0.08024690856481698 0.8949999999999996  0 2  L 0 14  C 0.08024690856481698 15.105  0.9420987604166554 16  2.006172834490741 16  L 10.99382716550926 16  Z M 2.006172834490741 1.3333333281250006  L 10.99382716550926 1.3333333281250006  C 11.348518518518517 1.3333333281250006  11.63580247916667 1.631666656250001  11.63580246412036 2  L 11.63580246412036 14  C 11.63580246412036 14.368333328125  11.348518518518517 14.666666671875  10.99382716550926 14.666666671875  L 2.006172834490741 14.666666671875  C 1.6514814814814824 14.666666671875  1.3641975208333292 14.368333343749999  1.36419753587964 14  L 1.36419753587964 2  C 1.36419753587964 1.6316666718749993  1.6514814814814824 1.3333333281250006  2.006172834490741 1.3333333281250006  Z M 7.191358030092601 3.7105263157894743  C 7.191358030092601 3.3617148921186217  6.881826496693209 3.078947363486842  6.5 3.078947363486842  L 3.7345678958333224 3.078947363486842  C 3.352741399140143 3.078947363486842  3.0432098657407494 3.3617148921186217  3.0432098657407494 3.7105263157894743  C 3.0432098657407494 4.059337739460327  3.352741399140143 4.342105268092105  3.7345678958333224 4.342105268092105  L 6.5 4.342105268092105  C 6.881826496693209 4.342105268092105  7.191358030092601 4.059337739460327  7.191358030092601 3.7105263157894743  Z M 9.265432104166678 5.605263157894738  L 3.7345678958333224 5.605263157894738  C 3.3527827368904752 5.605316552740138  3.0433157078925603 5.8880684384715885  3.0433157078925603 6.236842102796054  C 3.0433157078925603 6.585615767120519  3.3527827368904752 6.868367652851969  3.7345678958333224 6.8684210476973675  L 9.265432104166678 6.8684210476973675  C 9.647258588203982 6.868421039522101  9.956790109106493 6.585653522306647  9.956790118055551 6.236842110197369  C 9.956790118055551 5.888030692307304  9.647258594531934 5.6052631660700065  9.265432104166678 5.605263157894738  Z M 9.265432104166678 8.131578952302633  L 3.7345678958333224 8.131578952302633  C 3.352782736888912 8.13163234714601  3.043315707888553 8.414384232878053  3.043315707888553 8.763157897203946  C 3.043315707888553 9.111931561529843  3.352782736888912 9.394683447261887  3.7345678958333224 9.394736842105264  L 9.265432104166678 9.394736842105264  C 9.647258594531934 9.394736833929997  9.956790118055551 9.111969307692696  9.956790118055551 8.763157889802631  C 9.956790109106493 8.41434647769335  9.647258588203982 8.1315789604779  9.265432104166678 8.131578952302633  Z M 9.265432104166678 10.657894731907895  L 3.7345678958333224 10.657894731907895  C 3.352741399140143 10.657894731907895  3.0432098657407494 10.940662260539675  3.0432098657407494 11.289473684210527  C 3.0432098657407494 11.63828510788138  3.352741399140143 11.921052636513156  3.7345678958333224 11.921052636513156  L 9.265432104166678 11.921052636513156  C 9.647258594531934 11.92105262833789  9.956790118055551 11.638285102100589  9.956790118055551 11.289473684210527  C 9.956790118055551 10.940662266320459  9.647258594531934 10.657894740083162  9.265432104166678 10.657894731907895  Z M 7.191358030092601 3.7105263157894743  C 7.191358030092601 2.8684210460526316  7.191358030092601 4.552631585526317  7.191358030092601 3.7105263157894743  Z " fill-rule="evenodd" />
    </mask>
  </defs>
  <g transform="matrix(1 0 0 1 -172 -10 )">
    <path d="M 10.99382716550926 16  C 12.057901239583344 16  12.919753091435183 15.105  13 14  L 13 2  C 12.919753091435183 0.8949999999999996  12.057901239583344 0  10.99382716550926 0  L 2.006172834490741 0  C 0.9420987604166554 0  0.08024690856481698 0.8949999999999996  0 2  L 0 14  C 0.08024690856481698 15.105  0.9420987604166554 16  2.006172834490741 16  L 10.99382716550926 16  Z M 2.006172834490741 1.3333333281250006  L 10.99382716550926 1.3333333281250006  C 11.348518518518517 1.3333333281250006  11.63580247916667 1.631666656250001  11.63580246412036 2  L 11.63580246412036 14  C 11.63580246412036 14.368333328125  11.348518518518517 14.666666671875  10.99382716550926 14.666666671875  L 2.006172834490741 14.666666671875  C 1.6514814814814824 14.666666671875  1.3641975208333292 14.368333343749999  1.36419753587964 14  L 1.36419753587964 2  C 1.36419753587964 1.6316666718749993  1.6514814814814824 1.3333333281250006  2.006172834490741 1.3333333281250006  Z M 7.191358030092601 3.7105263157894743  C 7.191358030092601 3.3617148921186217  6.881826496693209 3.078947363486842  6.5 3.078947363486842  L 3.7345678958333224 3.078947363486842  C 3.352741399140143 3.078947363486842  3.0432098657407494 3.3617148921186217  3.0432098657407494 3.7105263157894743  C 3.0432098657407494 4.059337739460327  3.352741399140143 4.342105268092105  3.7345678958333224 4.342105268092105  L 6.5 4.342105268092105  C 6.881826496693209 4.342105268092105  7.191358030092601 4.059337739460327  7.191358030092601 3.7105263157894743  Z M 9.265432104166678 5.605263157894738  L 3.7345678958333224 5.605263157894738  C 3.3527827368904752 5.605316552740138  3.0433157078925603 5.8880684384715885  3.0433157078925603 6.236842102796054  C 3.0433157078925603 6.585615767120519  3.3527827368904752 6.868367652851969  3.7345678958333224 6.8684210476973675  L 9.265432104166678 6.8684210476973675  C 9.647258588203982 6.868421039522101  9.956790109106493 6.585653522306647  9.956790118055551 6.236842110197369  C 9.956790118055551 5.888030692307304  9.647258594531934 5.6052631660700065  9.265432104166678 5.605263157894738  Z M 9.265432104166678 8.131578952302633  L 3.7345678958333224 8.131578952302633  C 3.352782736888912 8.13163234714601  3.043315707888553 8.414384232878053  3.043315707888553 8.763157897203946  C 3.043315707888553 9.111931561529843  3.352782736888912 9.394683447261887  3.7345678958333224 9.394736842105264  L 9.265432104166678 9.394736842105264  C 9.647258594531934 9.394736833929997  9.956790118055551 9.111969307692696  9.956790118055551 8.763157889802631  C 9.956790109106493 8.41434647769335  9.647258588203982 8.1315789604779  9.265432104166678 8.131578952302633  Z M 9.265432104166678 10.657894731907895  L 3.7345678958333224 10.657894731907895  C 3.352741399140143 10.657894731907895  3.0432098657407494 10.940662260539675  3.0432098657407494 11.289473684210527  C 3.0432098657407494 11.63828510788138  3.352741399140143 11.921052636513156  3.7345678958333224 11.921052636513156  L 9.265432104166678 11.921052636513156  C 9.647258594531934 11.92105262833789  9.956790118055551 11.638285102100589  9.956790118055551 11.289473684210527  C 9.956790118055551 10.940662266320459  9.647258594531934 10.657894740083162  9.265432104166678 10.657894731907895  Z M 7.191358030092601 3.7105263157894743  C 7.191358030092601 2.8684210460526316  7.191358030092601 4.552631585526317  7.191358030092601 3.7105263157894743  Z " fill-rule="nonzero" fill="rgba(198, 201, 208, 1)" stroke="none" transform="matrix(1 0 0 1 172 10 )" class="fill" />
    <path d="M 10.99382716550926 16  C 12.057901239583344 16  12.919753091435183 15.105  13 14  L 13 2  C 12.919753091435183 0.8949999999999996  12.057901239583344 0  10.99382716550926 0  L 2.006172834490741 0  C 0.9420987604166554 0  0.08024690856481698 0.8949999999999996  0 2  L 0 14  C 0.08024690856481698 15.105  0.9420987604166554 16  2.006172834490741 16  L 10.99382716550926 16  Z " stroke-width="0" stroke-dasharray="0" stroke="rgba(255, 255, 255, 0)" fill="none" transform="matrix(1 0 0 1 172 10 )" class="stroke" mask="url(#Clip208)" />
    <path d="M 2.006172834490741 1.3333333281250006  L 10.99382716550926 1.3333333281250006  C 11.348518518518517 1.3333333281250006  11.63580247916667 1.631666656250001  11.63580246412036 2  L 11.63580246412036 14  C 11.63580246412036 14.368333328125  11.348518518518517 14.666666671875  10.99382716550926 14.666666671875  L 2.006172834490741 14.666666671875  C 1.6514814814814824 14.666666671875  1.3641975208333292 14.368333343749999  1.36419753587964 14  L 1.36419753587964 2  C 1.36419753587964 1.6316666718749993  1.6514814814814824 1.3333333281250006  2.006172834490741 1.3333333281250006  Z " stroke-width="0" stroke-dasharray="0" stroke="rgba(255, 255, 255, 0)" fill="none" transform="matrix(1 0 0 1 172 10 )" class="stroke" mask="url(#Clip208)" />
    <path d="M 7.191358030092601 3.7105263157894743  C 7.191358030092601 3.3617148921186217  6.881826496693209 3.078947363486842  6.5 3.078947363486842  L 3.7345678958333224 3.078947363486842  C 3.352741399140143 3.078947363486842  3.0432098657407494 3.3617148921186217  3.0432098657407494 3.7105263157894743  C 3.0432098657407494 4.059337739460327  3.352741399140143 4.342105268092105  3.7345678958333224 4.342105268092105  L 6.5 4.342105268092105  C 6.881826496693209 4.342105268092105  7.191358030092601 4.059337739460327  7.191358030092601 3.7105263157894743  Z " stroke-width="0" stroke-dasharray="0" stroke="rgba(255, 255, 255, 0)" fill="none" transform="matrix(1 0 0 1 172 10 )" class="stroke" mask="url(#Clip208)" />
    <path d="M 9.265432104166678 5.605263157894738  L 3.7345678958333224 5.605263157894738  C 3.3527827368904752 5.605316552740138  3.0433157078925603 5.8880684384715885  3.0433157078925603 6.236842102796054  C 3.0433157078925603 6.585615767120519  3.3527827368904752 6.868367652851969  3.7345678958333224 6.8684210476973675  L 9.265432104166678 6.8684210476973675  C 9.647258588203982 6.868421039522101  9.956790109106493 6.585653522306647  9.956790118055551 6.236842110197369  C 9.956790118055551 5.888030692307304  9.647258594531934 5.6052631660700065  9.265432104166678 5.605263157894738  Z " stroke-width="0" stroke-dasharray="0" stroke="rgba(255, 255, 255, 0)" fill="none" transform="matrix(1 0 0 1 172 10 )" class="stroke" mask="url(#Clip208)" />
    <path d="M 9.265432104166678 8.131578952302633  L 3.7345678958333224 8.131578952302633  C 3.352782736888912 8.13163234714601  3.043315707888553 8.414384232878053  3.043315707888553 8.763157897203946  C 3.043315707888553 9.111931561529843  3.352782736888912 9.394683447261887  3.7345678958333224 9.394736842105264  L 9.265432104166678 9.394736842105264  C 9.647258594531934 9.394736833929997  9.956790118055551 9.111969307692696  9.956790118055551 8.763157889802631  C 9.956790109106493 8.41434647769335  9.647258588203982 8.1315789604779  9.265432104166678 8.131578952302633  Z " stroke-width="0" stroke-dasharray="0" stroke="rgba(255, 255, 255, 0)" fill="none" transform="matrix(1 0 0 1 172 10 )" class="stroke" mask="url(#Clip208)" />
    <path d="M 9.265432104166678 10.657894731907895  L 3.7345678958333224 10.657894731907895  C 3.352741399140143 10.657894731907895  3.0432098657407494 10.940662260539675  3.0432098657407494 11.289473684210527  C 3.0432098657407494 11.63828510788138  3.352741399140143 11.921052636513156  3.7345678958333224 11.921052636513156  L 9.265432104166678 11.921052636513156  C 9.647258594531934 11.92105262833789  9.956790118055551 11.638285102100589  9.956790118055551 11.289473684210527  C 9.956790118055551 10.940662266320459  9.647258594531934 10.657894740083162  9.265432104166678 10.657894731907895  Z " stroke-width="0" stroke-dasharray="0" stroke="rgba(255, 255, 255, 0)" fill="none" transform="matrix(1 0 0 1 172 10 )" class="stroke" mask="url(#Clip208)" />
    <path d="M 7.191358030092601 3.7105263157894743  C 7.191358030092601 2.8684210460526316  7.191358030092601 4.552631585526317  7.191358030092601 3.7105263157894743  Z " stroke-width="0" stroke-dasharray="0" stroke="rgba(255, 255, 255, 0)" fill="none" transform="matrix(1 0 0 1 172 10 )" class="stroke" mask="url(#Clip208)" />
  </g>
</svg>