<?xml version="1.0" encoding="utf-8"?>
<svg version="1.1" xmlns:xlink="http://www.w3.org/1999/xlink" width="100px" height="223px" xmlns="http://www.w3.org/2000/svg">
  <defs>
    <linearGradient gradientUnits="userSpaceOnUse" x1="50" y1="0" x2="50" y2="223" id="LinearGradient132">
      <stop id="Stop133" stop-color="#ffffff" offset="0" />
      <stop id="Stop134" stop-color="#f2f2f2" offset="0" />
      <stop id="Stop135" stop-color="#e4e4e4" offset="1" />
      <stop id="Stop136" stop-color="#ffffff" offset="1" />
    </linearGradient>
    <pattern id="BGPattern" patternUnits="userSpaceOnUse" alignment="0 0" imageRepeat="None" />
    <mask fill="white" id="Clip137">
      <path d="M 0 213  L 0 10  C 0 4.399999999999999  4.3999999999999995 0  10 0  L 90 0  C 95.6 0  100 4.399999999999999  100 10  L 100 213  C 100 218.6  95.6 223  90 223  L 10 223  C 4.3999999999999995 223  0 218.6  0 213  Z " fill-rule="evenodd" />
    </mask>
  </defs>
  <g transform="matrix(1 0 0 1 -702 -1241 )">
    <path d="M 0 213  L 0 10  C 0 4.399999999999999  4.3999999999999995 0  10 0  L 90 0  C 95.6 0  100 4.399999999999999  100 10  L 100 213  C 100 218.6  95.6 223  90 223  L 10 223  C 4.3999999999999995 223  0 218.6  0 213  Z " fill-rule="nonzero" fill="url(#LinearGradient132)" stroke="none" transform="matrix(1 0 0 1 702 1241 )" class="fill" />
    <path d="M 0 213  L 0 10  C 0 4.399999999999999  4.3999999999999995 0  10 0  L 90 0  C 95.6 0  100 4.399999999999999  100 10  L 100 213  C 100 218.6  95.6 223  90 223  L 10 223  C 4.3999999999999995 223  0 218.6  0 213  Z " stroke-width="2" stroke-dasharray="0" stroke="rgba(121, 121, 121, 1)" fill="none" transform="matrix(1 0 0 1 702 1241 )" class="stroke" mask="url(#Clip137)" />
  </g>
</svg>